<svg xmlns:rdf="http://www.w3.org/1999/02/22-rdf-syntax-ns#" xmlns="http://www.w3.org/2000/svg" version="1.1" xmlns:cc="http://creativecommons.org/ns#" xmlns:dc="http://purl.org/dc/elements/1.1/" viewBox="0 0 16 16">
 <g transform="matrix(0.28,0,0,0.28,-1.1,-278)">
  <path d="m4 12v3h2c2.2 0 4 1.8 4 4v26c0 2-1.4 4-3.2 4h-0.8-2v3h32l3-11h-3s-2 4.2-3.6 6.7c-0.12 0.18-0.29 0.31-0.42 0.45l-0.0039 0.0039c-0.14 0.12-0.29 0.22-0.44 0.31-0.016 0.0092-0.031 0.02-0.047 0.029-0.15 0.081-0.3 0.15-0.46 0.21-0.024 0.0085-0.048 0.018-0.072 0.025-0.15 0.047-0.3 0.08-0.46 0.1-1.7 0-3-1.3-3-3v-1-25c8 11 18 23 25 32h2v-33c0-1.9 1.4-3.5 3.2-3.9h1 2v-3h-18v3h2c1.9 0 3.5 1.4 3.9 3.2v1 18l-20-25h-7zm16 3c2.4 0.027 4 1.7 4 4v26c0 2.2-1.8 4-4 4s-4-1.8-4-4v-26c0.052-2.5 1.8-4 4-4z" transform="translate(0,990)"/>
 </g>
</svg>
