<?xml version="1.0" encoding="UTF-8" standalone="no"?>
<!-- Created with Inkscape (http://www.inkscape.org/) -->
<svg id="ca-stamp" xmlns:rdf="http://www.w3.org/1999/02/22-rdf-syntax-ns#" xmlns="http://www.w3.org/2000/svg" height="783" width="603" version="1.1" xmlns:cc="http://creativecommons.org/ns#" xmlns:dc="http://purl.org/dc/elements/1.1/" viewBox="0 0 607 783">
 <g id="border" transform="translate(.5 -269.9)">
  <path d="m16 271.4a15 15 0 0 1 -15 15v30a15 15 0 0 1 15 15 15 15 0 0 1 -15 15v30a15 15 0 0 1 15 15 15 15 0 0 1 -15 15v30a15 15 0 0 1 15 15 15 15 0 0 1 -15 15v30a15 15 0 0 1 15 15 15 15 0 0 1 -15 15v30a15 15 0 0 1 15 15 15 15 0 0 1 -15 15v30a15 15 0 0 1 15 15 15 15 0 0 1 -15 15v30a15 15 0 0 1 15 15 15 15 0 0 1 -15 15v30a15 15 0 0 1 15 15 15 15 0 0 1 -15 15v30a15 15 0 0 1 15 15 15 15 0 0 1 -15 15v30a15 15 0 0 1 15 15 15 15 0 0 1 -15 15v30a15 15 0 0 1 15 15 15 15 0 0 1 -15 15v30a15 15 0 0 1 15 15 15 15 0 0 1 -15 15v30a15 15 0 0 1 0.006 0 15 15 0 0 1 15 15h30a15 15 0 0 1 15 -15 15 15 0 0 1 15 15h30a15 15 0 0 1 15 -15 15 15 0 0 1 15 15h30a15 15 0 0 1 15 -15 15 15 0 0 1 15 15h30a15 15 0 0 1 15 -15 15 15 0 0 1 15 15h30a15 15 0 0 1 15 -15 15 15 0 0 1 15 15h30a15 15 0 0 1 15 -15 15 15 0 0 1 15 15h30a15 15 0 0 1 15 -15 15 15 0 0 1 15 15h30a15 15 0 0 1 15 -15 15 15 0 0 1 15 15h30a15 15 0 0 1 15 -15 15 15 0 0 1 15 15h30a15 15 0 0 1 14.99 -15v-30a15 15 0 0 1 -15 -15 15 15 0 0 1 15 -15v-30a15 15 0 0 1 -15 -15 15 15 0 0 1 15 -15v-30a15 15 0 0 1 -15 -15 15 15 0 0 1 15 -15v-30a15 15 0 0 1 -15 -15 15 15 0 0 1 15 -15v-30a15 15 0 0 1 -15 -15 15 15 0 0 1 15 -15v-30a15 15 0 0 1 -15 -15 15 15 0 0 1 15 -15v-30a15 15 0 0 1 -15 -15 15 15 0 0 1 15 -15v-30a15 15 0 0 1 -15 -15 15 15 0 0 1 15 -15v-30a15 15 0 0 1 -15 -15 15 15 0 0 1 15 -15v-30a15 15 0 0 1 -15 -15 15 15 0 0 1 15 -15v-30a15 15 0 0 1 -15 -15 15 15 0 0 1 15 -15v-30a15 15 0 0 1 -15 -15 15 15 0 0 1 15 -15v-30a15 15 0 0 1 -15 -15h-30a15 15 0 0 1 -15 15 15 15 0 0 1 -15 -15h-30a15 15 0 0 1 -15 15 15 15 0 0 1 -15 -15h-30a15 15 0 0 1 -15 15 15 15 0 0 1 -15 -15h-30a15 15 0 0 1 -15 15 15 15 0 0 1 -15 -15h-30a15 15 0 0 1 -15 15 15 15 0 0 1 -15 -15h-30a15 15 0 0 1 -15 15 15 15 0 0 1 -15 -15h-30a15 15 0 0 1 -15 15 15 15 0 0 1 -15 -15h-30a15 15 0 0 1 -15 15 15 15 0 0 1 -15 -15h-30a15 15 0 0 1 -15 15 15 15 0 0 1 -15 -15h-30z" stroke="#000" stroke-width="3" fill="none"/>
 </g>
 <g id="background" transform="translate(.5 -217.5)">
  <rect height="650" width="470" y="284" x="66" fill="#00468c"/>
 </g>
 <g id="content" transform="translate(.5 -217.5)" fill="#fff">
  <g transform="matrix(0,1,-1,0,1,-1)">
   <path d="m365.7-103.8 12.74 7.107q-4.293 16.33-17.38 25.33-13.02 8.937-29.98 8.937-22.24 0-35.68-14.43t-13.44-35.68q0-23.29 13.51-37.09 13.51-13.79 35.26-13.79 19.21 0 32.3 10.49v-8.937h12.67v31.46h-12.67q-4.222-9.57-13.02-14.78-8.796-5.278-18.51-5.278-14.64 0-24.07 10.56-9.359 10.56-9.359 26.67 0 16.54 10.06 27.02 10.06 10.49 23.86 10.49 11.33 0 20.62-7.248 9.289-7.319 13.09-20.83z"/>
   <path d="m460-75.86v11.89h-23.36v-8.304q-9.711 9.43-21.67 9.43-9.289 0-16.19-6.052-6.826-6.052-6.826-15.48 0-9.5 7.248-15.76 7.319-6.263 17.59-6.263 9.57 0 18.51 5.77v-6.756q0-5.207-0.9852-8.022t-4.644-5.067q-3.589-2.252-9.43-2.252-10.06 0-14.57 8.022l-12.81-3.378q8.515-15.9 29.42-15.9 7.67 0 13.23 2.111 5.63 2.041 8.374 5.348 2.744 3.237 3.659 7.037 0.9852 3.8 0.9852 12.1v31.53h11.47zm-24.7-13.44q-8.656-6.756-17.52-6.756-5.559 0-9.289 3.237t-3.73 8.374q0 4.785 3.237 8.022 3.307 3.237 8.937 3.237 9.711 0 18.37-8.163v-7.952z"/>
   <path d="m476.9-75.86v-74.1h-12.1v-11.89h25.47v85.99h10.41v11.89h-35.89v-11.89h12.1z"/>
   <path d="m517.5-155.2q0-3.237 2.252-5.63 2.322-2.393 5.841-2.393 3.307 0 5.7 2.322t2.393 5.7-2.393 5.77q-2.393 2.322-5.7 2.322-3.378 0-5.77-2.393-2.322-2.393-2.322-5.7zm1.9 79.38v-44.33h-10.63v-11.89h24v56.23h10.49v11.89h-34.48v-11.89h10.63z"/>
   <path d="m560.2-75.86v-44.33h-9.922v-11.82h9.922v-9.852q0-12.46 5.278-17.17 5.278-4.785 12.46-4.785 15.48 0 17.94 15.69l-11.89 1.83q-0.7037-6.545-5.137-6.545-3.026 0-4.152 2.111-1.126 2.041-1.126 8.867v9.852h11.68v11.82h-11.68v44.33h12.95v11.89h-36.24v-11.89h9.922z"/>
   <path d="m596.9-98.03q0-15.76 10.41-25.83 10.41-10.13 25.4-10.13 14.71 0 25.26 9.993 10.56 9.922 10.56 25.97 0 16.04-10.56 26.04-10.49 9.993-25.26 9.993-15.2 0-25.54-10.13-10.27-10.13-10.27-25.9zm14.14 0q0 10.06 6.263 16.54 6.333 6.404 15.41 6.404 9.219 0 15.41-6.474 6.263-6.545 6.263-16.47 0-9.993-6.333-16.47-6.333-6.474-15.34-6.474-9.43 0-15.55 6.615-6.122 6.615-6.122 16.33z"/>
   <path d="m690.8-75.86v-44.33h-13.72v-11.89h24.42v15.34q2.252-5.982 6.263-9.922 4.011-3.941 8.445-5.207 4.504-1.267 12.24-1.267h3.519v13.51h-2.674q-10.2 0-15.27 2.041-4.996 2.041-7.459 7.459-2.393 5.348-2.393 19.28v14.99h14.85v11.89h-41.94v-11.89h13.72z"/>
   <path d="m767.4-132.1v8.233q12.88-9.289 23.5-9.289 6.615 0 10.91 3.167 4.363 3.096 5.7 7.67 1.337 4.504 1.337 13.23v33.22h11.47v11.89h-24.84v-44.54q0-7.741-2.322-10.06-2.322-2.393-5.7-2.393-8.867 0-20.06 8.656v36.45h11.75v11.89h-37.09v-11.89h11.96v-44.33h-11.96v-11.89h25.33z"/>
   <path d="m834.5-155.2q0-3.237 2.252-5.63 2.322-2.393 5.841-2.393 3.307 0 5.7 2.322t2.393 5.7-2.393 5.77q-2.393 2.322-5.7 2.322-3.378 0-5.77-2.393-2.322-2.393-2.322-5.7zm1.9 79.38v-44.33h-10.63v-11.89h24v56.23h10.49v11.89h-34.48v-11.89h10.63z"/>
   <path d="m938-75.86v11.89h-23.36v-8.304q-9.711 9.43-21.67 9.43-9.289 0-16.19-6.052-6.826-6.052-6.826-15.48 0-9.5 7.248-15.76 7.319-6.263 17.59-6.263 9.57 0 18.51 5.77v-6.756q0-5.207-0.9852-8.022t-4.644-5.067q-3.589-2.252-9.43-2.252-10.06 0-14.57 8.022l-12.81-3.378q8.515-15.9 29.42-15.9 7.67 0 13.23 2.111 5.63 2.041 8.374 5.348 2.744 3.237 3.659 7.037 0.9852 3.8 0.9852 12.1v31.53h11.47zm-24.7-13.44q-8.656-6.756-17.52-6.756-5.559 0-9.289 3.237t-3.73 8.374q0 4.785 3.237 8.022 3.307 3.237 8.937 3.237 9.711 0 18.37-8.163v-7.952z"/>
  </g>
  <g fill-rule="evenodd" transform="translate(679.4 729)">
   <path d="m-446.8 34.06 5.688 2.906-1.562-3.844z"/>
   <path d="m-439 38.5 3.625 7.5 7.312-0.1875l-1.9-6.15z"/>
   <path d="m-424.3 40.09 1.469 6.5 13.41 2.906 0.375-2.812-7.441-2.024-7.278-4.976z"/>
   <path d="m-423.5 85.61-1.656 1.953 4.766 4.172 1.938-0.9219z"/>
   <path d="m-378.4 90.16 7.625 8 0.9375 5.688-8.062-4 1.25-5.438-4.438-3.312z"/>
   <path d="m-387.2 112.3 6.188 15.31-4.562-0.625-3.25-10.12z"/>
  </g>
  <path d="m248.1 303.3 153.3 62.38-56.19 152 146.2 278.9v14.87l9.915 27.27-11.98 8.676-10.74 7.023-4.131 21.07-12.39 2.892-4.131 17.76 7.85 5.371-4.958 12.81-116.5-25.61-2.479-13.63 6.197-22.72-24.97-39.9-7.258-0.1709-6.197-4.131 2.955-6.205-7.5-13.63-15.7-7.023-8.263-18.59-26.85-18.59-17.76-7.023 7.436-33.05-7.436-14.05-4.544-24.79-12.81-41.31 7.85-16.11 7.436-10.74-17.35-16.94 2.066-19.83 5.784-17.76 4.131 5.784-1.653 5.371 9.502 13.63-1.653-18.59-3.718-9.089 5.371-7.023 20.66 8.263-23.14-16.94-7.023 14.05h-4.131l-11.57-19.83 2.479-19.42-14.46-36.77 5.784-13.22 8.263-23.96-1.239-23.14-7.023-16.94 11.15-18.18 15.7-18.18 7.85-15.29 1.653-19.42z" fill-rule="evenodd"/>
 </g>
</svg>
