<?xml version="1.0" encoding="UTF-8" standalone="no"?>
<!-- Created with Inkscape (http://www.inkscape.org/) -->
<svg id="cambodia-stamp" xmlns:rdf="http://www.w3.org/1999/02/22-rdf-syntax-ns#" xmlns="http://www.w3.org/2000/svg" height="783" width="603" version="1.1" xmlns:cc="http://creativecommons.org/ns#" xmlns:dc="http://purl.org/dc/elements/1.1/" viewBox="0 0 607 783">
 <g id="border" transform="translate(1.5 -270.9)">
  <path d="m15 272.4a15 15 0 0 1 -15 15v30a15 15 0 0 1 15 15 15 15 0 0 1 -15 15v30a15 15 0 0 1 15 15 15 15 0 0 1 -15 15v30a15 15 0 0 1 15 15 15 15 0 0 1 -15 15v30a15 15 0 0 1 15 15 15 15 0 0 1 -15 15v30a15 15 0 0 1 15 15 15 15 0 0 1 -15 15v30a15 15 0 0 1 15 15 15 15 0 0 1 -15 15v30a15 15 0 0 1 15 15 15 15 0 0 1 -15 15v30a15 15 0 0 1 15 15 15 15 0 0 1 -15 15v30a15 15 0 0 1 4.012 0.5469 15 15 0 0 1 2.793 1.086 15 15 0 0 1 1.301 0.7461 15 15 0 0 1 3.367 2.957 15 15 0 0 1 2.857 5.23 15 15 0 0 1 0.6699 4.434 15 15 0 0 1 -0.0371 1.061 15 15 0 0 1 -0.1816 1.488 15 15 0 0 1 -1.414 4.256 15 15 0 0 1 -0.7461 1.301 15 15 0 0 1 -0.8711 1.219 15 15 0 0 1 -0.9902 1.127 15 15 0 0 1 -2.291 1.93 15 15 0 0 1 -1.277 0.7832 15 15 0 0 1 -5.693 1.762 15 15 0 0 1 -1.499 0.1v30a15 15 0 0 1 15 15 15 15 0 0 1 -15 15v30a15 15 0 0 1 15 15 15 15 0 0 1 -15 15v30a15 15 0 0 1 15 15 15 15 0 0 1 -15 15v30a15 15 0 0 1 0.006 0 15 15 0 0 1 15 15h30a15 15 0 0 1 15 -15 15 15 0 0 1 15 15h30a15 15 0 0 1 15 -15 15 15 0 0 1 15 15h30a15 15 0 0 1 15 -15 15 15 0 0 1 15 15h30a15 15 0 0 1 15 -15 15 15 0 0 1 15 15h30a15 15 0 0 1 15 -15 15 15 0 0 1 15 15h30a15 15 0 0 1 15 -15 15 15 0 0 1 15 15h30a15 15 0 0 1 15 -15 15 15 0 0 1 15 15h30a15 15 0 0 1 15 -15 15 15 0 0 1 15 15h30a15 15 0 0 1 15 -15 15 15 0 0 1 15 15h30a15 15 0 0 1 14.99 -15v-30a15 15 0 0 1 -15 -15 15 15 0 0 1 15 -15v-30a15 15 0 0 1 -15 -15 15 15 0 0 1 15 -15v-30a15 15 0 0 1 -15 -15 15 15 0 0 1 15 -15v-30a15 15 0 0 1 -1.061 -0.0371 15 15 0 0 1 -1.488 -0.1816 15 15 0 0 1 -5.557 -2.16 15 15 0 0 1 -1.219 -0.8711 15 15 0 0 1 -1.127 -0.9902 15 15 0 0 1 -1.93 -2.291 15 15 0 0 1 -0.7832 -1.277 15 15 0 0 1 -0.6524 -1.35 15 15 0 0 1 -0.8848 -2.861 15 15 0 0 1 -0.2246 -1.482 15 15 0 0 1 -0.0742 -1.498 15 15 0 0 1 0.0371 -1.061 15 15 0 0 1 0.5098 -2.951 15 15 0 0 1 0.4726 -1.424 15 15 0 0 1 1.359 -2.67 15 15 0 0 1 4.152 -4.275 15 15 0 0 1 2.627 -1.436 15 15 0 0 1 1.408 -0.5137 15 15 0 0 1 1.453 -0.3711 15 15 0 0 1 1.482 -0.2246 15 15 0 0 1 1.5 0.3v-30a15 15 0 0 1 -15 -15 15 15 0 0 1 15 -15v-30a15 15 0 0 1 -15 -15 15 15 0 0 1 15 -15v-30a15 15 0 0 1 -15 -15 15 15 0 0 1 15 -15v-30a15 15 0 0 1 -15 -15 15 15 0 0 1 15 -15v-30a15 15 0 0 1 -15 -15 15 15 0 0 1 15 -15v-30a15 15 0 0 1 -15 -15 15 15 0 0 1 15 -15v-30a15 15 0 0 1 -15 -15 15 15 0 0 1 15 -15v-30a15 15 0 0 1 -15 -15 15 15 0 0 1 15 -15v-30a15 15 0 0 1 -15 -15h-30a15 15 0 0 1 -15 15 15 15 0 0 1 -15 -15h-30a15 15 0 0 1 -15 15 15 15 0 0 1 -15 -15h-30a15 15 0 0 1 -15 15 15 15 0 0 1 -15 -15h-30a15 15 0 0 1 -15 15 15 15 0 0 1 -15 -15h-30a15 15 0 0 1 -15 15 15 15 0 0 1 -15 -15h-30a15 15 0 0 1 -15 15 15 15 0 0 1 -15 -15h-30a15 15 0 0 1 -15 15 15 15 0 0 1 -15 -15h-30a15 15 0 0 1 -15 15 15 15 0 0 1 -15 -15h-30a15 15 0 0 1 -15 15 15 15 0 0 1 -15 -15h-30z" stroke="#000" stroke-miterlimit="4.8" stroke-width="3" fill="none"/>
 </g>
 <g id="background" transform="translate(1.5,-218.5)">
  <rect height="650" width="470" y="285" x="65" fill="#529691"/>
 </g>
 <g id="content" transform="translate(1.5,-218.5)" fill="#fff">
  <g transform="matrix(0 1.001 -.9992 0 0 0)">
   <path style="" d="m362.2-101.4 12.15 6.782q-4.096 15.58-16.59 24.17-12.42 8.528-28.6 8.528-21.22 0-34.04-13.77-12.83-13.77-12.83-34.04 0-22.23 12.89-35.39t33.64-13.16q18.33 0 30.82 10.01v-8.528h12.09v30.02h-12.09q-4.029-9.132-12.42-14.1-8.393-5.036-17.66-5.036-13.97 0-22.96 10.07-8.931 10.07-8.931 25.45 0 15.78 9.602 25.78 9.602 10.01 22.76 10.01 10.81 0 19.67-6.916 8.864-6.983 12.49-19.88z"/>
   <path style="" d="m452.2-74.78v11.35h-22.29v-7.923q-9.266 8.998-20.68 8.998-8.864 0-15.44-5.775-6.513-5.775-6.513-14.77 0-9.065 6.916-15.04 6.983-5.976 16.79-5.976 9.132 0 17.66 5.506v-6.446q0-4.969-0.9401-7.655t-4.432-4.835q-3.425-2.149-8.998-2.149-9.602 0-13.9 7.655l-12.22-3.223q8.125-15.18 28.07-15.18 7.319 0 12.62 2.014 5.372 1.947 7.991 5.103 2.619 3.089 3.492 6.715 0.9401 3.626 0.9401 11.55v30.08h10.95zm-23.57-12.83q-8.259-6.446-16.72-6.446-5.305 0-8.864 3.089t-3.559 7.991q0 4.566 3.089 7.655 3.156 3.089 8.528 3.089 9.266 0 17.53-7.789v-7.588z"/>
   <path style="" d="m469.2-74.78v-42.3h-10.81v-11.35h23.57v8.192q11.55-9.199 22.63-9.199 11.15 0 15.38 10.14 12.69-10.14 23.64-10.14 6.312 0 10.34 2.82 4.096 2.753 5.506 7.051 1.41 4.23 1.41 12.56v32.23h11.35v11.35h-24.11v-41.3q0-5.64-0.5372-7.923-0.47-2.35-2.552-3.827-2.014-1.544-4.902-1.544-8.192 0-18.6 8.393v34.85h11.15v11.35h-23.9v-42.5q0-6.379-1.88-9.199-1.813-2.887-6.245-2.887-7.252 0-18.67 8.393v34.85h11.42v11.35h-35.79v-11.35h11.62z"/>
   <path style="" d="m576.6-63.43v-11.35h11.55v-70.71h-11.55v-11.35h24.04v37.6q9.602-11.01 23.57-11.01 13.43 0 22.49 9.266 9.132 9.199 9.132 24.31 0 14.5-8.931 24.44-8.864 9.871-22.76 9.871-7.789 0-14.24-3.357-6.446-3.357-9.266-7.453v9.736h-24.04zm24.44-32.37q0 10.14 6.178 16.12 6.245 5.909 14.37 5.909 8.528 0 14.71-6.312 6.178-6.312 6.178-16.92 0-10.27-6.178-15.91-6.11-5.708-14.37-5.708-8.125 0-14.5 5.909-6.379 5.842-6.379 16.92z"/>
   <path style="" d="m667.1-95.93q0-15.04 9.938-24.64 9.938-9.669 24.24-9.669 14.03 0 24.11 9.535 10.07 9.468 10.07 24.78t-10.07 24.84q-10.01 9.535-24.11 9.535-14.5 0-24.37-9.669-9.804-9.669-9.804-24.71zm13.5 0q0 9.602 5.976 15.78 6.043 6.11 14.71 6.11 8.796 0 14.71-6.178 5.976-6.245 5.976-15.71 0-9.535-6.043-15.71-6.043-6.178-14.64-6.178-8.998 0-14.84 6.312t-5.842 15.58z"/>
   <path style="" d="m826.2-74.78v11.35h-24.44v-9.535q-9.535 10.61-23.23 10.61-12.69 0-22.29-8.662-9.602-8.662-9.602-24.64 0-16.05 9.871-25.31 9.871-9.266 22.29-9.266 13.16 0 22.96 10.48v-25.72h-12.49v-11.35h25.25v82.05h11.68zm-66-21.21q0 10.74 6.043 16.52 6.11 5.775 14.57 5.775 8.192 0 14.5-6.043 6.379-6.11 6.379-16.85 0-10.81-6.513-16.32-6.446-5.506-14.5-5.506-8.662 0-14.57 6.513-5.909 6.446-5.909 15.91z"/>
   <path style="" d="m839-150.5q0-3.089 2.149-5.372 2.216-2.283 5.573-2.283 3.156 0 5.439 2.216t2.283 5.439-2.283 5.506q-2.283 2.216-5.439 2.216-3.223 0-5.506-2.283-2.216-2.283-2.216-5.439zm1.813 75.74v-42.3h-10.14v-11.35h22.9v53.65h10.01v11.35h-32.9v-11.35h10.14z"/>
   <path style="" d="m937.8-74.78v11.35h-22.29v-7.923q-9.266 8.998-20.68 8.998-8.864 0-15.44-5.775-6.513-5.775-6.513-14.77 0-9.065 6.916-15.04 6.983-5.976 16.79-5.976 9.132 0 17.66 5.506v-6.446q0-4.969-0.9401-7.655t-4.432-4.835q-3.425-2.149-8.998-2.149-9.602 0-13.9 7.655l-12.22-3.223q8.125-15.18 28.07-15.18 7.319 0 12.62 2.014 5.372 1.947 7.991 5.103 2.619 3.089 3.492 6.715 0.9401 3.626 0.9401 11.55v30.08h10.95zm-23.57-12.83q-8.259-6.446-16.72-6.446-5.305 0-8.864 3.089t-3.559 7.991q0 4.566 3.089 7.655 3.156 3.089 8.528 3.089 9.266 0 17.53-7.789v-7.588z"/>
  </g>
  <path d="m213.1 664.7-2.783 1.025-0.4883 8.691 2.49 1.465 2.002-4.59zm20.85 35.6-8.594-2.93-6.641 2.539-4.883-4.297 0.3906-19.14 3.32-5.859-9.57-19.34v-8.984l-9.57-26.76 5.469-13.48-14.65-17.97 2.49-19.59-6.629-33.7 16.02-3.315 27.07-35.36 39.77-9.391 9.944 8.286h58l11.05 3.867 0.1364 4.934 8.15 6.667 5.524-8.839 3.867 8.839 27.62 13.26 17.68 10.5 7.734-9.944-9.944-18.23 13.81 0.5524 4.972-7.182 7.182 2.762 6.629-7.182 12.71 10.5 5.524 9.944 6.077-2.21 8.286-6.629 3.867 1.105 11.6-12.15 6.629 8.286 7.182-8.839-2.762 14.92-12.15 18.23 5.524 8.286v11.6l7.734 19.89-2.21 14.36-7.182 15.47 1.657 11.6v27.07l-9.391 7.182-6.077-4.972-12.71 2.21-8.839 8.839-12.71 0.5524-4.419 6.077-18.23-2.21 2.762 6.629-2.762 6.077 1.657 4.419-24.31-6.077-6.629 7.182-4.419-3.315-3.867 4.419 4.419 4.972-3.315 12.71 11.6 16.57h4.419l2.21 5.524-2.762 3.315 1.657 7.182-14.36-5.524-3.867 2.21-5.524-11.6-22.1 4.972-3.867 1.105-17.68-4.972 2.21 11.6-15.47 12.15-17.68-0.5524-6.077 6.629-13.81-11.05-23.75-6.629-3.315 4.972 1.657 7.734-2.762 2.21-18.78-17.13 5.524-6.629h4.972l2.762-4.972v-14.36l-9.391-6.629zm-12.49 6.647 1.923-1.648 2.885 4.945-1.648 2.06-0.8242-3.572zm39.83 29.29 5.859-0.1953 2.344-5.273 5.469 6.055-0.1953 20.51-7.422-14.84-5.273-2.148z" fill-rule="evenodd"/>
 </g>
</svg>
