<?xml version="1.0" encoding="UTF-8" standalone="no"?>
<!-- Created with Inkscape (http://www.inkscape.org/) -->
<svg id="chile-stamp" xmlns:rdf="http://www.w3.org/1999/02/22-rdf-syntax-ns#" xmlns="http://www.w3.org/2000/svg" height="783" width="603" version="1.1" xmlns:cc="http://creativecommons.org/ns#" xmlns:dc="http://purl.org/dc/elements/1.1/" viewBox="0 0 603.00001 783">
 <g id="border" transform="translate(1.5 -270.9)">
  <path d="m15 272.4a15 15 0 0 1 -15 15v30a15 15 0 0 1 15 15 15 15 0 0 1 -15 15v30a15 15 0 0 1 15 15 15 15 0 0 1 -15 15v30a15 15 0 0 1 15 15 15 15 0 0 1 -15 15v30a15 15 0 0 1 15 15 15 15 0 0 1 -15 15v30a15 15 0 0 1 15 15 15 15 0 0 1 -15 15v30a15 15 0 0 1 15 15 15 15 0 0 1 -15 15v30a15 15 0 0 1 15 15 15 15 0 0 1 -15 15v30a15 15 0 0 1 15 15 15 15 0 0 1 -15 15v30a15 15 0 0 1 4.012 0.5469 15 15 0 0 1 2.793 1.086 15 15 0 0 1 1.301 0.7461 15 15 0 0 1 3.367 2.957 15 15 0 0 1 2.857 5.23 15 15 0 0 1 0.6699 4.434 15 15 0 0 1 -0.0371 1.061 15 15 0 0 1 -0.1816 1.488 15 15 0 0 1 -1.414 4.256 15 15 0 0 1 -0.7461 1.301 15 15 0 0 1 -0.8711 1.219 15 15 0 0 1 -0.9902 1.127 15 15 0 0 1 -2.291 1.93 15 15 0 0 1 -1.277 0.7832 15 15 0 0 1 -5.693 1.762 15 15 0 0 1 -1.499 0.1v30a15 15 0 0 1 15 15 15 15 0 0 1 -15 15v30a15 15 0 0 1 15 15 15 15 0 0 1 -15 15v30a15 15 0 0 1 15 15 15 15 0 0 1 -15 15v30a15 15 0 0 1 0.006 0 15 15 0 0 1 15 15h30a15 15 0 0 1 15 -15 15 15 0 0 1 15 15h30a15 15 0 0 1 15 -15 15 15 0 0 1 15 15h30a15 15 0 0 1 15 -15 15 15 0 0 1 15 15h30a15 15 0 0 1 15 -15 15 15 0 0 1 15 15h30a15 15 0 0 1 15 -15 15 15 0 0 1 15 15h30a15 15 0 0 1 15 -15 15 15 0 0 1 15 15h30a15 15 0 0 1 15 -15 15 15 0 0 1 15 15h30a15 15 0 0 1 15 -15 15 15 0 0 1 15 15h30a15 15 0 0 1 15 -15 15 15 0 0 1 15 15h30a15 15 0 0 1 14.99 -15v-30a15 15 0 0 1 -15 -15 15 15 0 0 1 15 -15v-30a15 15 0 0 1 -15 -15 15 15 0 0 1 15 -15v-30a15 15 0 0 1 -15 -15 15 15 0 0 1 15 -15v-30a15 15 0 0 1 -1.061 -0.0371 15 15 0 0 1 -1.488 -0.1816 15 15 0 0 1 -5.557 -2.16 15 15 0 0 1 -1.219 -0.8711 15 15 0 0 1 -1.127 -0.9902 15 15 0 0 1 -1.93 -2.291 15 15 0 0 1 -0.7832 -1.277 15 15 0 0 1 -0.6524 -1.35 15 15 0 0 1 -0.8848 -2.861 15 15 0 0 1 -0.2246 -1.482 15 15 0 0 1 -0.0742 -1.498 15 15 0 0 1 0.0371 -1.061 15 15 0 0 1 0.5098 -2.951 15 15 0 0 1 0.4726 -1.424 15 15 0 0 1 1.359 -2.67 15 15 0 0 1 4.152 -4.275 15 15 0 0 1 2.627 -1.436 15 15 0 0 1 1.408 -0.5137 15 15 0 0 1 1.453 -0.3711 15 15 0 0 1 1.482 -0.2246 15 15 0 0 1 1.5 0.3v-30a15 15 0 0 1 -15 -15 15 15 0 0 1 15 -15v-30a15 15 0 0 1 -15 -15 15 15 0 0 1 15 -15v-30a15 15 0 0 1 -15 -15 15 15 0 0 1 15 -15v-30a15 15 0 0 1 -15 -15 15 15 0 0 1 15 -15v-30a15 15 0 0 1 -15 -15 15 15 0 0 1 15 -15v-30a15 15 0 0 1 -15 -15 15 15 0 0 1 15 -15v-30a15 15 0 0 1 -15 -15 15 15 0 0 1 15 -15v-30a15 15 0 0 1 -15 -15 15 15 0 0 1 15 -15v-30a15 15 0 0 1 -15 -15h-30a15 15 0 0 1 -15 15 15 15 0 0 1 -15 -15h-30a15 15 0 0 1 -15 15 15 15 0 0 1 -15 -15h-30a15 15 0 0 1 -15 15 15 15 0 0 1 -15 -15h-30a15 15 0 0 1 -15 15 15 15 0 0 1 -15 -15h-30a15 15 0 0 1 -15 15 15 15 0 0 1 -15 -15h-30a15 15 0 0 1 -15 15 15 15 0 0 1 -15 -15h-30a15 15 0 0 1 -15 15 15 15 0 0 1 -15 -15h-30a15 15 0 0 1 -15 15 15 15 0 0 1 -15 -15h-30a15 15 0 0 1 -15 15 15 15 0 0 1 -15 -15h-30z" stroke="#000" stroke-miterlimit="4.8" stroke-width="3" fill="none"/>
 </g>
 <g id="background" transform="translate(1.5,-218.5)">
  <rect height="650" width="470" y="285" x="65" fill="#a32c4f"/>
 </g>
 <g id="content" transform="translate(1.5,-218.5)" fill="#fff">
  <g transform="matrix(0 1.001 -.9992 0 0 0)">
   <path style="" d="m440.2-139.4 24.02 13.4q-8.096 30.79-32.78 47.78-24.55 16.86-56.54 16.86-41.94 0-67.29-27.21t-25.35-67.29q0-43.93 25.48-69.94t66.49-26.01q36.23 0 60.92 19.78v-16.86h23.89v59.33h-23.89q-7.963-18.05-24.55-27.87-16.59-9.954-34.91-9.954-27.61 0-45.39 19.91-17.65 19.91-17.65 50.3 0 31.19 18.98 50.96 18.98 19.78 44.99 19.78 21.37 0 38.89-13.67 17.52-13.8 24.69-39.28z"/>
   <path style="" d="m506-86.69v-139.8h-23.23v-22.43h48.44v70.87q22.69-18.32 43.13-18.32 12.74 0 20.97 5.309 8.229 5.309 11.15 14.07 3.053 8.627 3.053 25.35v64.9h21.9v22.43h-47.12v-78.57q0-14.6-0.929-19.51-0.929-4.911-5.176-8.096-4.114-3.185-9.821-3.185-14.6 0-37.16 16.59v70.34h22.3v22.43h-70.74v-22.43h23.23z"/>
   <path style="" d="m658-236.4q0-6.105 4.247-10.62 4.38-4.512 11.02-4.512 6.238 0 10.75 4.38t4.512 10.75-4.512 10.88q-4.512 4.38-10.75 4.38-6.37 0-10.88-4.512-4.38-4.512-4.38-10.75zm3.583 149.7v-83.61h-20.04v-22.43h45.26v106h19.78v22.43h-65.03v-22.43h20.04z"/>
   <path style="" d="m740.7-86.69v-139.8h-22.83v-22.43h48.04v162.2h19.64v22.43h-67.69v-22.43h22.83z"/>
   <path style="" d="m937.8-122.1h-108q2.389 17.78 14.07 28.8t29.86 11.02q26.41 0 41.81-21.23l22.3 9.821q-10.88 16.86-28.27 25.08-17.39 8.096-36.36 8.096-29.46 0-50.43-18.32-20.84-18.45-20.84-49.64 0-29.6 20.31-48.71 20.44-19.11 46.85-19.11 25.88 0 46.85 18.71 21.1 18.58 21.9 55.48zm-26.01-18.32q-2.654-13.54-14.07-24.42-11.41-11.02-28-11.02-15.13 0-25.88 9.954-10.75 9.821-13.14 25.48h81.09z"/>
  </g>
  <path fill-rule="evenodd" d="m415.2 875.1 2.715 9.745-6.086-0.3408zm-38.54-11.74s21.2 17.6 22.72 17.56c1.519-0.0357 11.11 2.433 11.11 2.433l-12.33 1.394-14.11-9.478zm-5.655-17.27c0.5636 0.4703 4.948 7.758 4.948 7.758l-4.079 2.789zm2.385-19.05 2.319 10.51-7.697 7.571zm43.18-513.6 17.22 27.23-4.056 15.57 14.21 40.56 5.471-2.339 0.4402 18.78-11.92 10.23 0.8287 35.35-10.86 7.991-13.63 31.26 3.547 9.863-9.397 23.43 10.74 34.01-8.856 23.19 1.422 13.5-9.945 11.84 3.65 25.84-10.9 30.09 0.4512 42.81 9.361 22.16-10.57 67.66-9.079 8.583 3.321 20.2 7.458-3.404 5.488 21.97 31.58 3.68 0.9582 40.87 13.33 3.003-16.41 7.016-14.56-3.479-14.52-13.56 25.26 1.044-7.447-9.517 11.62-23.67-17.88 7.296-2.049 16.59-9.636-2.368 6.371-14.9-11.51 11.54-9.192-10.77 15.97-2.308-18.58-2.88 11.44-7.175-7.989 1.016-11.96-26.8 3.978-18.88-7.087 15.91-2.41-8.508-1.925 7.31-6.59-5.177 5.367-6.757-5.588-2.632 1.268-16.61 13.54-11.65-11.82-9.117-4.578 5.081-1.793-5.76 17.32-15.6 12.27-18.8-6.77-5.92 6.409-33.03-6.494-5.926-6.789 28.62-7.244-2.593 6.226-52.64 5.039-8.959-7.411-33.26 4.97-0.1165 20.41-72.31-4.675-34.43 1.447-20.76 13.44-63.31-2.015-27.03 6.776-29.17-4.144-11.78-2.473-34.75 7.667-2.943 0.6148-9.132z"/>
 </g>
</svg>
