<?xml version="1.0" encoding="UTF-8" standalone="no"?>
<!-- Created with Inkscape (http://www.inkscape.org/) -->
<svg id="china-stamp" xmlns:rdf="http://www.w3.org/1999/02/22-rdf-syntax-ns#" xmlns="http://www.w3.org/2000/svg" height="783" width="603" version="1.1" xmlns:cc="http://creativecommons.org/ns#" xmlns:dc="http://purl.org/dc/elements/1.1/" viewBox="0 0 603.00001 783">
 <g id="border" transform="translate(1.5 -270.9)">
  <path d="m15 272.4a15 15 0 0 1 -15 15v30a15 15 0 0 1 15 15 15 15 0 0 1 -15 15v30a15 15 0 0 1 15 15 15 15 0 0 1 -15 15v30a15 15 0 0 1 15 15 15 15 0 0 1 -15 15v30a15 15 0 0 1 15 15 15 15 0 0 1 -15 15v30a15 15 0 0 1 15 15 15 15 0 0 1 -15 15v30a15 15 0 0 1 15 15 15 15 0 0 1 -15 15v30a15 15 0 0 1 15 15 15 15 0 0 1 -15 15v30a15 15 0 0 1 15 15 15 15 0 0 1 -15 15v30a15 15 0 0 1 4.012 0.5469 15 15 0 0 1 2.793 1.086 15 15 0 0 1 1.301 0.7461 15 15 0 0 1 3.367 2.957 15 15 0 0 1 2.857 5.23 15 15 0 0 1 0.6699 4.434 15 15 0 0 1 -0.0371 1.061 15 15 0 0 1 -0.1816 1.488 15 15 0 0 1 -1.414 4.256 15 15 0 0 1 -0.7461 1.301 15 15 0 0 1 -0.8711 1.219 15 15 0 0 1 -0.9902 1.127 15 15 0 0 1 -2.291 1.93 15 15 0 0 1 -1.277 0.7832 15 15 0 0 1 -5.693 1.762 15 15 0 0 1 -1.499 0.1v30a15 15 0 0 1 15 15 15 15 0 0 1 -15 15v30a15 15 0 0 1 15 15 15 15 0 0 1 -15 15v30a15 15 0 0 1 15 15 15 15 0 0 1 -15 15v30a15 15 0 0 1 0.006 0 15 15 0 0 1 15 15h30a15 15 0 0 1 15 -15 15 15 0 0 1 15 15h30a15 15 0 0 1 15 -15 15 15 0 0 1 15 15h30a15 15 0 0 1 15 -15 15 15 0 0 1 15 15h30a15 15 0 0 1 15 -15 15 15 0 0 1 15 15h30a15 15 0 0 1 15 -15 15 15 0 0 1 15 15h30a15 15 0 0 1 15 -15 15 15 0 0 1 15 15h30a15 15 0 0 1 15 -15 15 15 0 0 1 15 15h30a15 15 0 0 1 15 -15 15 15 0 0 1 15 15h30a15 15 0 0 1 15 -15 15 15 0 0 1 15 15h30a15 15 0 0 1 14.99 -15v-30a15 15 0 0 1 -15 -15 15 15 0 0 1 15 -15v-30a15 15 0 0 1 -15 -15 15 15 0 0 1 15 -15v-30a15 15 0 0 1 -15 -15 15 15 0 0 1 15 -15v-30a15 15 0 0 1 -1.061 -0.0371 15 15 0 0 1 -1.488 -0.1816 15 15 0 0 1 -5.557 -2.16 15 15 0 0 1 -1.219 -0.8711 15 15 0 0 1 -1.127 -0.9902 15 15 0 0 1 -1.93 -2.291 15 15 0 0 1 -0.7832 -1.277 15 15 0 0 1 -0.6524 -1.35 15 15 0 0 1 -0.8848 -2.861 15 15 0 0 1 -0.2246 -1.482 15 15 0 0 1 -0.0742 -1.498 15 15 0 0 1 0.0371 -1.061 15 15 0 0 1 0.5098 -2.951 15 15 0 0 1 0.4726 -1.424 15 15 0 0 1 1.359 -2.67 15 15 0 0 1 4.152 -4.275 15 15 0 0 1 2.627 -1.436 15 15 0 0 1 1.408 -0.5137 15 15 0 0 1 1.453 -0.3711 15 15 0 0 1 1.482 -0.2246 15 15 0 0 1 1.5 0.3v-30a15 15 0 0 1 -15 -15 15 15 0 0 1 15 -15v-30a15 15 0 0 1 -15 -15 15 15 0 0 1 15 -15v-30a15 15 0 0 1 -15 -15 15 15 0 0 1 15 -15v-30a15 15 0 0 1 -15 -15 15 15 0 0 1 15 -15v-30a15 15 0 0 1 -15 -15 15 15 0 0 1 15 -15v-30a15 15 0 0 1 -15 -15 15 15 0 0 1 15 -15v-30a15 15 0 0 1 -15 -15 15 15 0 0 1 15 -15v-30a15 15 0 0 1 -15 -15 15 15 0 0 1 15 -15v-30a15 15 0 0 1 -15 -15h-30a15 15 0 0 1 -15 15 15 15 0 0 1 -15 -15h-30a15 15 0 0 1 -15 15 15 15 0 0 1 -15 -15h-30a15 15 0 0 1 -15 15 15 15 0 0 1 -15 -15h-30a15 15 0 0 1 -15 15 15 15 0 0 1 -15 -15h-30a15 15 0 0 1 -15 15 15 15 0 0 1 -15 -15h-30a15 15 0 0 1 -15 15 15 15 0 0 1 -15 -15h-30a15 15 0 0 1 -15 15 15 15 0 0 1 -15 -15h-30a15 15 0 0 1 -15 15 15 15 0 0 1 -15 -15h-30a15 15 0 0 1 -15 15 15 15 0 0 1 -15 -15h-30z" stroke="#000" stroke-miterlimit="4.8" stroke-width="3" fill="none"/>
 </g>
 <g id="background" transform="translate(1.5,-218.5)">
  <rect height="650" width="470" y="285" x="65" fill="#18c991"/>
 </g>
 <g id="content" transform="translate(1.5,-218.5)" fill="#fff">
  <g transform="scale(1.001 .9992)">
   <path style="" d="m165.3 888.4 15.65 8.733q-5.274 20.06-21.36 31.13-16 10.98-36.83 10.98-27.32 0-43.84-17.72-16.51-17.72-16.51-43.84 0-28.62 16.6-45.57t43.32-16.95q23.6 0 39.69 12.88v-10.98h15.56v38.65h-15.56q-5.188-11.76-16-18.16-10.81-6.485-22.74-6.485-17.98 0-29.57 12.97-11.5 12.97-11.5 32.77 0 20.32 12.36 33.2t29.31 12.88q13.92 0 25.33-8.906 11.41-8.992 16.08-25.59z"/>
   <path style="" d="m208.2 922.7v-91.04h-15.13v-14.61h31.56v46.17q14.78-11.93 28.1-11.93 8.3 0 13.66 3.458 5.361 3.458 7.263 9.165 1.989 5.62 1.989 16.51v42.28h14.27v14.61h-30.69v-51.19q0-9.511-0.6052-12.71t-3.372-5.274q-2.68-2.075-6.398-2.075-9.511 0-24.21 10.81v45.82h14.53v14.61h-46.08v-14.61h15.13z"/>
   <path style="" d="m307.2 825.2q0-3.977 2.767-6.917 2.853-2.94 7.176-2.94 4.064 0 7.003 2.853 2.94 2.853 2.94 7.003t-2.94 7.09q-2.94 2.853-7.003 2.853-4.15 0-7.09-2.94-2.853-2.94-2.853-7.003zm2.334 97.53v-54.47h-13.06v-14.61h29.48v69.08h12.88v14.61h-42.37v-14.61h13.06z"/>
   <path style="" d="m378.6 853.6v10.12q15.82-11.41 28.88-11.41 8.127 0 13.4 3.891 5.361 3.804 7.003 9.424 1.643 5.534 1.643 16.25v40.81h14.09v14.61h-30.52v-54.73q0-9.511-2.853-12.36-2.853-2.94-7.003-2.94-10.89 0-24.64 10.63v44.79h14.44v14.61h-45.57v-14.61h14.7v-54.47h-14.7v-14.61h31.13z"/>
   <path style="" d="m536.1 922.7v14.61h-28.71v-10.2q-11.93 11.59-26.63 11.59-11.41 0-19.89-7.436-8.387-7.436-8.387-19.02 0-11.67 8.906-19.37 8.992-7.695 21.62-7.695 11.76 0 22.74 7.09v-8.3q0-6.398-1.21-9.857-1.21-3.458-5.706-6.225-4.41-2.767-11.59-2.767-12.36 0-17.9 9.857l-15.74-4.15q10.46-19.54 36.14-19.54 9.424 0 16.25 2.594 6.917 2.507 10.29 6.571 3.372 3.977 4.496 8.646 1.21 4.669 1.21 14.87v38.73h14.09zm-30.35-16.51q-10.63-8.3-21.53-8.3-6.83 0-11.41 3.977-4.582 3.977-4.582 10.29 0 5.879 3.977 9.857 4.064 3.977 10.98 3.977 11.93 0 22.57-10.03v-9.77z"/>
  </g>
  <path fill-rule="evenodd" d="m399.7 720.4-16.21 3.125-6.25 10.16 8.203 5.273 11.13-5.469zm10.94-340.7 21.54-9.944 24.31 16.02 7.734 14.36 17.68 0.5524 12.71 12.15 19.89-16.02 2.762 37.57-9.944 2.762 2.762 20.44-16.57 22.65h-9.391l-14.36 23.2-18.78 14.92v-18.23l-7.182-0.5524-18.23 25.96 16.02 12.71 7.182-8.839 18.23 2.21-23.2 23.2 28.17 28.73 6.629 27.62-12.71 41.43-20.44 29.28-49.72 26.52-1.657 9.391-7.734-2.762v-6.629l-28.17-1.657-2.21-11.6-16.02-1.657-29.83 12.15v11.05l-22.1-8.286v-12.15l-15.47-9.944v-11.6l8.839-13.26-9.944-17.13-17.68-7.182-29.83 12.71-44.75-2.21-32.04-18.23-35.36-28.73-1.105-10.5h7.734l-8.286-27.62-20.99-22.65 3.315-12.15-7.182-3.867 4.419-10.5 48.06-13.26 7.182-8.286v-20.99l13.81-1.657 9.391-17.68 16.02 3.867 1.105-11.05 16.57-8.839 7.182 14.36 6.629-0.5524 7.734 17.13-3.867 9.391 33.7 13.26 5.524 12.71 39.77 2.21 24.86 7.182 17.13-7.734 32.04-18.78-3.867-7.182 3.867-6.629 10.5 1.105 20.99-22.1 17.13-4.419-10.5-11.05-18.23 6.077 1.657-23.2 9.944 0.5524 8.286-20.44z"/>
 </g>
</svg>
