<?xml version="1.0" encoding="UTF-8" standalone="no"?>
<!-- Created with Inkscape (http://www.inkscape.org/) -->
<svg id="germany-stamp" xmlns:rdf="http://www.w3.org/1999/02/22-rdf-syntax-ns#" xmlns="http://www.w3.org/2000/svg" height="783" width="603" version="1.1" xmlns:cc="http://creativecommons.org/ns#" xmlns:dc="http://purl.org/dc/elements/1.1/" viewBox="0 0 603.00001 783">
 <g id="border" transform="translate(1.5 -270.9)">
  <path d="m15 272.4a15 15 0 0 1 -15 15v30a15 15 0 0 1 15 15 15 15 0 0 1 -15 15v30a15 15 0 0 1 15 15 15 15 0 0 1 -15 15v30a15 15 0 0 1 15 15 15 15 0 0 1 -15 15v30a15 15 0 0 1 15 15 15 15 0 0 1 -15 15v30a15 15 0 0 1 15 15 15 15 0 0 1 -15 15v30a15 15 0 0 1 15 15 15 15 0 0 1 -15 15v30a15 15 0 0 1 15 15 15 15 0 0 1 -15 15v30a15 15 0 0 1 15 15 15 15 0 0 1 -15 15v30a15 15 0 0 1 4.012 0.5469 15 15 0 0 1 2.793 1.086 15 15 0 0 1 1.301 0.7461 15 15 0 0 1 3.367 2.957 15 15 0 0 1 2.857 5.23 15 15 0 0 1 0.6699 4.434 15 15 0 0 1 -0.0371 1.061 15 15 0 0 1 -0.1816 1.488 15 15 0 0 1 -1.414 4.256 15 15 0 0 1 -0.7461 1.301 15 15 0 0 1 -0.8711 1.219 15 15 0 0 1 -0.9902 1.127 15 15 0 0 1 -2.291 1.93 15 15 0 0 1 -1.277 0.7832 15 15 0 0 1 -5.693 1.762 15 15 0 0 1 -1.499 0.1v30a15 15 0 0 1 15 15 15 15 0 0 1 -15 15v30a15 15 0 0 1 15 15 15 15 0 0 1 -15 15v30a15 15 0 0 1 15 15 15 15 0 0 1 -15 15v30a15 15 0 0 1 0.006 0 15 15 0 0 1 15 15h30a15 15 0 0 1 15 -15 15 15 0 0 1 15 15h30a15 15 0 0 1 15 -15 15 15 0 0 1 15 15h30a15 15 0 0 1 15 -15 15 15 0 0 1 15 15h30a15 15 0 0 1 15 -15 15 15 0 0 1 15 15h30a15 15 0 0 1 15 -15 15 15 0 0 1 15 15h30a15 15 0 0 1 15 -15 15 15 0 0 1 15 15h30a15 15 0 0 1 15 -15 15 15 0 0 1 15 15h30a15 15 0 0 1 15 -15 15 15 0 0 1 15 15h30a15 15 0 0 1 15 -15 15 15 0 0 1 15 15h30a15 15 0 0 1 14.99 -15v-30a15 15 0 0 1 -15 -15 15 15 0 0 1 15 -15v-30a15 15 0 0 1 -15 -15 15 15 0 0 1 15 -15v-30a15 15 0 0 1 -15 -15 15 15 0 0 1 15 -15v-30a15 15 0 0 1 -1.061 -0.0371 15 15 0 0 1 -1.488 -0.1816 15 15 0 0 1 -5.557 -2.16 15 15 0 0 1 -1.219 -0.8711 15 15 0 0 1 -1.127 -0.9902 15 15 0 0 1 -1.93 -2.291 15 15 0 0 1 -0.7832 -1.277 15 15 0 0 1 -0.6524 -1.35 15 15 0 0 1 -0.8848 -2.861 15 15 0 0 1 -0.2246 -1.482 15 15 0 0 1 -0.0742 -1.498 15 15 0 0 1 0.0371 -1.061 15 15 0 0 1 0.5098 -2.951 15 15 0 0 1 0.4726 -1.424 15 15 0 0 1 1.359 -2.67 15 15 0 0 1 4.152 -4.275 15 15 0 0 1 2.627 -1.436 15 15 0 0 1 1.408 -0.5137 15 15 0 0 1 1.453 -0.3711 15 15 0 0 1 1.482 -0.2246 15 15 0 0 1 1.5 0.3v-30a15 15 0 0 1 -15 -15 15 15 0 0 1 15 -15v-30a15 15 0 0 1 -15 -15 15 15 0 0 1 15 -15v-30a15 15 0 0 1 -15 -15 15 15 0 0 1 15 -15v-30a15 15 0 0 1 -15 -15 15 15 0 0 1 15 -15v-30a15 15 0 0 1 -15 -15 15 15 0 0 1 15 -15v-30a15 15 0 0 1 -15 -15 15 15 0 0 1 15 -15v-30a15 15 0 0 1 -15 -15 15 15 0 0 1 15 -15v-30a15 15 0 0 1 -15 -15 15 15 0 0 1 15 -15v-30a15 15 0 0 1 -15 -15h-30a15 15 0 0 1 -15 15 15 15 0 0 1 -15 -15h-30a15 15 0 0 1 -15 15 15 15 0 0 1 -15 -15h-30a15 15 0 0 1 -15 15 15 15 0 0 1 -15 -15h-30a15 15 0 0 1 -15 15 15 15 0 0 1 -15 -15h-30a15 15 0 0 1 -15 15 15 15 0 0 1 -15 -15h-30a15 15 0 0 1 -15 15 15 15 0 0 1 -15 -15h-30a15 15 0 0 1 -15 15 15 15 0 0 1 -15 -15h-30a15 15 0 0 1 -15 15 15 15 0 0 1 -15 -15h-30a15 15 0 0 1 -15 15 15 15 0 0 1 -15 -15h-30z" stroke="#000" stroke-miterlimit="4.8" stroke-width="3" fill="none"/>
 </g>
 <g id="background" transform="translate(1.5,-218.5)">
  <rect height="650" width="470" y="285" x="65" fill="#c83737"/>
 </g>
 <g id="content" transform="translate(1.5,-218.5)" fill="#fff">
  <g transform="scale(1.001 .9992)">
   <path style="" d="m113.7 323.5h27.6q0.0546 1.473 0.0546 2.619 0 15.98-10.47 25.59-10.47 9.601-27.66 9.601-20.57 0-30.66-11.67-10.09-11.73-10.09-27.71 0-16.75 10.31-27.82t27.99-11.07q15.88 0 26.62 9.656v-8.456h9.656v24.93h-9.656q-2.728-6.274-9.711-11.13-6.928-4.91-15.88-4.91-12.44 0-19.64 8.401-7.201 8.401-7.201 20.24 0 13.58 8.183 21.55 8.238 7.965 19.8 7.965 9.056 0 16.15-5.019 7.092-5.074 8.292-13.26h-13.69v-9.492z"/>
   <path style="" d="m206.6 336.3h-44.41q0.982 7.31 5.783 11.84 4.801 4.528 12.27 4.528 10.86 0 17.18-8.729l9.165 4.037q-4.473 6.928-11.62 10.31-7.147 3.328-14.95 3.328-12.11 0-20.73-7.528-8.565-7.583-8.565-20.4 0-12.17 8.347-20.02 8.401-7.856 19.26-7.856 10.64 0 19.26 7.692 8.674 7.638 9.001 22.8zm-10.69-7.528q-1.091-5.564-5.783-10.04-4.692-4.528-11.51-4.528-6.219 0-10.64 4.092-4.419 4.037-5.401 10.47h33.33z"/>
   <path style="" d="m223.8 350.9v-34.37h-10.64v-9.22h18.93v11.89q1.746-4.637 4.855-7.692 3.11-3.055 6.546-4.037 3.491-0.982 9.492-0.982h2.728v10.47h-2.073q-7.91 0-11.84 1.582-3.873 1.582-5.783 5.783-1.855 4.146-1.855 14.95v11.62h11.51v9.22h-32.51v-9.22h10.64z"/>
   <path style="" d="m269.5 350.9v-34.37h-8.783v-9.22h19.15v6.656q9.383-7.474 18.38-7.474 9.056 0 12.49 8.238 10.31-8.238 19.2-8.238 5.128 0 8.401 2.291 3.328 2.237 4.473 5.728 1.146 3.437 1.146 10.2v26.19h9.22v9.22h-19.58v-33.55q0-4.583-0.4364-6.437-0.3819-1.909-2.073-3.11-1.637-1.255-3.982-1.255-6.656 0-15.11 6.819v28.31h9.056v9.22h-19.42v-34.53q0-5.183-1.528-7.474-1.473-2.346-5.074-2.346-5.892 0-15.17 6.819v28.31h9.274v9.22h-29.08v-9.22h9.438z"/>
   <path style="" d="m411.7 350.9v9.22h-18.11v-6.437q-7.528 7.31-16.8 7.31-7.201 0-12.55-4.692-5.292-4.692-5.292-12 0-7.365 5.619-12.22 5.674-4.855 13.64-4.855 7.419 0 14.35 4.473v-5.237q0-4.037-0.7638-6.219t-3.601-3.928q-2.782-1.746-7.31-1.746-7.801 0-11.29 6.219l-9.929-2.619q6.601-12.33 22.8-12.33 5.946 0 10.26 1.637 4.364 1.582 6.492 4.146 2.128 2.509 2.837 5.455 0.7638 2.946 0.7638 9.383v24.44h8.892zm-19.15-10.42q-6.71-5.237-13.58-5.237-4.31 0-7.201 2.509t-2.891 6.492q0 3.71 2.509 6.219 2.564 2.509 6.928 2.509 7.528 0 14.24-6.328v-6.165z"/>
   <path style="" d="m435.8 307.3v6.383q9.983-7.201 18.22-7.201 5.128 0 8.456 2.455 3.382 2.4 4.419 5.946 1.037 3.491 1.037 10.26v25.75h8.892v9.22h-19.26v-34.53q0-6.001-1.8-7.801-1.8-1.855-4.419-1.855-6.874 0-15.55 6.71v28.26h9.11v9.22h-28.75v-9.22h9.274v-34.37h-9.274v-9.22h19.64z"/>
   <path style="" d="m501.2 359.2-17.35-42.66h-8.783v-9.22h26.13v9.22h-6.328l11.4 29.24 11.18-29.24h-6.983v-9.22h25.59v9.22h-7.856l-26.13 67.26h-17.51v-9.056h10.31l6.328-15.55z"/>
  </g>
  <path fill-rule="evenodd" d="m326.4 442.2 2.969-8.01 11.12 8.839zm-122.9-2.141 1.795-1.243 1.312 3.522zm-4.627-14.92-1.312 3.246 5.593 2.486zm4.627-2.831v3.038s6.698 1.45 6.698 0.9667c0-0.4834 0.4834-4.972 0.4834-4.972zm232.8 3.243 20.31 21.48-17.48 6.445-12.5-10.94zm70.8 246.3-25-13.28v8.594l-85.94 33.59-7.031 11.72-10.16-9.375 18.75 24.22-6.25 10.94 21.09 23.44 46.88 35.16-5.469 21.88-42.3 20.3 11.7 42.2-41.4-14.1-7.812 8.594-50 11.72-22.66-14.06-8.594 20.31-15.62-13.67-70.7-17.2 4.3 10.6h-48.44l3.906-41.41 25.78-44.53-71.09-14.06-18.75-23.44 10.16-12.5-18.01-15.3 12.11-22.3-23.82-40.6 17.92-24.2-14.8-27.3 11.72-5.469 29.69-3.906 9.375-30.47-14.06-0.7812 5.469-14.84 7.812 3.125 13.28-45.31h-14.06l10.94-21.09 36.72-2.344 8.594 17.19 8.594-12.5 8.203 17.19-1.172-20.31 7.812-13.28 52.34 21.88-44.53-28.12-9.969-23.51 18.56-6.959-19.78-24.32-12.23-0.0488-3.638 6.201 0.293-8.398 7.715-9.57-1.27 9.57 76.56 8.594 4.688 23.44 50.64 4.992-20.17 16.1 33.59 7.812 50-34.38 25 4.688 21.88 21.09 15.62-5.469 19.53 16.41-16.41 4.688 25.78 39.06-14.84 21.09 27.34 21.88-7.812 13.28 10.16 25.78-7.812 9.375 20.31 32.03z"/>
 </g>
</svg>
