<?xml version="1.0" encoding="UTF-8" standalone="no"?>
<!-- Created with Inkscape (http://www.inkscape.org/) -->
<svg id="iceland-stamp" xmlns:rdf="http://www.w3.org/1999/02/22-rdf-syntax-ns#" xmlns="http://www.w3.org/2000/svg" height="783" width="603" version="1.1" xmlns:cc="http://creativecommons.org/ns#" xmlns:dc="http://purl.org/dc/elements/1.1/" viewBox="0 0 603.00001 783">
 <g id="border" transform="translate(1.5 -270.9)">
  <path d="m15 272.4a15 15 0 0 1 -15 15v30a15 15 0 0 1 15 15 15 15 0 0 1 -15 15v30a15 15 0 0 1 15 15 15 15 0 0 1 -15 15v30a15 15 0 0 1 15 15 15 15 0 0 1 -15 15v30a15 15 0 0 1 15 15 15 15 0 0 1 -15 15v30a15 15 0 0 1 15 15 15 15 0 0 1 -15 15v30a15 15 0 0 1 15 15 15 15 0 0 1 -15 15v30a15 15 0 0 1 15 15 15 15 0 0 1 -15 15v30a15 15 0 0 1 15 15 15 15 0 0 1 -15 15v30a15 15 0 0 1 4.012 0.5469 15 15 0 0 1 2.793 1.086 15 15 0 0 1 1.301 0.7461 15 15 0 0 1 3.367 2.957 15 15 0 0 1 2.857 5.23 15 15 0 0 1 0.6699 4.434 15 15 0 0 1 -0.0371 1.061 15 15 0 0 1 -0.1816 1.488 15 15 0 0 1 -1.414 4.256 15 15 0 0 1 -0.7461 1.301 15 15 0 0 1 -0.8711 1.219 15 15 0 0 1 -0.9902 1.127 15 15 0 0 1 -2.291 1.93 15 15 0 0 1 -1.277 0.7832 15 15 0 0 1 -5.693 1.762 15 15 0 0 1 -1.499 0.1v30a15 15 0 0 1 15 15 15 15 0 0 1 -15 15v30a15 15 0 0 1 15 15 15 15 0 0 1 -15 15v30a15 15 0 0 1 15 15 15 15 0 0 1 -15 15v30a15 15 0 0 1 0.006 0 15 15 0 0 1 15 15h30a15 15 0 0 1 15 -15 15 15 0 0 1 15 15h30a15 15 0 0 1 15 -15 15 15 0 0 1 15 15h30a15 15 0 0 1 15 -15 15 15 0 0 1 15 15h30a15 15 0 0 1 15 -15 15 15 0 0 1 15 15h30a15 15 0 0 1 15 -15 15 15 0 0 1 15 15h30a15 15 0 0 1 15 -15 15 15 0 0 1 15 15h30a15 15 0 0 1 15 -15 15 15 0 0 1 15 15h30a15 15 0 0 1 15 -15 15 15 0 0 1 15 15h30a15 15 0 0 1 15 -15 15 15 0 0 1 15 15h30a15 15 0 0 1 14.99 -15v-30a15 15 0 0 1 -15 -15 15 15 0 0 1 15 -15v-30a15 15 0 0 1 -15 -15 15 15 0 0 1 15 -15v-30a15 15 0 0 1 -15 -15 15 15 0 0 1 15 -15v-30a15 15 0 0 1 -1.061 -0.0371 15 15 0 0 1 -1.488 -0.1816 15 15 0 0 1 -5.557 -2.16 15 15 0 0 1 -1.219 -0.8711 15 15 0 0 1 -1.127 -0.9902 15 15 0 0 1 -1.93 -2.291 15 15 0 0 1 -0.7832 -1.277 15 15 0 0 1 -0.6524 -1.35 15 15 0 0 1 -0.8848 -2.861 15 15 0 0 1 -0.2246 -1.482 15 15 0 0 1 -0.0742 -1.498 15 15 0 0 1 0.0371 -1.061 15 15 0 0 1 0.5098 -2.951 15 15 0 0 1 0.4726 -1.424 15 15 0 0 1 1.359 -2.67 15 15 0 0 1 4.152 -4.275 15 15 0 0 1 2.627 -1.436 15 15 0 0 1 1.408 -0.5137 15 15 0 0 1 1.453 -0.3711 15 15 0 0 1 1.482 -0.2246 15 15 0 0 1 1.5 0.3v-30a15 15 0 0 1 -15 -15 15 15 0 0 1 15 -15v-30a15 15 0 0 1 -15 -15 15 15 0 0 1 15 -15v-30a15 15 0 0 1 -15 -15 15 15 0 0 1 15 -15v-30a15 15 0 0 1 -15 -15 15 15 0 0 1 15 -15v-30a15 15 0 0 1 -15 -15 15 15 0 0 1 15 -15v-30a15 15 0 0 1 -15 -15 15 15 0 0 1 15 -15v-30a15 15 0 0 1 -15 -15 15 15 0 0 1 15 -15v-30a15 15 0 0 1 -15 -15 15 15 0 0 1 15 -15v-30a15 15 0 0 1 -15 -15h-30a15 15 0 0 1 -15 15 15 15 0 0 1 -15 -15h-30a15 15 0 0 1 -15 15 15 15 0 0 1 -15 -15h-30a15 15 0 0 1 -15 15 15 15 0 0 1 -15 -15h-30a15 15 0 0 1 -15 15 15 15 0 0 1 -15 -15h-30a15 15 0 0 1 -15 15 15 15 0 0 1 -15 -15h-30a15 15 0 0 1 -15 15 15 15 0 0 1 -15 -15h-30a15 15 0 0 1 -15 15 15 15 0 0 1 -15 -15h-30a15 15 0 0 1 -15 15 15 15 0 0 1 -15 -15h-30a15 15 0 0 1 -15 15 15 15 0 0 1 -15 -15h-30z" stroke="#000" stroke-miterlimit="4.8" stroke-width="3" fill="none"/>
 </g>
 <g id="background" transform="translate(1.5,-218.5)">
  <rect height="650" width="470" y="285" x="65" fill="#c83737"/>
 </g>
 <g id="content" transform="translate(1.5,-218.5)" fill="#fff">
  <g transform="scale(1.001 .9992)">
   <path style="" d="m72.74 924.5v-71.03h-10.28v-11.85h34.87v11.85h-10.28v71.03h10.28v11.85h-34.87v-11.85h10.28z"/>
   <path style="" d="m169.1 870.4v24.92h-11.58q-0.8853-7.151-5.857-10.96-4.903-3.814-11.44-3.814-8.717 0-14.16 6.197-5.448 6.129-5.448 16.14 0 9.33 5.176 16.48 5.176 7.082 14.98 7.082 13.62 0 19.75-12.94l10.69 5.039q-8.853 19.68-30.99 19.68-15.66 0-24.65-10.69-8.989-10.69-8.989-24.65 0-14.91 9.806-24.58 9.806-9.738 22.61-9.738 10.96 0 18.52 6.47v-4.631h11.58z"/>
   <path style="" d="m249.2 906.6h-55.43q1.226 9.125 7.219 14.78 5.993 5.652 15.32 5.652 13.55 0 21.45-10.9l11.44 5.039q-5.584 8.649-14.51 12.87-8.921 4.154-18.66 4.154-15.12 0-25.88-9.398-10.69-9.466-10.69-25.47 0-15.19 10.42-24.99 10.49-9.806 24.04-9.806 13.28 0 24.04 9.602 10.83 9.534 11.24 28.47zm-13.35-9.398q-1.362-6.946-7.219-12.53-5.857-5.652-14.37-5.652-7.763 0-13.28 5.108-5.516 5.039-6.742 13.08h41.61z"/>
   <path style="" d="m268.7 924.8v-71.71h-11.71v-11.51h24.65v83.22h10.08v11.51h-34.73v-11.51h11.71z"/>
   <path style="" d="m367.3 924.8v11.51h-22.61v-8.036q-9.398 9.125-20.97 9.125-8.989 0-15.66-5.857-6.606-5.857-6.606-14.98 0-9.194 7.014-15.25 7.082-6.061 17.03-6.061 9.262 0 17.91 5.584v-6.538q0-5.039-0.9534-7.763t-4.495-4.903q-3.473-2.179-9.125-2.179-9.738 0-14.1 7.763l-12.39-3.269q8.24-15.39 28.47-15.39 7.423 0 12.8 2.043 5.448 1.975 8.104 5.176 2.656 3.133 3.541 6.81 0.9534 3.677 0.9534 11.71v30.51h11.1zm-23.9-13.01q-8.376-6.538-16.96-6.538-5.38 0-8.989 3.133t-3.609 8.104q0 4.631 3.133 7.763 3.201 3.133 8.649 3.133 9.398 0 17.77-7.9v-7.695z"/>
   <path style="" d="m397.4 870.4v7.968q12.46-8.989 22.75-8.989 6.401 0 10.56 3.065 4.222 2.996 5.516 7.423 1.294 4.358 1.294 12.8v32.14h11.1v11.51h-24.04v-43.11q0-7.491-2.247-9.738-2.247-2.315-5.516-2.315-8.581 0-19.41 8.376v35.28h11.37v11.51h-35.89v-11.51h11.58v-42.9h-11.58v-11.51h24.52z"/>
   <path style="" d="m536.1 924.8v11.51h-24.79v-9.67q-9.67 10.76-23.56 10.76-12.87 0-22.61-8.785-9.738-8.785-9.738-24.99 0-16.28 10.01-25.67 10.01-9.398 22.61-9.398 13.35 0 23.29 10.62v-26.08h-12.67v-11.51h25.61v83.22h11.85zm-66.87-21.52q0 10.9 6.129 16.75 6.197 5.857 14.78 5.857 8.308 0 14.71-6.129 6.47-6.197 6.47-17.09 0-10.96-6.606-16.55-6.538-5.584-14.71-5.584-8.785 0-14.78 6.606-5.993 6.538-5.993 16.14z"/>
  </g>
  <path d="m284 726.1 25.41 9.391 31.49-13.26 12.15-18.23 17.13-3.315 2.21-10.5 9.391-2.21 5.524 8.839 32.04-28.31 21.68-11.88 1.243-8.563 13.81 11.32 12.63-16.91 7.031 0.3906 1.953-12.89-0.7812-20.31 12.89 8.984 15.62-14.84-12.89-8.594 12.89 2.344-17.19-10.16 8.203-5.469 14.45 10.16 3.906-13.67-20.31-6.25 18.36-7.031-17.58-0.3906 14.06-12.11 3.125-10.55-26.17-12.11-8.984 6.25 5.859-20.31-21.88 6.641 11.72-21.48-4.688-10.55-7.422 5.078-11.72-10.94 10.55-7.812-3.516-5.859 16.02-10.16-15.62 0.7812-13.67 20.7-16.8-12.89 5.469-7.422-15.62-17.58-18.75 3.906 1.953 34.38-18.36 3.125-4.297-10.55-20.31 24.22-15.62-18.75-13.67-0.7812 10.94 34.77v14.45l-14.06-28.52-18.36-23.44-10.16 5.859 4.297 7.031h-14.45l-0.3906 30.47h-10.94l-16.41-37.89-11.33 6.25 6.641 33.98-11.72 21.09-6.25-17.58-12.11 20.31-3.125 28.91-7.422-30.08-7.812 3.516 6.641-12.5-21.09-20.31 13.67 7.812 8.594-18.36-11.8-5.2 8.984-4.297-13.67-7.031-9.766-18.36h-11.33l-0.7812-10.94-28.12-8.984-5.078 14.06 26.95 6.25-22.27 3.906 21.48 14.84 4.297 24.61-14.45 6.25 9.766-16.8-9.375 9.375v-21.09l-12.11 12.5-1.172-17.97-6.641 4.297 1.562-8.984-13.3-5.4 3.906 18.36-13.67-6.641-1.172 8.594 24.22 16.41-26.17-8.984 9.375 17.19 17.58-1.953-16.8 14.06-17.58-20.31-5.078 6.641 14.45 18.75-17.97-12.5-10.94 17.58 27.73 5.859 45.7-19.53 7.617 11.13 13.87-7.617-8.594 14.84 9.766-6.934 14.16 7.617-31.35 20.9 18.33 8.673 12.15-7.182-3.867 16.57-49.17 5.524-18.23 5.8-16.02-1.933s-4.804 7.865-3.315 11.6c1.743 4.371 12.15 7.182 12.15 7.182l16.02-9.391 36.46 2.762 1.105 18.23 8.839 10.5 14.36-12.15-10.5 27.07 26.52-9.391-20.99 15.47 7.182 6.629-28.95 18.16-9.168-11.53-2.076 20.22 4.838 4.637 10.36-4.834 14.22 3.453 30.66-8.563 38.67 33.7z" fill-rule="evenodd"/>
 </g>
</svg>
