<?xml version="1.0" encoding="UTF-8" standalone="no"?>
<!-- Created with Inkscape (http://www.inkscape.org/) -->
<svg id="japan-stamp" xmlns:rdf="http://www.w3.org/1999/02/22-rdf-syntax-ns#" xmlns="http://www.w3.org/2000/svg" height="783" width="603" version="1.1" xmlns:cc="http://creativecommons.org/ns#" xmlns:dc="http://purl.org/dc/elements/1.1/" viewBox="0 0 603.00001 783">
 <g id="border" transform="translate(1.5 -270.9)">
  <path d="m15 272.4a15 15 0 0 1 -15 15v30a15 15 0 0 1 15 15 15 15 0 0 1 -15 15v30a15 15 0 0 1 15 15 15 15 0 0 1 -15 15v30a15 15 0 0 1 15 15 15 15 0 0 1 -15 15v30a15 15 0 0 1 15 15 15 15 0 0 1 -15 15v30a15 15 0 0 1 15 15 15 15 0 0 1 -15 15v30a15 15 0 0 1 15 15 15 15 0 0 1 -15 15v30a15 15 0 0 1 15 15 15 15 0 0 1 -15 15v30a15 15 0 0 1 15 15 15 15 0 0 1 -15 15v30a15 15 0 0 1 4.012 0.5469 15 15 0 0 1 2.793 1.086 15 15 0 0 1 1.301 0.7461 15 15 0 0 1 3.367 2.957 15 15 0 0 1 2.857 5.23 15 15 0 0 1 0.6699 4.434 15 15 0 0 1 -0.0371 1.061 15 15 0 0 1 -0.1816 1.488 15 15 0 0 1 -1.414 4.256 15 15 0 0 1 -0.7461 1.301 15 15 0 0 1 -0.8711 1.219 15 15 0 0 1 -0.9902 1.127 15 15 0 0 1 -2.291 1.93 15 15 0 0 1 -1.277 0.7832 15 15 0 0 1 -5.693 1.762 15 15 0 0 1 -1.499 0.1v30a15 15 0 0 1 15 15 15 15 0 0 1 -15 15v30a15 15 0 0 1 15 15 15 15 0 0 1 -15 15v30a15 15 0 0 1 15 15 15 15 0 0 1 -15 15v30a15 15 0 0 1 0.006 0 15 15 0 0 1 15 15h30a15 15 0 0 1 15 -15 15 15 0 0 1 15 15h30a15 15 0 0 1 15 -15 15 15 0 0 1 15 15h30a15 15 0 0 1 15 -15 15 15 0 0 1 15 15h30a15 15 0 0 1 15 -15 15 15 0 0 1 15 15h30a15 15 0 0 1 15 -15 15 15 0 0 1 15 15h30a15 15 0 0 1 15 -15 15 15 0 0 1 15 15h30a15 15 0 0 1 15 -15 15 15 0 0 1 15 15h30a15 15 0 0 1 15 -15 15 15 0 0 1 15 15h30a15 15 0 0 1 15 -15 15 15 0 0 1 15 15h30a15 15 0 0 1 14.99 -15v-30a15 15 0 0 1 -15 -15 15 15 0 0 1 15 -15v-30a15 15 0 0 1 -15 -15 15 15 0 0 1 15 -15v-30a15 15 0 0 1 -15 -15 15 15 0 0 1 15 -15v-30a15 15 0 0 1 -1.061 -0.0371 15 15 0 0 1 -1.488 -0.1816 15 15 0 0 1 -5.557 -2.16 15 15 0 0 1 -1.219 -0.8711 15 15 0 0 1 -1.127 -0.9902 15 15 0 0 1 -1.93 -2.291 15 15 0 0 1 -0.7832 -1.277 15 15 0 0 1 -0.6524 -1.35 15 15 0 0 1 -0.8848 -2.861 15 15 0 0 1 -0.2246 -1.482 15 15 0 0 1 -0.0742 -1.498 15 15 0 0 1 0.0371 -1.061 15 15 0 0 1 0.5098 -2.951 15 15 0 0 1 0.4726 -1.424 15 15 0 0 1 1.359 -2.67 15 15 0 0 1 4.152 -4.275 15 15 0 0 1 2.627 -1.436 15 15 0 0 1 1.408 -0.5137 15 15 0 0 1 1.453 -0.3711 15 15 0 0 1 1.482 -0.2246 15 15 0 0 1 1.5 0.3v-30a15 15 0 0 1 -15 -15 15 15 0 0 1 15 -15v-30a15 15 0 0 1 -15 -15 15 15 0 0 1 15 -15v-30a15 15 0 0 1 -15 -15 15 15 0 0 1 15 -15v-30a15 15 0 0 1 -15 -15 15 15 0 0 1 15 -15v-30a15 15 0 0 1 -15 -15 15 15 0 0 1 15 -15v-30a15 15 0 0 1 -15 -15 15 15 0 0 1 15 -15v-30a15 15 0 0 1 -15 -15 15 15 0 0 1 15 -15v-30a15 15 0 0 1 -15 -15 15 15 0 0 1 15 -15v-30a15 15 0 0 1 -15 -15h-30a15 15 0 0 1 -15 15 15 15 0 0 1 -15 -15h-30a15 15 0 0 1 -15 15 15 15 0 0 1 -15 -15h-30a15 15 0 0 1 -15 15 15 15 0 0 1 -15 -15h-30a15 15 0 0 1 -15 15 15 15 0 0 1 -15 -15h-30a15 15 0 0 1 -15 15 15 15 0 0 1 -15 -15h-30a15 15 0 0 1 -15 15 15 15 0 0 1 -15 -15h-30a15 15 0 0 1 -15 15 15 15 0 0 1 -15 -15h-30a15 15 0 0 1 -15 15 15 15 0 0 1 -15 -15h-30a15 15 0 0 1 -15 15 15 15 0 0 1 -15 -15h-30z" stroke="#000" stroke-miterlimit="4.8" stroke-width="3" fill="none"/>
 </g>
 <g id="background" transform="translate(1.5,-218.5)">
  <rect height="650" width="470" y="285" x="65" fill="#4aba64"/>
 </g>
 <g id="content" transform="translate(1.5,-218.5)" fill="#fff">
  <g transform="scale(1.001 .9992)">
   <path style="" d="m62.45 445.8v-17.61q7.044 1.806 13.55 1.806 8.127 0 10.75-4.515 2.709-4.425 2.709-17.88v-109h-16.07v-15.71h51.11v15.71h-16.07v109.9q0 14.18-2.167 21.49-2.077 7.405-10.2 12.64-8.037 5.238-19.14 5.238-7.676 0-14.45-2.077z"/>
   <path style="" d="m216.4 393.2v15.26h-29.98v-10.66q-12.46 12.1-27.81 12.1-11.92 0-20.77-7.766-8.76-7.766-8.76-19.87 0-12.19 9.301-20.23 9.392-8.037 22.58-8.037 12.28 0 23.75 7.405v-8.669q0-6.683-1.264-10.29-1.264-3.612-5.96-6.502-4.606-2.89-12.1-2.89-12.91 0-18.69 10.29l-16.44-4.335q10.93-20.41 37.75-20.41 9.843 0 16.98 2.709 7.224 2.619 10.75 6.863 3.522 4.154 4.696 9.03 1.264 4.876 1.264 15.53v40.46h14.72zm-31.7-17.25q-11.11-8.669-22.49-8.669-7.134 0-11.92 4.154t-4.786 10.75q0 6.141 4.154 10.29 4.244 4.154 11.47 4.154 12.46 0 23.57-10.48v-10.2z"/>
   <path style="" d="m236.1 432.4v-96.08h-14.72v-15.26h31.88v13.73q12.82-15.08 31.06-15.08 18.42 0 30.43 12.64 12.1 12.64 12.1 32.87 0 21.22-13.09 33.5t-29.8 12.28q-17.34 0-30.7-13.37v34.77h16.98v15.26h-50.12v-15.26h15.98zm16.89-66.37q0 7.224 2.98 13.82 2.98 6.592 9.482 11.11 6.502 4.425 15.26 4.425 12.28 0 20.23-8.218 8.037-8.218 8.037-22.58 0-14-8.398-21.85-8.308-7.857-18.96-7.857-11.38 0-20.05 8.579-8.579 8.489-8.579 22.58z"/>
   <path style="" d="m430.3 393.2v15.26h-29.98v-10.66q-12.46 12.1-27.81 12.1-11.92 0-20.77-7.766-8.76-7.766-8.76-19.87 0-12.19 9.301-20.23 9.392-8.037 22.58-8.037 12.28 0 23.75 7.405v-8.669q0-6.683-1.264-10.29-1.264-3.612-5.96-6.502-4.606-2.89-12.1-2.89-12.91 0-18.69 10.29l-16.44-4.335q10.93-20.41 37.75-20.41 9.843 0 16.98 2.709 7.224 2.619 10.75 6.863 3.522 4.154 4.696 9.03 1.264 4.876 1.264 15.53v40.46h14.72zm-31.7-17.25q-11.11-8.669-22.49-8.669-7.134 0-11.92 4.154t-4.786 10.75q0 6.141 4.154 10.29 4.244 4.154 11.47 4.154 12.46 0 23.57-10.48v-10.2z"/>
   <path style="" d="m470.2 321.1v10.57q16.53-11.92 30.16-11.92 8.489 0 14 4.064 5.599 3.973 7.315 9.843 1.716 5.78 1.716 16.98v42.62h14.72v15.26h-31.88v-57.16q0-9.934-2.98-12.91-2.98-3.07-7.315-3.07-11.38 0-25.74 11.11v46.78h15.08v15.26h-47.59v-15.26h15.35v-56.89h-15.35v-15.26h32.51z"/>
  </g>
  <path d="m131.1 908.3 5.371 4.395-6.934 2.441zm16.31-10.45-7.129 14.16 2.979 0.7324 4.736-12.3zm-28.27-96.72 2.289 3.449-3.394 1.283zm-11.38-14.21 3.027 0.6836-3.711 5.566zm0.9766-1.855 3.027 0.5859 4.59-10.74-3.809-0.293zm-17.77 47.46 3.027 4.102-6.25 2.539zm9.473-7.227 3.125 1.27-5.543 3.652zm34.11 19.36-10.62-1.27-2.075 8.813 5.249 4.639 0.9766-3.223-3.101-0.2686 3.711-8.496 0.8057 3.003 3.931 0.4394zm16.87-42.99 6.836 11.91 8.203-3.516 5.859 5.859-7.812 6.445 9.57 2.93 2.734 10.35-9.18 10.74-8.008 26.95-4.688 9.57-6.055-1.172 0.9766 4.492-11.52 6.055 2.734-10.55 0.5859-10.55-2.344-0.9766-4.883 7.812 3.125 9.375-13.67-5.664 5.273-5.078-2.539-10.55 2.148-9.57 11.13-14.65-1.367-8.594-5.859-9.766-3.906 5.078 6.445 8.008-6.055 4.492-1.172-4.102-9.961 4.883-2.148-15.82 6.836 7.617 0.5859-6.25-12.15-8.746 12.35-7.075 11.72-1.953 4.883-7.812zm77.34-9.18 17.77 5.859 1.953 12.3-9.766 7.227-4.102 10.16-12.11-9.375-11.72 6.055-9.18 17.58-9.57-0.7812 1.758-5.469-6.836-6.445-0.5859-11.33 16.8-18.95 5.273 6.055 9.961-1.172zm117.8-120.4-6.348 7.324 1.66 8.594 7.715-6.934zm-132.3 58.03-0.5524 5.162 4.816-2.331zm42.61 56.91-8.008 8.984 6.25 3.125zm146.7-214.3-3.125 9.961 10.16-2.734-1.562 9.375-9.375 1.758-2.93-10.35-7.227-0.7812-2.148 13.48-7.812 5.859 3.711 10.35-5.273 12.7 5.762-0.0977 0.293 16.7-14.45 39.65-16.6 10.74-4.492 12.3-33.2 18.75-4.688-3.125-1.953-10.16 8.594-4.883 0.7812-6.445-15.62 7.422 0.7812 14.65-19.92 25.39 3.516 7.422-11.52 8.594-11.91-2.93 2.148-6.445-53.91 8.203 3.125-4.492-13.09 1.758-40.43 33.2-4.102-2.148-7.422 3.32 1.172 8.984 21.88 1.172 9.375 6.25 4.883-13.87 5.273-1.367 0.3584 6.973 21.91-7.168 9.18-4.102 4.883 3.516 19.92-9.961 20.51 5.078-9.18 11.72-1.172 11.13 17.97 14.06 14.84-21.88 13.48-2.148 2.148-6.055-11.13-7.422 8.398-12.3 1.758 11.33 1.758-6.445 9.766 4.492-7.227 6.055 29.49-1.367 10.16-14.45 6.445 0.9766-2.148 13.48 5.664-0.5859 4.492-18.36 9.375-1.367 2.344 4.688 4.492-15.82 7.812 0.9766-6.836 9.57v12.3l15.23-9.766 2.148-11.72 8.984-5.078-8.594-15.62 10.55-24.02 0.1953-24.02-3.906-6.055 8.398-13.67 8.008 3.516-2.344-12.3 10.55-17.38 0.7812-17.77-8.789-21.09-8.398-10.55 1.562-17.97-4.102 1.953zm17.58-128.7 20.46 24.91 22.12 18.84 24.22 2.344 11.33-11.33-4.206 16.57 6.86 13.81 10.45-2.074-18.29 13.7-17.93 0.809-15.89 14.43-3.184 20.5-36.33-21.48-16.02 10.94-13.48-7.617-2.93 10.74 10.06 3.027 9.473 9.863-12.11 1.953-8.984 10.94-6.641-4.297 3.516-14.84-8.151-8.741 2.292-11.18 14.45-11.33-3.516-9.375 19.14 3.906 5.469-6.25-3.516-13.67 7.031-3.906 1.953-24.22-4.887-19.9z" fill-rule="evenodd"/>
 </g>
</svg>
