<?xml version="1.0" encoding="UTF-8" standalone="no"?>
<!-- Created with Inkscape (http://www.inkscape.org/) -->
<svg id="ma-stamp" xmlns:rdf="http://www.w3.org/1999/02/22-rdf-syntax-ns#" xmlns="http://www.w3.org/2000/svg" height="783" width="603" version="1.1" xmlns:cc="http://creativecommons.org/ns#" xmlns:dc="http://purl.org/dc/elements/1.1/" viewBox="0 0 607 783">
 <g id="border" transform="translate(1.5 -270.9)">
  <path d="m15 272.4a15 15 0 0 1 -15 15v30a15 15 0 0 1 15 15 15 15 0 0 1 -15 15v30a15 15 0 0 1 15 15 15 15 0 0 1 -15 15v30a15 15 0 0 1 15 15 15 15 0 0 1 -15 15v30a15 15 0 0 1 15 15 15 15 0 0 1 -15 15v30a15 15 0 0 1 15 15 15 15 0 0 1 -15 15v30a15 15 0 0 1 15 15 15 15 0 0 1 -15 15v30a15 15 0 0 1 15 15 15 15 0 0 1 -15 15v30a15 15 0 0 1 15 15 15 15 0 0 1 -15 15v30a15 15 0 0 1 4.012 0.5469 15 15 0 0 1 2.793 1.086 15 15 0 0 1 1.301 0.7461 15 15 0 0 1 3.367 2.957 15 15 0 0 1 2.857 5.23 15 15 0 0 1 0.6699 4.434 15 15 0 0 1 -0.0371 1.061 15 15 0 0 1 -0.1816 1.488 15 15 0 0 1 -1.414 4.256 15 15 0 0 1 -0.7461 1.301 15 15 0 0 1 -0.8711 1.219 15 15 0 0 1 -0.9902 1.127 15 15 0 0 1 -2.291 1.93 15 15 0 0 1 -1.277 0.7832 15 15 0 0 1 -5.693 1.762 15 15 0 0 1 -1.499 0.1v30a15 15 0 0 1 15 15 15 15 0 0 1 -15 15v30a15 15 0 0 1 15 15 15 15 0 0 1 -15 15v30a15 15 0 0 1 15 15 15 15 0 0 1 -15 15v30a15 15 0 0 1 0.006 0 15 15 0 0 1 15 15h30a15 15 0 0 1 15 -15 15 15 0 0 1 15 15h30a15 15 0 0 1 15 -15 15 15 0 0 1 15 15h30a15 15 0 0 1 15 -15 15 15 0 0 1 15 15h30a15 15 0 0 1 15 -15 15 15 0 0 1 15 15h30a15 15 0 0 1 15 -15 15 15 0 0 1 15 15h30a15 15 0 0 1 15 -15 15 15 0 0 1 15 15h30a15 15 0 0 1 15 -15 15 15 0 0 1 15 15h30a15 15 0 0 1 15 -15 15 15 0 0 1 15 15h30a15 15 0 0 1 15 -15 15 15 0 0 1 15 15h30a15 15 0 0 1 14.99 -15v-30a15 15 0 0 1 -15 -15 15 15 0 0 1 15 -15v-30a15 15 0 0 1 -15 -15 15 15 0 0 1 15 -15v-30a15 15 0 0 1 -15 -15 15 15 0 0 1 15 -15v-30a15 15 0 0 1 -1.061 -0.0371 15 15 0 0 1 -1.488 -0.1816 15 15 0 0 1 -5.557 -2.16 15 15 0 0 1 -1.219 -0.8711 15 15 0 0 1 -1.127 -0.9902 15 15 0 0 1 -1.93 -2.291 15 15 0 0 1 -0.7832 -1.277 15 15 0 0 1 -0.6524 -1.35 15 15 0 0 1 -0.8848 -2.861 15 15 0 0 1 -0.2246 -1.482 15 15 0 0 1 -0.0742 -1.498 15 15 0 0 1 0.0371 -1.061 15 15 0 0 1 0.5098 -2.951 15 15 0 0 1 0.4726 -1.424 15 15 0 0 1 1.359 -2.67 15 15 0 0 1 4.152 -4.275 15 15 0 0 1 2.627 -1.436 15 15 0 0 1 1.408 -0.5137 15 15 0 0 1 1.453 -0.3711 15 15 0 0 1 1.482 -0.2246 15 15 0 0 1 1.5 0.3v-30a15 15 0 0 1 -15 -15 15 15 0 0 1 15 -15v-30a15 15 0 0 1 -15 -15 15 15 0 0 1 15 -15v-30a15 15 0 0 1 -15 -15 15 15 0 0 1 15 -15v-30a15 15 0 0 1 -15 -15 15 15 0 0 1 15 -15v-30a15 15 0 0 1 -15 -15 15 15 0 0 1 15 -15v-30a15 15 0 0 1 -15 -15 15 15 0 0 1 15 -15v-30a15 15 0 0 1 -15 -15 15 15 0 0 1 15 -15v-30a15 15 0 0 1 -15 -15 15 15 0 0 1 15 -15v-30a15 15 0 0 1 -15 -15h-30a15 15 0 0 1 -15 15 15 15 0 0 1 -15 -15h-30a15 15 0 0 1 -15 15 15 15 0 0 1 -15 -15h-30a15 15 0 0 1 -15 15 15 15 0 0 1 -15 -15h-30a15 15 0 0 1 -15 15 15 15 0 0 1 -15 -15h-30a15 15 0 0 1 -15 15 15 15 0 0 1 -15 -15h-30a15 15 0 0 1 -15 15 15 15 0 0 1 -15 -15h-30a15 15 0 0 1 -15 15 15 15 0 0 1 -15 -15h-30a15 15 0 0 1 -15 15 15 15 0 0 1 -15 -15h-30a15 15 0 0 1 -15 15 15 15 0 0 1 -15 -15h-30z" stroke="#000" stroke-miterlimit="4.8" stroke-width="3" fill="none"/>
 </g>
 <g id="background" transform="translate(1.5,-218.5)">
  <rect height="650" width="470" y="285" x="65" fill="#2d3e63"/>
 </g>
 <g id="content" transform="translate(1.5,-218.5)" fill="#fff">
  <g fill-rule="evenodd" transform="matrix(.6316 -.1665 .1665 .6316 -80.61 423)">
   <path d="m147 427 351 16 20-17 8-13 12-3 21-14 25 3v33l12 18 15 3 10-13 5 12-10 18-39 9 8 10-15 15-1 7-9-6v18l-11 9 13 19h12v-11l21 11 10 7v20l16 12 6 23-10-9-5 16 25 8 5 22-2 9 27 18 22.66 0.0277 41.3-13 7-29h-12l-3-25-16.81-11.94-4.596 10.52-10.78-15.29 22.8-1.768 19.4 14.5 9 21 9 31-4 35-21-1-16.9 6.08-18.56 7.191-19.5-4.3-4 11-6-4-12 15-31 7 4-14-3-16 4-17.75-16.75-1-8.25 19.75-17 9-11-3-2 12-7 12-13 6-17-4-3-28-11-2 10-20-14 5-18-21-8-16 2-10-7-5 2-26-216.5-3.5-4.25 3.75-5.25-4.25-19-1-8 14-8-3-3-12-116.2-6.563-0.1326-17.1z"/>
   <path d="m626.8 741.5-16.5 12.75-9.75 21.25-11.75-2.5 4.25 10.5 6.25-1 11-8.25 38 0.75 9-3.25-0.75-18-8.25 11-8.5-8-3.25-1.25 1.25-10.5z"/>
   <path d="m608.5 732.8-22.25 16.75 11 0.5 5.25-8.5 6-4.25z"/>
   <path d="m582 749-8.5 5.75 2.75 3 7-3z"/>
   <path d="m571 756.5-3.25-1.75-3.25 6z"/>
   <path d="m734 759.2 13.75 24.5-0.5 13.5-32.5-0.5-12-9.5 9-1.5 15.25-3.25 8.5-9.75-4-12.25z"/>
   <path d="m691.5 780-0.25 6.75 8.75 4.25v-4.25z"/>
  </g>
  <g>
   <path style="" d="m73.51 361.1v-65.66h-10.51v-10.95h29.97l23.04 60 23.29-60h30.28v10.95h-10.58v65.66h10.58v10.95h-32.99v-10.95h10.45v-65.66l-30.22 77.5h-2.581l-29.9-77.5v65.66h9.632v10.95h-30.97v-10.95h10.51z"/>
   <path style="" d="m239.2 361.4v10.64h-20.9v-7.429q-8.688 8.436-19.39 8.436-8.31 0-14.48-5.414-6.107-5.414-6.107-13.85 0-8.499 6.484-14.1 6.547-5.603 15.74-5.603 8.562 0 16.56 5.162v-6.044q0-4.659-0.8814-7.177t-4.155-4.533q-3.211-2.015-8.436-2.015-9.003 0-13.03 7.177l-11.46-3.022q7.618-14.23 26.32-14.23 6.862 0 11.84 1.889 5.036 1.826 7.492 4.785 2.455 2.896 3.274 6.295 0.8814 3.4 0.8814 10.83v28.2h10.26zm-22.1-12q-7.743-6.044-15.68-6.044-4.973 0-8.31 2.896t-3.337 7.492q0 4.281 2.896 7.177 2.959 2.896 7.995 2.896 8.688 0 16.43-7.303v-7.114z"/>
   <path style="" d="m246.2 372v-20.9h10.7v2.015q0.5666 4.281 4.596 7.051 4.092 2.77 9.632 2.77 5.792 0 9.254-2.015t3.462-5.603q0-3.462-2.896-5.099-2.833-1.637-11.33-3.022-12.59-2.14-18.01-6.862-5.351-4.785-5.351-12.34 0-7.618 5.855-12.72 5.855-5.162 15.42-5.162 8.625 0 14.86 3.525v-2.581h10.64v20.21h-10.64v-3.714q-4.848-7.492-14.1-7.492-4.722 0-7.806 2.078-3.022 2.015-3.022 5.414 0 3.462 2.77 4.785 2.833 1.259 12.09 2.707 8.877 1.385 13.41 3.274 4.533 1.826 7.492 6.17 3.022 4.281 3.022 10.01 0 8.499-6.547 13.54-6.484 4.973-16.87 4.973-9.758 0-15.93-4.407v3.4h-10.7z"/>
   <path style="" d="m305.4 372v-20.9h10.7v2.015q0.5666 4.281 4.596 7.051 4.092 2.77 9.632 2.77 5.792 0 9.254-2.015t3.462-5.603q0-3.462-2.896-5.099-2.833-1.637-11.33-3.022-12.59-2.14-18.01-6.862-5.351-4.785-5.351-12.34 0-7.618 5.855-12.72 5.855-5.162 15.42-5.162 8.625 0 14.86 3.525v-2.581h10.64v20.21h-10.64v-3.714q-4.848-7.492-14.1-7.492-4.722 0-7.806 2.078-3.022 2.015-3.022 5.414 0 3.462 2.77 4.785 2.833 1.259 12.09 2.707 8.877 1.385 13.41 3.274 4.533 1.826 7.492 6.17 3.022 4.281 3.022 10.01 0 8.499-6.547 13.54-6.484 4.973-16.87 4.973-9.758 0-15.93-4.407v3.4h-10.7z"/>
   <path style="" d="m426.1 361.4v10.64h-20.9v-7.429q-8.688 8.436-19.39 8.436-8.31 0-14.48-5.414-6.107-5.414-6.107-13.85 0-8.499 6.484-14.1 6.547-5.603 15.74-5.603 8.562 0 16.56 5.162v-6.044q0-4.659-0.8814-7.177t-4.155-4.533q-3.211-2.015-8.436-2.015-9.003 0-13.03 7.177l-11.46-3.022q7.618-14.23 26.32-14.23 6.862 0 11.84 1.889 5.036 1.826 7.492 4.785 2.455 2.896 3.274 6.295 0.8814 3.4 0.8814 10.83v28.2h10.26zm-22.1-12q-7.743-6.044-15.68-6.044-4.973 0-8.31 2.896t-3.337 7.492q0 4.281 2.896 7.177 2.959 2.896 7.995 2.896 8.688 0 16.43-7.303v-7.114z"/>
   <path style="" d="m431.7 335.8h37.77v11.96h-37.77v-11.96z"/>
   <path style="" d="m122.2 407.8v23.04h-10.7q-0.8184-6.61-5.414-10.14-4.533-3.525-10.58-3.525-8.058 0-13.09 5.729-5.036 5.666-5.036 14.92 0 8.625 4.785 15.24 4.785 6.547 13.85 6.547 12.59 0 18.26-11.96l9.884 4.659q-8.184 18.19-28.64 18.19-14.48 0-22.79-9.884t-8.31-22.79q0-13.79 9.065-22.73 9.065-9.003 20.9-9.003 10.14 0 17.12 5.981v-4.281h10.7z"/>
   <path style="" d="m140.7 458.1v-66.29h-11.02v-10.64h22.98v33.62q10.77-8.688 20.46-8.688 6.044 0 9.947 2.518t5.288 6.673q1.448 4.092 1.448 12.02v30.78h10.39v10.64h-22.35v-37.27q0-6.925-0.4407-9.254t-2.455-3.84q-1.952-1.511-4.659-1.511-6.925 0-17.63 7.869v33.37h10.58v10.64h-33.55v-10.64h11.02z"/>
   <path style="" d="m272.2 458.1v10.64h-22.47v-6.988q-10.51 7.995-20.15 7.995-6.107 0-10.14-2.644-3.966-2.707-5.288-6.925-1.322-4.281-1.322-13.72v-28.01h-8.625v-10.64h20.59v37.14q0 6.736 0.3777 9.065t2.203 3.84q1.826 1.511 4.596 1.511 8.31 0 17.75-7.932v-32.99h-10.77v-10.64h22.73v50.3h10.51z"/>
   <path style="" d="m278.4 468.7v-20.9h10.7v2.015q0.5666 4.281 4.596 7.051 4.092 2.77 9.632 2.77 5.792 0 9.254-2.015 3.463-2.015 3.463-5.603 0-3.462-2.896-5.099-2.833-1.637-11.33-3.022-12.59-2.14-18.01-6.862-5.351-4.785-5.351-12.34 0-7.618 5.855-12.72 5.855-5.162 15.42-5.162 8.625 0 14.86 3.525v-2.581h10.64v20.21h-10.64v-3.714q-4.848-7.492-14.1-7.492-4.722 0-7.806 2.078-3.022 2.015-3.022 5.414 0 3.462 2.77 4.785 2.833 1.259 12.09 2.707 8.877 1.385 13.41 3.274 4.533 1.826 7.492 6.17 3.022 4.281 3.022 10.01 0 8.499-6.547 13.54-6.484 4.973-16.87 4.973-9.758 0-15.93-4.407v3.4h-10.7z"/>
   <path style="" d="m401.4 441.3h-51.25q1.133 8.436 6.673 13.66 5.54 5.225 14.16 5.225 12.53 0 19.83-10.07l10.58 4.659q-5.162 7.995-13.41 11.9-8.247 3.84-17.25 3.84-13.98 0-23.92-8.688-9.884-8.751-9.884-23.55 0-14.04 9.632-23.1 9.695-9.065 22.22-9.065 12.28 0 22.22 8.877 10.01 8.814 10.39 26.32zm-12.3-8.7q-1.259-6.421-6.673-11.58-5.414-5.225-13.28-5.225-7.177 0-12.28 4.722-5.099 4.659-6.233 12.09h38.47z"/>
   <path style="" d="m410 418.4v-10.64h7.932v-9.38l11.96-10.95v20.33h11.27v10.64h-11.27v29.59q0 7.114 0.7554 8.814 0.8184 1.637 3.966 1.637 3.337 0 6.547-1.259v10.89q-4.596 1.637-9.191 1.637-5.477 0-8.877-2.392-3.4-2.455-4.281-6.107-0.8814-3.651-0.8814-12.59v-30.22h-7.932z"/>
   <path style="" d="m448.8 418.4v-10.64h7.932v-9.38l11.96-10.95v20.33h11.27v10.64h-11.27v29.59q0 7.114 0.7554 8.814 0.8184 1.637 3.966 1.637 3.337 0 6.547-1.259v10.89q-4.596 1.637-9.191 1.637-5.477 0-8.877-2.392-3.4-2.455-4.281-6.107-0.8814-3.651-0.8814-12.59v-30.22h-7.932z"/>
   <path style="" d="m489 468.7v-20.9h10.7v2.015q0.5666 4.281 4.596 7.051 4.092 2.77 9.632 2.77 5.792 0 9.254-2.015 3.463-2.015 3.463-5.603 0-3.462-2.896-5.099-2.833-1.637-11.33-3.022-12.59-2.14-18.01-6.862-5.351-4.785-5.351-12.34 0-7.618 5.855-12.72 5.855-5.162 15.42-5.162 8.625 0 14.86 3.525v-2.581h10.64v20.21h-10.64v-3.714q-4.848-7.492-14.1-7.492-4.722 0-7.806 2.078-3.022 2.015-3.022 5.414 0 3.462 2.77 4.785 2.833 1.259 12.09 2.707 8.877 1.385 13.41 3.274 4.533 1.826 7.492 6.17 3 4.4 3 10.1 0 8.499-6.547 13.54-6.484 4.973-16.87 4.973-9.758 0-15.93-4.407v3.4h-10.7z"/>
  </g>
 </g>
</svg>
