<svg
  xmlns="http://www.w3.org/2000/svg"
  version="1.1"
  width="602"
  height="369"
  viewBox="-11200 -5500 30000 18300">
    <g>
      <path
         id="1705"
         d="m -9013,-3893 436,20 1126,49 439,15 760,26 184,6 523,17 1915,74 1255,43 884,34 537,21 1421,53 1482,56 241,8 281,12 1932,66 1999,44 726,5 116,-138 66,-101 55,-97 61,-80 30,-31 31,-31 44,-31 7,-5 66,-26 61,-5 56,-1 72,15 92,30 103,29 56,20 -46,-591 167,-198 285,-149 553,162 140,-451 45,-56 51,-45 36,-26 50,-21 138,-26 87,-26 132,-21 82,-21 51,-21 36,-21 101,-56 122,-72 66,-31 72,-15 66,-1 72,14 61,25 52,25 46,30 77,70 88,65 77,45 25,4 31,-15 66,-36 66,-41 76,-31 16,1 16,125 1,71 6,111 11,151 11,86 -35,0 -41,21 -41,-15 -36,1 -71,-5 -56,36 -87,31 -71,1 -11,-10 -82,-70 -62,-20 -46,5 -15,26 21,45 26,35 62,30 128,49 41,30 46,50 62,30 72,20 45,-11 21,-5 46,10 31,4 -6,-30 14,-167 61,-5 11,70 1,66 6,81 10,55 11,46 11,60 37,126 47,156 58,156 36,111 47,101 62,115 6,56 5,20 0,15 -10,25 -20,16 -36,0 -25,-15 -21,-10 -10,-40 -42,-50 -5,-5 -52,-96 -21,-90 -16,-71 -52,-95 -41,-35 -31,10 -10,0 5,15 11,51 11,70 -5,51 -35,35 5,56 0,15 1,15 15,40 1,36 -5,40 -26,21 -25,15 -5,40 21,15 31,5 40,-15 36,-26 5,-5 46,0 51,9 52,45 -21,21 -5,10 -20,25 -10,31 10,10 16,4 41,-10 45,-21 57,5 36,20 41,15 36,9 56,15 66,15 57,34 31,41 21,25 15,25 52,75 -15,20 -51,-19 -31,-25 -36,-15 -31,-15 -41,-10 -46,-40 -52,-25 -66,41 -15,46 -10,30 6,21 26,35 15,45 6,40 -10,26 0,15 31,20 10,25 5,20 1,30 20,30 21,0 55,-81 21,-5 25,5 16,4 5,21 -5,25 6,40 41,25 20,-10 5,-20 0,-26 10,-50 25,0 36,-6 41,-15 10,-21 4,-35 0,-56 10,-40 25,0 31,20 26,4 26,26 35,14 62,10 41,15 46,35 -9,65 -11,11 -25,10 -71,26 -15,35 5,35 15,5 21,-5 41,10 31,15 15,0 20,-11 16,0 20,20 21,5 10,-20 15,-46 25,-71 -11,-35 -21,-20 5,-40 -21,-30 -20,5 -15,0 -16,-15 -5,-56 15,-45 40,-31 86,-92 30,-76 61,-41 56,-50 16,20 30,4 66,-61 26,-5 15,15 26,35 26,10 15,30 -19,121 0,56 21,25 21,30 31,20 71,14 57,15 15,35 -5,21 26,30 11,25 -5,30 0,35 16,21 0,15 -10,50 -25,11 -26,5 -20,0 -46,6 -36,10 -36,26 -10,30 -9,40 -41,26 -31,26 -25,20 11,65 -5,46 -25,36 -25,45 -20,31 -26,30 -15,10 -46,21 -10,25 1,41 -41,56 -46,15 -25,-20 -6,-30 10,-20 10,-36 20,-35 26,-10 10,-16 0,-15 -11,-15 -15,-15 10,-20 5,-15 -5,-26 5,-25 -57,-20 -71,1 -26,20 -51,51 -29,157 -35,36 -21,20 -25,31 -35,40 -36,11 -41,25 -51,-4 -30,30 -51,36 -15,-10 -37,-40 -46,-25 -81,21 -56,26 -36,31 -81,81 -41,31 -20,-5 -41,-55 -56,26 -118,26 -152,82 -97,21 -143,11 -51,46 -41,-4 -72,-5 -76,56 -67,-19 -31,-61 -71,16 -139,-34 -30,31 -10,45 82,15 82,39 57,20 36,30 36,25 21,40 91,-77 36,15 -5,56 -117,102 -35,25 31,76 -4,126 67,-11 20,-30 35,-66 35,-46 31,-66 87,15 56,9 -35,147 -29,101 25,0 96,-122 51,5 -19,136 -46,46 -92,-9 -56,20 -30,31 -51,41 -46,30 -51,26 -55,122 -25,20 -15,26 -31,25 -67,-25 -87,-34 -76,11 -51,71 -20,81 -9,45 0,91 31,40 21,40 31,5 36,15 82,19 26,31 31,50 -26,35 -66,1 -98,-35 -55,31 -47,-5 -36,-135 -6,-91 -21,-71 -52,-20 -25,16 -31,20 -65,77 -76,101 -56,71 -55,92 0,80 26,46 1,60 20,20 62,25 31,25 36,25 -36,40 6,51 78,125 31,111 58,111 -21,25 -124,-115 -25,-25 -16,-20 0,-30 20,-56 -21,-30 -25,0 -62,16 -41,-10 -36,-25 -20,-20 4,-76 -41,-24 -41,0 -15,50 31,51 26,45 27,70 25,25 36,0 21,30 -10,41 -41,30 -30,-5 -26,26 -20,10 -15,5 -31,-15 -124,-104 -179,-80 -21,26 6,96 -35,35 -25,71 41,10 101,-67 37,40 113,75 36,20 5,76 -66,20 -46,31 -20,31 -51,0 -66,31 0,30 5,30 77,30 -86,117 1,50 16,116 57,40 29,-147 20,-25 31,15 46,15 41,-31 97,-51 82,4 0,35 -46,36 -30,41 -36,35 -76,21 -10,46 16,30 56,50 72,50 36,50 62,45 113,4 41,-6 50,-50 92,-47 46,15 -9,66 0,30 -41,46 -15,35 -35,51 -31,26 -40,5 -5,30 -21,26 1,45 5,30 46,15 11,15 21,40 25,20 36,-30 -16,-36 -21,-65 15,-46 36,-15 56,-41 71,-46 26,35 -41,71 11,51 26,45 36,40 16,5 40,-26 26,-15 10,-41 -16,-10 -21,-55 30,-71 112,-112 82,-6 25,10 -24,112 31,35 41,-1 40,-10 31,-16 -21,-65 20,-15 31,4 26,31 25,-6 31,-20 31,-6 9,-40 -10,-71 -47,-40 -41,-45 -26,-9 -56,-5 10,-45 -6,-56 -31,-91 -32,-65 -76,-14 -77,26 -46,-20 -46,-15 0,-35 102,-36 142,-27 77,-1 -4,56 41,100 68,126 103,115 21,10 92,50 128,24 26,5 128,49 98,50 32,136 16,116 42,-12 19,-60 35,-20 31,-10 35,-26 5,-76 36,-15 41,65 27,131 93,120 139,125 87,45 -30,56 -4,50 30,0 41,-26 10,10 11,30 -10,26 -5,25 -10,51 6,65 22,151 -16,31 -66,-5 -41,-4 -51,56 36,14 51,-20 57,19 15,31 11,65 21,65 67,10 -1,-61 -42,-115 21,-11 20,0 16,25 10,31 73,100 98,196 94,165 212,231 46,60 1,121 -15,10 -36,15 -15,36 1,40 10,46 27,80 41,90 130,191 103,135 37,50 82,96 -5,30 -40,10 -62,-45 -61,31 -51,36 -25,61 -51,31 -31,-5 -10,-35 5,-26 10,-20 15,-10 35,-36 56,-41 26,-30 -16,-86 -73,-110 -83,-115 -36,-76 -47,-60 -16,-35 -26,-40 -21,-61 -97,26 -25,31 -10,30 16,30 20,5 26,5 51,35 36,10 11,40 -72,11 -30,45 -10,46 -10,40 -10,26 -20,40 -30,56 72,40 11,50 -10,35 -51,46 -15,6 -21,-5 -31,-25 -36,-66 -26,-25 -61,41 -107,62 6,55 46,25 47,60 15,76 109,69 61,50 47,60 36,81 52,55 67,60 46,4 15,-25 10,-30 10,-41 -26,-55 -36,-65 -31,-55 20,-31 20,15 31,45 37,65 31,71 52,105 26,50 31,51 16,10 26,14 76,0 41,-16 41,-51 45,-15 31,-5 41,4 82,40 78,45 41,50 72,49 67,35 61,0 -4,95 -66,26 0,61 26,80 26,45 57,65 37,51 -4,131 -4,126 47,100 -31,71 -29,101 -76,147 -9,111 37,116 124,135 144,100 124,120 51,44 103,85 406,163 390,107 266,18 297,2 149,14 72,29 72,45 16,40 -46,11 -52,-20 -30,11 -31,25 -36,-15 -51,16 -41,-40 -72,-20 -66,16 -62,21 -71,6 -57,-10 -35,16 26,65 51,35 103,19 169,8 97,5 72,-6 66,4 87,-31 46,-10 26,4 15,41 36,-1 10,-55 51,-51 25,-36 56,-15 36,-31 -21,-35 40,-66 127,-82 245,-108 62,9 188,-72 52,25 20,35 71,-92 77,-11 41,15 36,20 36,-46 35,-10 51,-6 102,-51 112,-37 271,-98 91,-56 123,-62 50,-71 71,-82 41,-50 -2,-137 -16,-116 9,-156 -32,-136 -16,-80 -16,-66 -1,-40 5,-46 -6,-35 16,-25 50,-66 -21,-25 -30,-20 -31,5 -36,6 -31,-15 -25,-20 -11,-35 10,-16 15,-10 31,-5 36,-6 31,35 51,-10 -6,-41 -5,-50 56,-36 -52,-35 -45,36 -67,11 -41,0 -15,-10 -31,-35 -21,-30 -16,-40 -20,-15 -6,-40 -10,-20 -21,-20 -31,-10 -46,-10 -56,31 -71,72 -10,10 16,95 1,61 0,76 -35,30 16,96 26,45 11,30 -10,41 -46,5 -31,-30 -21,-40 -11,-60 -1,-81 0,-96 -12,-91 -5,-50 -11,-131 -6,-55 -6,-81 -1,-106 4,-121 -1,-91 -6,-86 -11,-95 -16,-111 -17,-101 -41,-90 -42,-121 -62,-80 -68,-70 -72,-50 -72,-35 -72,-49 -46,-25 -77,-25 -62,-14 -71,-4 -61,20 -72,41 -45,46 -30,66 -46,56 -25,15 -10,16 -11,20 32,45 20,25 51,-5 57,-16 76,-56 46,-6 -10,56 -91,76 -92,16 -67,-4 -83,-95 -52,-85 -31,-71 -31,-35 -31,-45 -31,-25 -31,-30 -15,-25 20,-25 -6,-25 -25,-5 -51,41 -26,-15 5,-41 10,-45 30,-46 76,-46 72,-26 128,-16 87,-6 102,4 123,-1 271,73 221,73 170,84 149,95 119,105 98,110 103,135 115,190 125,221 130,256 99,216 42,131 94,216 69,241 54,227 68,196 37,120 27,146 16,91 -15,46 -36,5 -10,-30 -22,-141 -21,-101 -11,-30 -36,-10 -26,-25 -30,16 -31,15 -35,61 21,81 16,70 -20,51 -35,25 -10,10 -46,56 -60,127 5,61 41,-21 66,-71 107,-107 15,40 26,70 31,0 41,-66 87,4 -5,46 21,30 11,161 12,186 23,268 28,231 7,197 -14,192 -44,172 -45,91 -81,127 -31,-51 65,-177 55,-81 5,-96 4,-96 10,-45 -1,-35 21,-26 -1,-65 -22,-141 -17,-162 -17,-176 -10,-20 -16,-45 -21,-86 -32,-95 -41,15 -30,51 -25,25 -47,-55 -51,-19 -26,20 16,35 57,65 11,51 -61,41 15,35 -15,25 11,91 -15,20 -87,1 -61,31 -30,91 -25,71 11,60 16,30 66,-41 25,-20 46,-6 11,20 -41,56 1,41 41,24 20,15 46,0 41,-31 36,-20 56,29 6,51 1,106 42,130 -30,102 -85,162 -57,-30 61,-106 -16,-36 -81,47 -57,20 -51,-14 36,40 -25,50 -31,-19 -31,-15 -56,-55 -88,-50 -97,21 -133,32 -143,22 -92,36 -71,-10 -123,17 -138,41 -168,52 -148,67 -164,-23 -133,31 -77,6 -46,16 -30,-10 -46,61 -66,31 -204,102 -153,113 -9,76 -61,51 -26,5 -25,-25 -11,-86 14,-86 36,10 36,0 15,-31 61,-20 56,-26 -5,-61 -124,-64 -92,-4 -51,61 26,45 -10,35 -30,1 -41,-25 -108,11 -102,82 -71,10 -15,11 -109,-90 -107,-14 -107,31 -46,86 -70,112 -113,61 -92,16 -5,-25 35,-51 11,-20 -16,-65 -16,-15 0,-41 -6,-30 -5,-45 -31,-40 -57,-5 -35,36 -25,46 -87,66 -71,66 1,96 -20,40 -35,61 -96,157 -87,21 42,101 -66,106 -76,77 -51,46 -71,41 -26,15 -50,26 -82,0 -21,6 -25,0 -57,10 -15,-25 56,-56 -6,-50 -37,-176 -36,-25 -36,41 -34,186 1,86 0,15 -92,-9 -87,31 -143,22 -36,0 -11,-20 -10,-71 9,-80 -31,-46 -15,6 -25,55 -5,66 -4,116 -61,21 -72,5 -72,-24 -153,77 -127,122 -60,91 -31,41 -46,-35 -52,-25 -36,-40 -56,6 -35,55 -26,-14 -21,-66 46,-56 142,-82 46,-35 25,-76 25,-111 19,-96 86,-92 -10,-50 -21,-40 -21,-71 -1,-50 15,-106 -37,-60 10,-31 16,-25 29,-101 10,-40 -41,-106 -26,-50 4,-61 173,-82 15,-35 -41,-30 -51,-15 -61,16 -52,-35 -31,-40 25,-31 62,-15 118,14 56,-21 35,-41 -36,-50 -26,-90 -52,-30 -51,21 -25,45 -36,36 -92,21 -15,-15 5,-61 101,-101 143,-52 66,-26 -27,-151 5,-56 -61,51 -36,-4 -36,-25 30,-56 56,-46 15,-40 56,-76 -5,-21 -11,-15 -25,6 -36,20 -46,20 -5,6 -61,21 -57,-15 -51,26 1,40 31,85 21,51 -5,50 -20,51 -71,86 -50,66 -46,51 -41,-25 25,-30 41,-71 50,-76 46,-46 -6,-35 -61,-15 -21,-20 -20,-25 -21,-35 -16,-25 -25,-10 -51,21 -62,15 -72,-39 -56,-25 -11,-25 15,-71 15,-46 -21,-14 -20,15 -15,20 -36,21 -61,35 -30,11 36,65 21,30 -16,25 -35,-19 -83,-60 -10,25 42,65 41,40 41,66 36,24 31,40 6,31 -46,25 -61,-4 16,80 61,35 11,30 -15,26 21,70 -10,50 -31,-9 -41,-45 -47,-40 -46,-20 -41,-55 5,-20 61,9 -10,-20 -62,-70 -46,-15 -98,-95 -26,31 52,125 22,121 26,45 16,46 36,60 -31,20 -72,-59 -46,15 32,111 6,151 -50,61 0,55 -46,21 -20,-15 -26,-45 -37,-55 -61,-10 -87,11 -67,-50 -103,-19 -35,35 -51,46 108,85 72,15 67,80 1,45 -26,35 -61,21 -46,-40 -16,-40 -51,11 -10,35 -30,20 -41,21 -41,-5 -57,-19 -25,-10 -52,-25 -51,-15 -61,36 11,61 102,49 16,81 16,75 6,81 -4,65 -30,122 -15,-5 -32,-40 -26,-81 -31,-90 -16,-71 -37,-75 -6,-91 -51,-60 -82,1 -87,16 -52,-106 -1,-65 -31,-76 -21,-50 -6,-75 -11,-121 -71,111 -14,106 -10,96 17,91 62,135 109,151 22,151 -82,10 -27,-90 -57,-121 -51,-19 -35,76 16,136 -35,76 -10,85 -25,16 -52,-50 -52,-96 -57,-75 -35,26 -15,50 -21,6 11,80 26,25 36,-10 36,15 21,50 103,155 -10,46 16,45 31,50 21,60 21,66 -15,10 -26,-10 -56,-10 -41,21 -25,71 -5,25 -25,20 11,46 -5,20 0,20 10,35 -30,46 -21,-10 -5,-61 -6,-60 -15,-20 -16,-25 -41,-25 -21,-45 5,-40 -31,-25 -41,35 -77,-60 -15,96 36,20 16,40 16,46 -15,30 -10,45 -10,36 5,40 -5,25 -30,11 -123,-24 -108,16 -40,65 -107,52 -10,55 -5,31 6,30 -10,60 -31,26 -20,-15 -21,-45 -11,-101 -62,-70 -67,-15 -128,-24 -57,-9 41,-41 51,-26 61,-5 52,14 25,-30 15,0 52,9 20,-10 0,-30 -21,-86 -27,-186 -6,-20 -31,-90 -36,-25 -57,-40 -36,-65 -6,-41 5,-60 15,-46 20,-96 9,-75 -16,-61 -25,-25 -21,31 -10,45 -19,121 -24,147 10,60 21,55 52,81 21,60 1,55 -10,81 16,60 -35,66 -88,-4 -56,-20 -37,-110 -41,10 -41,-45 -67,-85 -57,-5 -14,51 46,95 88,110 31,51 1,20 0,30 16,50 21,61 -21,40 -40,6 -31,-20 -36,10 -56,41 -36,10 -5,-55 -17,-197 -89,-846 -47,-55 -26,-45 -10,-35 -6,-46 5,-45 5,-36 5,-35 10,-25 15,-25 15,-21 15,-30 0,-51 -11,-25 -5,-35 30,-131 -11,-81 -364,-93 4,-30 -164,-39 -26,-40 5,-15 66,-71 76,-82 92,-76 147,-173 101,-157 25,-51 10,-75 0,-46 19,-106 97,-91 121,-168 10,-70 -6,-91 0,-30 -26,30 -25,10 -26,-70 -26,-20 9,-116 -11,-101 -35,76 -10,76 -30,45 -20,46 5,30 32,76 5,95 -19,81 -41,61 -45,56 -25,86 -15,111 -15,56 -81,61 -71,56 -25,55 -46,107 -107,51 -76,51 -26,0 -21,-65 -10,-60 -16,5 -30,35 -10,51 -46,20 -25,-15 -16,-45 -42,-85 -36,10 -4,35 -285,-401 -191,-107 -283,-159 -66,-37 -10,-20 -16,-30 -10,-30 -11,-35 -26,-30 -26,-31 -15,-20 -11,-30 0,-106 -16,-40 -16,-50 5,-41 0,-35 25,-40 15,-26 15,-30 0,-25 -10,-25 -6,-21 -5,-20 5,-20 25,-76 15,-45 5,-41 -6,-40 -16,-76 -10,-60 -22,-101 -5,-55 10,-41 10,-30 -11,-50 -363,78 1,-569 5,-470 4,-378 -389,8 -593,25 -318,13 -184,8 -905,40 -1075,43 -10,-166 -717,-15 -480,-10 -216,-10 -55,-4 -221,-14 -650,5 -173,-9 -277,-13 -5,-1 -793,-4 -507,-7 -123,1 -337,-11 -817,-22 -92,0 -130,-2 -290,-6 -140,-3 -388,53 -96,59 -160,-6 -26,0 -19,-61 -252,-11 -333,-41 -228,-23 -411,8 7,52 -6,30 -20,31 -32,28 -44,212 -411,68 12,-205 12,-237 -690,-8 -338,-3 -240,-9 -330,-14 -264,-12 -64,-2 -28,-1 -23,0 -660,-38 -1216,-60 -52,-2 -214,-11 -164,-6 -10,-1 -261,-16 -1028,-15 -67,0 -31,-157 -48,-246 230,-874 372,-1273 201,-686 180,-613 143,-494 212,-747 24,-80 251,-881 119,-414 152,-525 204,-709 z" />
      <path
         id="1706"
         d="m 11526,-3064 30,5 26,15 46,25 16,30 -5,25 -41,21 -35,-10 -31,-25 -16,-15 -10,-25 -1,-30 21,-16 z" />
      <path
         id="1720"
         d="m 9802,985 -6,-36 10,-45 30,-51 46,-46 51,-20 31,10 5,25 -5,20 -20,31 -15,25 0,55 -10,16 -30,40 -46,11 -26,-10 -15,-25 z" />
      <path
         id="1721"
         d="m 10165,1032 10,-15 11,-5 20,5 26,30 0,25 -15,25 -20,21 -21,25 -10,30 1,26 -5,15 -16,10 -25,-5 -31,-15 -26,-10 -15,-15 -5,-25 25,-25 46,-31 35,-25 15,-41 z" />
      <path
         id="1735"
         d="m 18434,6888 10,0 10,5 16,20 10,20 6,41 0,30 -10,25 -20,0 -21,-10 -31,-19 -5,-21 20,-40 15,-51 z" />
      <path
         id="1738"
         d="m 18402,7358 -20,-5 -21,-20 -5,-20 10,-21 10,0 31,-10 20,-10 21,15 0,20 -5,45 -5,10 -15,6 -21,-10 z" />
      <path
         id="1745"
         d="m 17944,9248 5,-25 30,-41 61,-71 40,-71 25,-66 20,-96 4,-151 -11,-86 -11,-60 35,-21 61,-46 -15,-50 -6,-55 36,-26 30,-25 5,-26 -6,-40 5,-55 10,-31 5,-50 25,-21 46,25 6,20 5,25 -10,76 -14,51 -5,65 -29,157 -50,167 -72,490 -87,71 -66,6 -15,-5 -16,-5 -20,-15 -21,-15 z" />
      <path
         id="1747"
         d="m 14645,8478 5,-5 16,5 5,20 -5,35 11,35 10,36 -15,35 -15,15 -36,11 -25,-5 -16,-5 -10,-45 -6,-30 5,-26 0,-25 5,-20 31,-26 40,-5 z" />
      <path
         id="1748"
         d="m 11100,8722 72,19 6,71 103,140 -20,25 -21,-4 -35,5 -82,-4 -47,-35 -5,-26 29,-191 z" />
      <path
         id="1750"
         d="m 11644,10078 51,-36 30,-20 51,-26 46,-71 46,-35 56,-31 56,10 61,-31 112,-137 51,19 77,40 32,75 -209,179 -61,-5 -77,36 -61,31 -51,61 -56,20 -20,1 -46,15 26,55 0,61 -30,51 -61,25 -82,31 -45,51 -82,51 -87,-14 -26,-65 25,-81 20,-56 40,-41 56,-20 20,-56 26,-20 36,-6 15,0 61,-61 z" />
      <path
         id="1751"
         d="m 14089,11563 -62,21 -56,1 -77,5 -66,6 -77,-24 -102,6 -93,-5 -66,-9 -82,1 -205,6 -379,44 -271,23 -598,101 -87,51 -56,56 -45,51 -30,91 -25,116 -25,25 -31,1 -46,-15 -88,-55 -72,-49 -56,-30 -109,-115 -124,-165 -62,-96 20,-45 25,-21 51,-5 72,-6 46,-5 344,47 5,61 -66,15 -36,31 -20,56 31,55 36,4 31,-5 15,20 26,15 41,-21 5,-35 20,-55 -6,-86 -1,-76 0,-55 25,-46 50,-91 81,-117 41,-60 25,-71 30,-71 112,-46 55,-137 55,-147 61,-86 61,-61 61,-31 97,-51 35,-91 66,-56 159,-42 31,25 72,80 36,-25 -27,-81 -16,-70 117,-97 102,-16 37,55 -30,131 -4,116 5,30 -25,36 -15,56 -14,80 0,56 36,-6 40,-50 41,-81 51,-36 25,-41 -42,-95 30,-56 122,-92 46,5 37,106 31,45 16,30 16,50 11,65 -10,116 21,81 27,55 -36,5 -47,-24 -47,-106 -46,6 -4,121 47,14 5,41 11,60 72,30 71,-26 -21,-50 15,-16 47,35 118,75 113,29 1,66 -26,40 -15,30 -4,41 41,85 22,86 -10,50 16,76 26,30 20,20 26,14 169,29 6,40 z" />
      <path
         id="1752"
         d="m 11017,10426 26,-20 35,0 62,-1 56,10 67,14 26,45 -10,46 -46,36 -71,10 -31,-4 -46,-10 -52,-50 -16,-76 z" />
      <path
         id="1753"
         d="m 10539,10794 -26,-25 -11,-71 20,-35 41,-6 113,9 71,-36 72,-56 101,-81 16,15 5,45 -4,66 21,40 -15,45 -36,46 -76,26 -98,11 -92,-4 -46,0 -56,11 z" />
      <path
         id="1754"
         d="m 10135,10888 -5,-20 10,-36 35,-20 67,-36 51,-31 50,-61 21,20 -25,31 -5,25 61,10 36,9 -25,26 -31,10 -30,41 -51,40 -123,32 -36,-40 z" />
      <path
         id="1755"
         d="m 14237,11562 -51,-4 -16,-41 51,0 -72,-110 -154,-24 -51,-25 -27,-55 -11,-96 -41,-75 5,-10 15,0 82,44 36,-5 41,-26 30,-40 67,-56 50,-31 31,-41 30,-15 26,0 5,5 -35,25 -31,51 -30,36 0,45 36,45 62,20 31,-1 20,-20 9,-162 -6,-80 -31,-20 -15,-20 15,-35 -16,-20 -15,-36 -21,-9 -51,30 -30,61 0,50 6,46 -5,20 -15,5 -11,-10 -16,-55 0,-56 20,-50 30,-41 56,-36 67,-15 31,15 20,45 22,115 6,96 -23,348 17,121 -5,35 -5,10 -20,31 -77,1 -36,20 z" />
      <path
         id="1756"
         d="m 16343,12324 21,-11 36,0 20,-10 36,-16 36,-5 10,-10 0,-15 5,-16 -26,-35 -52,-29 -41,-45 5,-26 20,-10 41,-10 82,-1 62,4 102,-1 82,5 128,-2 61,-20 87,4 67,-6 66,-5 56,-16 21,25 26,40 21,35 11,35 10,20 10,15 21,10 21,20 25,5 71,-46 41,-66 40,-36 46,-15 52,-16 45,-21 36,-45 30,-31 21,-20 20,10 21,10 46,19 31,0 5,-15 -11,-30 -36,-60 5,-31 30,-10 31,-16 71,-20 66,-46 10,-56 -31,-55 -36,-60 -57,-30 -46,16 -46,35 -10,26 -4,65 -15,31 -26,25 -40,36 -26,30 -50,41 -82,71 -101,122 -56,26 -36,-20 -31,-35 35,-25 41,-26 56,-51 40,-51 66,-81 76,-101 36,-61 60,-86 40,-112 20,-86 -1,-116 -27,-70 -5,-5 -108,-85 -47,-75 5,-10 0,-15 10,-45 51,9 47,45 62,60 15,15 47,50 57,65 36,75 37,75 52,106 36,75 48,110 47,121 52,105 62,95 58,111 36,65 63,166 -4,85 -30,91 -36,56 -56,41 -81,31 -61,26 -36,26 -31,20 -107,31 -87,-4 -92,-19 -98,-19 -107,-9 -77,-10 -87,1 -118,6 -112,52 -82,-15 -108,-34 -82,-29 -62,-15 -87,-19 -88,-40 -77,-34 -61,-25 -72,-34 -108,-40 -52,-29 -41,-20 -11,-30 z" />
      <path
         id="1759"
         d="m 15483,11692 -6,-26 16,-20 30,-10 87,-16 26,0 20,4 93,20 -26,40 -30,26 -26,15 -30,-10 -16,26 16,40 -46,5 -98,-54 -10,-40 z" />
      <path
         id="1760"
         d="m 15797,11951 41,-31 77,10 56,-16 123,39 62,45 6,45 5,56 -25,50 -97,-19 -87,-14 -57,-50 -11,-40 -46,-30 -47,-45 z" />
      <path
         id="1762"
         d="m 11267,12708 -41,-10 -42,-35 -5,-25 10,-30 10,-11 82,-5 41,-26 35,-20 11,15 10,20 21,25 10,15 42,50 5,20 -10,20 -36,-5 -15,1 -26,-15 -61,15 -41,1 z" />
</g>

</svg>
