<?xml version="1.0" encoding="UTF-8" standalone="no"?>
<!-- Created with Inkscape (http://www.inkscape.org/) -->
<svg id="nv-stamp" xmlns:rdf="http://www.w3.org/1999/02/22-rdf-syntax-ns#" xmlns="http://www.w3.org/2000/svg" height="783" width="603" version="1.1" xmlns:cc="http://creativecommons.org/ns#" xmlns:dc="http://purl.org/dc/elements/1.1/" viewBox="0 0 607 783">
 <g id="border" transform="translate(1.5 -270.9)">
  <path d="m15 272.4a15 15 0 0 1 -15 15v30a15 15 0 0 1 15 15 15 15 0 0 1 -15 15v30a15 15 0 0 1 15 15 15 15 0 0 1 -15 15v30a15 15 0 0 1 15 15 15 15 0 0 1 -15 15v30a15 15 0 0 1 15 15 15 15 0 0 1 -15 15v30a15 15 0 0 1 15 15 15 15 0 0 1 -15 15v30a15 15 0 0 1 15 15 15 15 0 0 1 -15 15v30a15 15 0 0 1 15 15 15 15 0 0 1 -15 15v30a15 15 0 0 1 15 15 15 15 0 0 1 -15 15v30a15 15 0 0 1 4.012 0.5469 15 15 0 0 1 2.793 1.086 15 15 0 0 1 1.301 0.7461 15 15 0 0 1 3.367 2.957 15 15 0 0 1 2.857 5.23 15 15 0 0 1 0.6699 4.434 15 15 0 0 1 -0.0371 1.061 15 15 0 0 1 -0.1816 1.488 15 15 0 0 1 -1.414 4.256 15 15 0 0 1 -0.7461 1.301 15 15 0 0 1 -0.8711 1.219 15 15 0 0 1 -0.9902 1.127 15 15 0 0 1 -2.291 1.93 15 15 0 0 1 -1.277 0.7832 15 15 0 0 1 -5.693 1.762 15 15 0 0 1 -1.499 0.1v30a15 15 0 0 1 15 15 15 15 0 0 1 -15 15v30a15 15 0 0 1 15 15 15 15 0 0 1 -15 15v30a15 15 0 0 1 15 15 15 15 0 0 1 -15 15v30a15 15 0 0 1 0.006 0 15 15 0 0 1 15 15h30a15 15 0 0 1 15 -15 15 15 0 0 1 15 15h30a15 15 0 0 1 15 -15 15 15 0 0 1 15 15h30a15 15 0 0 1 15 -15 15 15 0 0 1 15 15h30a15 15 0 0 1 15 -15 15 15 0 0 1 15 15h30a15 15 0 0 1 15 -15 15 15 0 0 1 15 15h30a15 15 0 0 1 15 -15 15 15 0 0 1 15 15h30a15 15 0 0 1 15 -15 15 15 0 0 1 15 15h30a15 15 0 0 1 15 -15 15 15 0 0 1 15 15h30a15 15 0 0 1 15 -15 15 15 0 0 1 15 15h30a15 15 0 0 1 14.99 -15v-30a15 15 0 0 1 -15 -15 15 15 0 0 1 15 -15v-30a15 15 0 0 1 -15 -15 15 15 0 0 1 15 -15v-30a15 15 0 0 1 -15 -15 15 15 0 0 1 15 -15v-30a15 15 0 0 1 -1.061 -0.0371 15 15 0 0 1 -1.488 -0.1816 15 15 0 0 1 -5.557 -2.16 15 15 0 0 1 -1.219 -0.8711 15 15 0 0 1 -1.127 -0.9902 15 15 0 0 1 -1.93 -2.291 15 15 0 0 1 -0.7832 -1.277 15 15 0 0 1 -0.6524 -1.35 15 15 0 0 1 -0.8848 -2.861 15 15 0 0 1 -0.2246 -1.482 15 15 0 0 1 -0.0742 -1.498 15 15 0 0 1 0.0371 -1.061 15 15 0 0 1 0.5098 -2.951 15 15 0 0 1 0.4726 -1.424 15 15 0 0 1 1.359 -2.67 15 15 0 0 1 4.152 -4.275 15 15 0 0 1 2.627 -1.436 15 15 0 0 1 1.408 -0.5137 15 15 0 0 1 1.453 -0.3711 15 15 0 0 1 1.482 -0.2246 15 15 0 0 1 1.5 0.3v-30a15 15 0 0 1 -15 -15 15 15 0 0 1 15 -15v-30a15 15 0 0 1 -15 -15 15 15 0 0 1 15 -15v-30a15 15 0 0 1 -15 -15 15 15 0 0 1 15 -15v-30a15 15 0 0 1 -15 -15 15 15 0 0 1 15 -15v-30a15 15 0 0 1 -15 -15 15 15 0 0 1 15 -15v-30a15 15 0 0 1 -15 -15 15 15 0 0 1 15 -15v-30a15 15 0 0 1 -15 -15 15 15 0 0 1 15 -15v-30a15 15 0 0 1 -15 -15 15 15 0 0 1 15 -15v-30a15 15 0 0 1 -15 -15h-30a15 15 0 0 1 -15 15 15 15 0 0 1 -15 -15h-30a15 15 0 0 1 -15 15 15 15 0 0 1 -15 -15h-30a15 15 0 0 1 -15 15 15 15 0 0 1 -15 -15h-30a15 15 0 0 1 -15 15 15 15 0 0 1 -15 -15h-30a15 15 0 0 1 -15 15 15 15 0 0 1 -15 -15h-30a15 15 0 0 1 -15 15 15 15 0 0 1 -15 -15h-30a15 15 0 0 1 -15 15 15 15 0 0 1 -15 -15h-30a15 15 0 0 1 -15 15 15 15 0 0 1 -15 -15h-30a15 15 0 0 1 -15 15 15 15 0 0 1 -15 -15h-30z" stroke="#000" stroke-miterlimit="4.8" stroke-width="3" fill="none"/>
 </g>
 <g id="background" transform="translate(1.5,-218.5)">
  <rect height="650" width="470" y="285" x="65" fill="#1a267c"/>
 </g>
 <g id="content" transform="translate(1.5,-218.5)" fill="#fff">
  <g transform="matrix(0 1.001 -.9992 0 0 0)">
   <path style="" d="m300.8-80.29v-96.8h-18.47v-16.15h44.08l56.61 100.3v-84.18h-18.28v-16.15h52.99v16.15h-19.03v114.2h-20.05l-61.9-110.2v92.71h18.47v16.15h-52.9v-16.15h18.47z"/>
   <path style="" d="m519.9-104.6h-75.55q1.671 12.44 9.838 20.14 8.167 7.703 20.88 7.703 18.47 0 29.23-14.85l15.59 6.868q-7.61 11.79-19.77 17.54-12.16 5.661-25.43 5.661-20.6 0-35.27-12.81-14.57-12.9-14.57-34.71 0-20.7 14.2-34.06 14.29-13.36 32.76-13.36 18.1 0 32.76 13.09 14.76 12.99 15.31 38.79zm-18.2-12.8q-1.856-9.466-9.838-17.08-7.981-7.703-19.58-7.703-10.58 0-18.1 6.961-7.517 6.868-9.188 17.82h56.71z"/>
   <path style="" d="m564.9-62.66-29.33-75.64h-15.87v-15.68h45.2v15.68h-11.69l19.3 50.95 19.4-50.95h-12.44v-15.68h43.9v15.68h-13.83l-28.68 75.64h-15.96z"/>
   <path style="" d="m718.4-79.83v15.68h-30.81v-10.95q-12.81 12.44-28.58 12.44-12.25 0-21.35-7.981-9.002-7.981-9.002-20.42 0-12.53 9.559-20.79 9.652-8.26 23.2-8.26 12.62 0 24.41 7.61v-8.909q0-6.868-1.299-10.58t-6.125-6.682q-4.733-2.97-12.44-2.97-13.27 0-19.21 10.58l-16.89-4.455q11.23-20.97 38.79-20.97 10.12 0 17.45 2.784 7.425 2.691 11.04 7.053 3.619 4.269 4.826 9.281 1.299 5.012 1.299 15.96v41.58h15.13zm-32.58-17.73q-11.42-8.909-23.11-8.909-7.332 0-12.25 4.269-4.919 4.269-4.919 11.04 0 6.311 4.269 10.58 4.362 4.269 11.79 4.269 12.81 0 24.22-10.77v-10.49z"/>
   <path style="" d="m839.2-79.83v15.68h-33.78v-13.18q-13.18 14.66-32.11 14.66-17.54 0-30.81-11.97t-13.27-34.06q0-22.18 13.64-34.99t30.81-12.81q18.19 0 31.74 14.48v-35.55h-17.26v-15.68h34.9v113.4h16.15zm-91.14-29.33q0 14.85 8.353 22.83 8.445 7.981 20.14 7.981 11.32 0 20.05-8.353 8.817-8.445 8.817-23.29 0-14.94-9.002-22.55-8.909-7.61-20.05-7.61-11.97 0-20.14 9.002-8.167 8.909-8.167 22z"/>
   <path style="" d="m937.8-79.83v15.68h-30.81v-10.95q-12.81 12.44-28.58 12.44-12.25 0-21.35-7.981-9.002-7.981-9.002-20.42 0-12.53 9.559-20.79 9.652-8.26 23.2-8.26 12.62 0 24.41 7.61v-8.909q0-6.868-1.299-10.58t-6.125-6.682q-4.733-2.97-12.44-2.97-13.27 0-19.21 10.58l-16.89-4.455q11.23-20.97 38.79-20.97 10.12 0 17.45 2.784 7.425 2.691 11.04 7.053 3.619 4.269 4.826 9.281 1.299 5.012 1.299 15.96v41.58h15.13zm-32.58-17.73q-11.42-8.909-23.11-8.909-7.332 0-12.25 4.269-4.919 4.269-4.919 11.04 0 6.311 4.269 10.58 4.362 4.269 11.79 4.269 12.81 0 24.22-10.77v-10.49z"/>
  </g>
  <path d="m256.6 402 251.6 61.4-68.8 330.3-5.168 5.284-1.885 4.203-4.743-0.1757-2.74-3.859 0.6274-1.565-2.915-4.147-3.119 0.7115-4.469-2.809-6.179 1.683-3.616-0.2688 0.4572 4.161-1.712 4 2.115 5.916-2.108 0.5902-1.775 8.28 0.9066 1.817-0.424 1.737 0.5054 2.455-1.102 4.517-0.9128 2.232 1.612 8.984-0.7272 9.517-1.142 2.667-3.294 0.4234 1.836 2.534-2.438 3.455-187.4-286.1c16.9-55.03 29.84-115 47.06-168z" fill-rule="evenodd"/>
 </g>
</svg>
