<?xml version="1.0" encoding="UTF-8" standalone="no"?>
<svg
   xmlns:dc="http://purl.org/dc/elements/1.1/"
   xmlns:cc="http://creativecommons.org/ns#"
   xmlns:rdf="http://www.w3.org/1999/02/22-rdf-syntax-ns#"
   xmlns:svg="http://www.w3.org/2000/svg"
   xmlns="http://www.w3.org/2000/svg"
   xmlns:sodipodi="http://sodipodi.sourceforge.net/DTD/sodipodi-0.dtd"
   xmlns:inkscape="http://www.inkscape.org/namespaces/inkscape"
   version="1.1"
   width="5265.3003"
   height="7783.0015"
   viewBox="-25414 -27563 52653.004 77830.014"
   id="svg2"
   inkscape:version="0.48.0 r9654"
   sodipodi:docname="Blank Map of Nevada.svg">
  <metadata
     id="metadata34">
    <rdf:RDF>
      <cc:Work
         rdf:about="">
        <dc:format>image/svg+xml</dc:format>
        <dc:type
           rdf:resource="http://purl.org/dc/dcmitype/StillImage" />
      </cc:Work>
    </rdf:RDF>
  </metadata>
  <defs
     id="defs32" />
  <sodipodi:namedview
     pagecolor="#ffffff"
     bordercolor="#666666"
     borderopacity="1"
     objecttolerance="10"
     gridtolerance="10"
     guidetolerance="10"
     inkscape:pageopacity="0"
     inkscape:pageshadow="2"
     inkscape:window-width="1366"
     inkscape:window-height="716"
     id="namedview30"
     showgrid="false"
     fit-margin-top="0"
     fit-margin-left="0"
     fit-margin-right="0"
     fit-margin-bottom="0"
     inkscape:zoom="0.063926118"
     inkscape:cx="2632.6506"
     inkscape:cy="3891.5016"
     inkscape:window-x="-8"
     inkscape:window-y="-8"
     inkscape:window-maximized="1"
     inkscape:current-layer="svg2" />

    <g
       id="state_outline">
      <path
         id="Nevada"
         d="m 25078,-27563 8,221 0,17 4,150 7,178 11,312 19,495 11,312 6,151 24,656 17,474 6,166 7,187 17,468 6,162 18,495 6,166 4,135 1,32 4,130 5,105 4,51 0,26 5,135 1,37 5,166 5,161 3,100 4,77 2,84 2,52 2,129 1,32 8,140 1,32 6,166 5,162 3,114 2,67 3,94 2,42 3,114 0,32 4,145 1,27 6,161 6,162 6,186 5,131 6,162 6,171 6,161 5,161 7,177 5,141 3,118 3,48 2,129 2,38 5,161 6,166 1,103 5,74 1,87 3,54 4,108 3,58 3,128 2,44 6,156 7,171 6,166 4,142 3,117 3,49 0,103 3,69 6,161 7,161 2,77 7,230 5,162 45,1396 0,31 3,181 6,298 5,215 6,289 19,821 2,69 5,248 12,543 32,1393 60,2360 18,531 22,552 58,1516 30,851 53,1430 12,327 41,1116 34,1148 24,815 5,161 15,536 7,280 5,166 8,284 16,526 4,146 20,695 0,13 24,1080 8,357 17,737 4,166 0,74 1,12 22,475 15,327 30,629 7,150 10,206 0,15 16,479 10,307 2,70 17,498 14,403 27,830 5,135 6,197 127,3889 18,548 8,251 42,1303 1,24 19,1386 1,23 35,1261 0,17 19,697 5,166 13,498 7,237 1,17 14,395 10,245 7,171 15,409 17,483 9,241 187,5192 1,22 66,1721 9,207 7,166 1,34 37,1043 52,1458 27,744 9,275 89,2860 9,292 0,107 -52,13 -66,56 -5,6 -59,76 -20,48 -6,14 -4,12 -41,116 -53,110 -35,81 -53,75 -26,71 -21,85 -21,40 -58,31 -55,24 -40,27 -23,47 -4,52 34,32 28,33 14,25 -5,41 -21,35 -41,50 -41,107 -47,129 -21,91 -1,80 0,76 -21,45 -31,41 -18,19 -4,20 -13,36 -1,10 -31,20 -31,5 -56,-5 -44,4 -51,-7 -44,6 -18,3 -54,28 -36,31 -46,14 -74,34 -105,41 -97,25 -86,10 -63,-12 -48,-28 -112,-56 -82,-71 -16,-68 -9,-70 -25,-48 -40,-14 -58,-12 -41,-18 -30,-37 -46,-25 -37,-18 -45,7 -36,5 -46,-20 -26,-36 5,-44 32,-36 6,-7 35,-33 16,-51 -10,-50 -26,-45 -30,-36 -35,-49 -26,-47 -26,-35 -25,-25 -37,-14 -10,-3 -48,-23 -38,-26 -23,-40 -7,-12 -42,-62 -41,-32 -35,-30 -51,-51 -21,-51 -56,-55 -51,-25 -77,0 -58,-17 -72,-17 -70,10 -58,7 -59,49 -52,48 -7,5 -73,56 -5,5 -60,53 -46,-25 -41,-20 -41,-59 -35,-42 -40,-15 -36,-3 -45,28 -80,54 -98,61 -61,19 -57,8 -36,-28 -15,-35 0,-35 16,-31 31,-25 20,-25 6,-20 -24,-43 -32,-18 -31,-10 -41,5 -51,11 -26,24 -26,15 -36,0 -36,-20 -41,-30 -63,-17 -45,12 -66,14 -56,13 -72,9 -93,28 -77,55 -44,34 -7,7 -47,42 -40,32 -40,12 -33,-2 -36,-10 -15,-30 -12,-28 -29,-28 -36,0 -21,15 -37,19 -29,32 -52,19 -28,21 -39,34 -26,35 -20,20 -26,31 -6,7 -20,23 -42,27 -7,4 -43,24 -7,4 -40,21 -20,2 -43,-4 -34,-9 -41,20 -20,16 -27,9 -46,10 -43,12 -106,8 -72,22 -56,23 -57,40 -55,62 -33,38 -18,76 13,44 38,44 44,38 27,39 18,47 24,51 17,34 10,41 -22,31 -20,19 -5,30 5,48 15,23 38,14 32,13 27,34 31,25 8,29 -18,41 -29,37 -39,49 -49,36 -13,23 -10,19 -5,42 10,58 7,40 -2,46 -32,68 -1,25 -2,25 20,53 22,60 45,79 38,33 13,55 2,48 -4,73 -3,22 -1,18 27,34 43,23 43,38 68,49 30,62 11,39 -6,55 0,56 19,38 22,42 21,24 20,24 21,22 61,64 66,53 53,51 6,10 17,25 46,40 41,11 26,15 10,15 -5,23 -21,12 -24,7 -16,5 -27,8 -56,35 -52,20 -35,16 -9,10 -5,7 -8,12 -15,25 -26,15 -20,5 -11,2 -25,3 -30,15 -9,21 -3,25 17,33 14,27 10,15 14,23 27,38 15,25 5,30 -5,10 -14,26 -22,24 -11,21 1,28 -8,26 -14,41 -13,14 -13,9 -8,9 -16,24 -17,24 0,26 20,40 21,20 15,15 20,31 26,65 3,58 4,22 4,28 -2,43 3,58 7,43 19,35 17,31 10,24 -4,16 -9,35 -13,30 -1,36 9,20 12,35 10,45 -6,31 -5,30 -15,76 -26,60 -5,15 -14,39 -8,46 3,50 7,45 23,49 39,43 10,9 33,29 48,33 26,20 23,28 7,27 0,30 -4,16 -4,18 -7,22 -9,30 -7,25 -10,41 -9,36 -2,9 -10,61 15,90 17,35 18,35 37,27 38,39 22,34 20,37 5,25 6,32 29,34 36,20 26,17 25,23 20,50 5,16 8,24 -2,65 -11,57 -4,40 -19,26 -18,16 -12,10 -34,28 -7,4 -48,24 -25,17 -4,25 0,36 26,21 36,24 20,36 20,59 10,37 -6,30 -4,24 11,61 3,14 11,52 20,52 15,29 5,20 -5,25 -21,35 -16,24 -12,13 -10,11 -24,27 -26,31 -24,26 -6,9 -21,30 -9,41 -2,10 -5,110 6,22 3,13 12,35 13,41 3,10 19,60 19,59 26,99 30,64 19,36 73,129 5,7 77,131 258,500 7,21 65,183 8,23 36,111 50,91 5,13 26,72 2,9 20,71 7,31 11,49 20,52 -9,64 -7,57 -9,80 2,14 0,66 17,75 4,22 7,43 40,79 29,95 1,9 15,85 4,26 4,49 7,52 7,53 -4,38 9,42 11,54 14,46 6,44 1,16 3,45 2,31 -1,64 20,46 30,28 11,22 12,23 13,43 -3,52 18,69 15,65 -2,31 -1,15 -3,25 -4,36 1,10 2,50 2,30 -27,80 -9,46 -3,18 7,35 4,17 5,48 -6,33 -26,64 -5,11 -41,41 -56,19 -72,14 -92,10 -77,4 -56,13 -16,4 -44,10 -51,30 -49,30 -52,65 -25,41 4,35 25,50 21,14 34,22 58,26 31,14 22,9 10,4 18,8 25,8 36,28 11,9 22,23 43,33 37,40 19,43 12,58 -21,70 -10,18 -21,38 -41,24 -37,21 -9,7 -54,41 -43,48 -17,29 -26,71 -5,69 4,60 3,35 -1,32 -1,26 -1,23 9,42 5,20 17,61 -245,-230 -149,-140 -17,-16 -169,-161 -163,-152 -88,-81 -194,-175 -96,-100 -195,-181 -510,-481 -996,-931 -136,-125 -295,-274 -426,-398 -155,-145 -270,-248 -165,-155 -171,-161 -435,-408 -466,-430 -30,-31 -100,-93 -1793,-1670 -110,-104 -871,-807 -130,-124 -512,-471 -340,-320 -180,-171 -30,1 -341,-319 -1889,-1764 -208,-194 -311,-289 -371,-346 -514,-481 -122,-113 -377,-354 -226,-211 -376,-355 -26,-24 -527,-496 -474,-443 -109,-103 -722,-669 -1223,-1139 -126,-118 -308,-287 -137,-126 -185,-171 -549,-516 -24,-22 -162,-151 -267,-247 -748,-695 -474,-442 -27,-25 -316,-298 -95,-89 -290,-269 -362,-335 -126,-117 -24,-22 -211,-196 -1420,-1323 0,-12 -671,-630 -121,-109 -195,-186 -80,-72 -80,-73 -496,-465 -1378,-1288 -55,-52 -537,-497 -65,-62 -60,-57 -491,-460 -375,-347 -492,-460 -95,-88 -731,-683 -16,-1 -1020,-956 -619,-583 -291,-274 -214,-203 -250,-236 -657,-613 -902,-843 -604,-565 -322,-302 -284,-262 -373,-350 -286,-266 -388,-361 -544,-508 -952,-890 -491,-460 -105,-99 -349,-328 -245,-231 -452,-421 -298,-278 -71,-66 -332,-309 -225,-212 -1046,-981 -104,-97 -175,-164 -374,-347 -178,-167 -782,-732 -1010,-950 -44,-40 -811,-759 -21,-20 -210,-196 -176,-164 -93,-87 -66,-62 -521,-486 -214,-198 -213,-204 -122,-118 -77,-72 -298,-280 -22,-14 -274,-255 -32,-30 -177,-168 -467,-441 -107,-101 -36,-35 -264,-246 -422,-393 13,-746 8,-487 12,-599 2,-117 18,-493 4,-275 8,-428 0,-41 6,-145 10,-161 0,-11 2,-151 8,-171 16,-322 8,-186 6,-156 7,-146 14,-332 1,-15 8,-146 14,-488 9,-327 4,-151 19,-503 5,-121 6,-171 6,-167 19,-502 5,-142 6,-161 7,-166 4,-150 1,-16 8,-135 1,-16 8,-140 1,-26 5,-135 1,-32 9,-139 0,-22 8,-135 52,-1342 5,-118 6,-149 10,-173 6,-134 35,-714 7,-129 0,-32 6,-109 5,-168 10,-241 2,-44 11,-344 16,-502 11,-322 6,-161 6,-156 1,-32 6,-135 23,-538 4,-147 19,-690 20,-513 2,-55 6,-222 19,-735 3,-116 5,-222 13,-392 2,-86 5,-222 20,-796 20,-725 11,-463 3,-96 10,-342 3,-136 27,-977 32,-978 45,-1321 19,-492 6,-153 15,-452 23,-468 32,-967 108,-3199 13,-379 7,-252 26,-1019 34,-1068 2,-72 11,-251 5,-223 13,-500 1151,29 7,0 286,11 106,5 164,8 27,1 225,12 1072,42 642,29 411,19 11,0 20,-4 54,4 13,1 1141,21 269,5 1488,30 805,14 1161,37 1087,28 34,0 1499,13 1349,12 328,3 327,2 308,2 650,4 169,1 154,1 332,2 164,1 471,2 297,0 195,2 768,3 808,5 185,2 276,1 6,0 475,3 57,0 323,1 153,1 286,1 37,1 446,-1 233,1 217,1 116,0 742,7 944,2 461,-5 1666,-13 4,0 98,1 2523,5 707,0 50,-2 1546,3 349,-3 142,-1 22,-1 1631,-16 155,-2 117,1 946,4 304,1 70,-1 509,-6 110,-2 1188,-14 926,-13 1336,-21 164,-2 130,-2 366,-5 138,-1 164,-2 287,-4 890,-9 74,-1 44,-4 759,-26 752,-22 439,-16 144,-6 327,-22 143,-8 153,-12 21,-2 149,-9 122,-7 26,-1 179,-2 169,-2 465,-3 856,0 142,3 164,1 149,1 10,0 492,-9 1131,-28 163,-5 333,-9 466,-19 29,0 298,-8 164,-4 553,-15 914,-24 64,-1 z"
         inkscape:connector-curvature="0" />
    </g>

</svg>
