<?xml version="1.0" encoding="UTF-8" standalone="no"?>
<!-- Created with Inkscape (http://www.inkscape.org/) -->
<svg id="ny-stamp" xmlns:rdf="http://www.w3.org/1999/02/22-rdf-syntax-ns#" xmlns="http://www.w3.org/2000/svg" height="783" width="603" version="1.1" xmlns:cc="http://creativecommons.org/ns#" xmlns:dc="http://purl.org/dc/elements/1.1/" viewBox="0 0 603.00001 783">
 <g id="border" transform="translate(1.5 -270.9)">
  <path d="m15 272.4a15 15 0 0 1 -15 15v30a15 15 0 0 1 15 15 15 15 0 0 1 -15 15v30a15 15 0 0 1 15 15 15 15 0 0 1 -15 15v30a15 15 0 0 1 15 15 15 15 0 0 1 -15 15v30a15 15 0 0 1 15 15 15 15 0 0 1 -15 15v30a15 15 0 0 1 15 15 15 15 0 0 1 -15 15v30a15 15 0 0 1 15 15 15 15 0 0 1 -15 15v30a15 15 0 0 1 15 15 15 15 0 0 1 -15 15v30a15 15 0 0 1 15 15 15 15 0 0 1 -15 15v30a15 15 0 0 1 4.012 0.5469 15 15 0 0 1 2.793 1.086 15 15 0 0 1 1.301 0.7461 15 15 0 0 1 3.367 2.957 15 15 0 0 1 2.857 5.23 15 15 0 0 1 0.6699 4.434 15 15 0 0 1 -0.0371 1.061 15 15 0 0 1 -0.1816 1.488 15 15 0 0 1 -1.414 4.256 15 15 0 0 1 -0.7461 1.301 15 15 0 0 1 -0.8711 1.219 15 15 0 0 1 -0.9902 1.127 15 15 0 0 1 -2.291 1.93 15 15 0 0 1 -1.277 0.7832 15 15 0 0 1 -5.693 1.762 15 15 0 0 1 -1.499 0.1v30a15 15 0 0 1 15 15 15 15 0 0 1 -15 15v30a15 15 0 0 1 15 15 15 15 0 0 1 -15 15v30a15 15 0 0 1 15 15 15 15 0 0 1 -15 15v30a15 15 0 0 1 0.006 0 15 15 0 0 1 15 15h30a15 15 0 0 1 15 -15 15 15 0 0 1 15 15h30a15 15 0 0 1 15 -15 15 15 0 0 1 15 15h30a15 15 0 0 1 15 -15 15 15 0 0 1 15 15h30a15 15 0 0 1 15 -15 15 15 0 0 1 15 15h30a15 15 0 0 1 15 -15 15 15 0 0 1 15 15h30a15 15 0 0 1 15 -15 15 15 0 0 1 15 15h30a15 15 0 0 1 15 -15 15 15 0 0 1 15 15h30a15 15 0 0 1 15 -15 15 15 0 0 1 15 15h30a15 15 0 0 1 15 -15 15 15 0 0 1 15 15h30a15 15 0 0 1 14.99 -15v-30a15 15 0 0 1 -15 -15 15 15 0 0 1 15 -15v-30a15 15 0 0 1 -15 -15 15 15 0 0 1 15 -15v-30a15 15 0 0 1 -15 -15 15 15 0 0 1 15 -15v-30a15 15 0 0 1 -1.061 -0.0371 15 15 0 0 1 -1.488 -0.1816 15 15 0 0 1 -5.557 -2.16 15 15 0 0 1 -1.219 -0.8711 15 15 0 0 1 -1.127 -0.9902 15 15 0 0 1 -1.93 -2.291 15 15 0 0 1 -0.7832 -1.277 15 15 0 0 1 -0.6524 -1.35 15 15 0 0 1 -0.8848 -2.861 15 15 0 0 1 -0.2246 -1.482 15 15 0 0 1 -0.0742 -1.498 15 15 0 0 1 0.0371 -1.061 15 15 0 0 1 0.5098 -2.951 15 15 0 0 1 0.4726 -1.424 15 15 0 0 1 1.359 -2.67 15 15 0 0 1 4.152 -4.275 15 15 0 0 1 2.627 -1.436 15 15 0 0 1 1.408 -0.5137 15 15 0 0 1 1.453 -0.3711 15 15 0 0 1 1.482 -0.2246 15 15 0 0 1 1.5 0.3v-30a15 15 0 0 1 -15 -15 15 15 0 0 1 15 -15v-30a15 15 0 0 1 -15 -15 15 15 0 0 1 15 -15v-30a15 15 0 0 1 -15 -15 15 15 0 0 1 15 -15v-30a15 15 0 0 1 -15 -15 15 15 0 0 1 15 -15v-30a15 15 0 0 1 -15 -15 15 15 0 0 1 15 -15v-30a15 15 0 0 1 -15 -15 15 15 0 0 1 15 -15v-30a15 15 0 0 1 -15 -15 15 15 0 0 1 15 -15v-30a15 15 0 0 1 -15 -15 15 15 0 0 1 15 -15v-30a15 15 0 0 1 -15 -15h-30a15 15 0 0 1 -15 15 15 15 0 0 1 -15 -15h-30a15 15 0 0 1 -15 15 15 15 0 0 1 -15 -15h-30a15 15 0 0 1 -15 15 15 15 0 0 1 -15 -15h-30a15 15 0 0 1 -15 15 15 15 0 0 1 -15 -15h-30a15 15 0 0 1 -15 15 15 15 0 0 1 -15 -15h-30a15 15 0 0 1 -15 15 15 15 0 0 1 -15 -15h-30a15 15 0 0 1 -15 15 15 15 0 0 1 -15 -15h-30a15 15 0 0 1 -15 15 15 15 0 0 1 -15 -15h-30a15 15 0 0 1 -15 15 15 15 0 0 1 -15 -15h-30z" stroke="#000" stroke-miterlimit="4.8" stroke-width="3" fill="none"/>
 </g>
 <g id="background" transform="translate(1.5,-218.5)">
  <rect height="650" width="470" y="285" x="65" fill="#c83737"/>
 </g>
 <g id="content" transform="translate(1.5,-218.5)" fill="#fff">
  <g>
   <path style="" d="m79.89 799.6v-83.38h-15.91v-13.91h37.97l48.77 86.42v-72.51h-15.75v-13.91h45.65v13.91h-16.39v98.41h-17.27l-53.32-94.89v79.86h15.91v13.91h-45.57v-13.91h15.91z"/>
   <path style="" d="m268.6 778.6h-65.07q1.439 10.71 8.474 17.35 7.035 6.635 17.99 6.635 15.91 0 25.18-12.79l13.43 5.916q-6.555 10.15-17.03 15.11-10.47 4.877-21.9 4.877-17.75 0-30.38-11.03-12.55-11.11-12.55-29.9 0-17.83 12.23-29.34 12.31-11.51 28.22-11.51 15.59 0 28.22 11.27 12.71 11.19 13.19 33.42zm-15.67-11.03q-1.599-8.154-8.474-14.71-6.875-6.635-16.87-6.635-9.114 0-15.59 5.996-6.475 5.916-7.914 15.35h48.85z"/>
   <path style="" d="m301.3 814.7-20.71-65.15h-9.433v-13.51h32.62v13.51h-10.15l14.79 46.69 14.79-46.69h-8.474v-13.51h37.41v13.51h-8.474l14.79 46.69 14.87-46.69h-10.63v-13.51h34.94v13.51h-11.11l-20.79 65.15h-14.31l-17.75-55.96-18.07 55.96h-14.31z"/>
  </g>
  <path d="m330.5 552.5-244.1-51.13 6.618-19.5 26.01-12.28 16.38-3.97 8.527-9.134 8.549-2.234-6.529-23.11 3.494-12.54 40.62-2.775 40.46 19.14 17.44 0.6084 16.14 7.898 31.85-16.88 9.611 2.344 3.581-20.05-9.199-11.67 12.76 2.279-6.725-14.99 35.78-14.3 29.23-26.75 27.69-7.592 80.02 11.79-11.02 23.11 2.689 30.57-10.65 17.53 5.791 34.26-10.72 67.04-21.98 49.36-8.443 54.28 5.207 5.945-19.42 3.427 4.447 10.2-9.851 9.524 26.64-5.271 34.84 4.97 27.12-11.45-7.03 11.28 32.57 0.1752-77.54 20-66.96-0.676 11.07-9.307 13.13-20.85-42.68-38.34-15.88-12.87 6.055-23.37-13.43-5.533z" fill-rule="evenodd"/>
  <g>
   <path style="" d="m244.2 921.4v-36.69l-33.1-46.69h-13.59v-13.91h45.73v13.91h-13.99l24.54 34.3 22.38-34.3h-13.99v-13.91h44.37v13.91h-14.71l-30.86 46.69v36.69h15.19v13.91h-46.93v-13.91h14.95z"/>
   <path style="" d="m291.9 896.6q0-17.91 11.83-29.34 11.83-11.51 28.86-11.51 16.71 0 28.7 11.35 11.99 11.27 11.99 29.5t-11.99 29.58q-11.91 11.35-28.7 11.35-17.27 0-29.02-11.51-11.67-11.51-11.67-29.42zm16.07 0q0 11.43 7.115 18.79 7.195 7.275 17.51 7.275 10.47 0 17.51-7.355 7.115-7.435 7.115-18.71 0-11.35-7.195-18.71-7.195-7.355-17.43-7.355-10.71 0-17.67 7.515-6.955 7.515-6.955 18.55z"/>
   <path style="" d="m398.7 921.8v-50.36h-15.59v-13.51h27.74v17.43q2.558-6.795 7.115-11.27 4.557-4.477 9.593-5.916 5.116-1.439 13.91-1.439h3.997v15.35h-3.038q-11.59 0-17.35 2.318-5.676 2.318-8.474 8.474-2.718 6.076-2.718 21.9v17.03h16.87v13.51h-47.65v-13.51h15.59z"/>
   <path style="" d="m462.4 921.8v-84.18h-13.91v-13.51h29.1v69.47l28.94-23.1h-12.87v-12.55h42.77v12.55h-11.83l-29.02 24.14 27.26 27.18h13.59v13.51h-19.91l-38.93-38.93v25.42h13.35v13.51h-42.45v-13.51h13.91z"/>
  </g>
 </g>
</svg>
