<?xml version="1.0" encoding="utf-8"?>
<!-- Generator: Adobe Illustrator 11.0, SVG Export Plug-In . SVG Version: 6.0.0 Build 78)  -->
<!DOCTYPE svg PUBLIC "-//W3C//DTD SVG 1.0//EN"    "http://www.w3.org/TR/2001/REC-SVG-20010904/DTD/svg10.dtd" 
	<!ENTITY ns_flows "http://ns.adobe.com/Flows/1.0/">
	<!ENTITY ns_svg "http://www.w3.org/2000/svg">
	<!ENTITY ns_xlink "http://www.w3.org/1999/xlink">

<svg
	xmlns="&ns_svg;"
	xmlns:xlink="&ns_xlink;"
	xmlns:a="http://ns.adobe.com/AdobeSVGViewerExtensions/3.0/"
	width="633.475098"
	height="475.573242"
	viewBox="0 0 633.475098 475.573242">

		<g id="Layer_2_1_">
			<path id="New_York_State" d="M480.105957,434.197266l-0.007813-0.094727l-0.007813-0.0625l-0.080078-0.074219l-0.18457-0.083008
				l-0.135742,0.09375l-0.040039,0.304688l-0.191406,0.041992l-0.008789,0.209961l0.352539,0.304688l0.311523-0.083984
				l0.056641-0.105469l-0.064453-0.251953v-0.136719V434.197266z M610.333496,412.457031l1.494141-0.076172l1.132813,0.450195
				l0.259766,0.251953l0.480469,1.117188l-0.003906,2.201172l0.118164,0.09082l0.699219-0.449219l0.047852-0.388672
				l0.102539-0.822266l0.080078-0.643555l0.234375-1.887695l-0.236328-0.774414l-0.006836-0.022461l-1.265625-0.532227
				l-0.214844-0.089844l-1.069336-0.450195l-0.849609-0.357422l-0.131836,0.736328l-0.310547,0.392578l-0.680664,0.373047
				l-0.175781,0.317383l0.081055,0.361328L610.333496,412.457031z M621.234863,395.617188l0.040039-0.003906l0.100586-0.060547
				l0.351563-0.213867l0.166992-0.102539l1.263672-0.897461l1.306641-0.626953l1.305664-0.55957l0.881836-0.449219
				l0.675781-1.001953l-1.34082,0.362305l-0.744141,0.165039l-0.807617,0.1875l-0.560547,0.129883l-0.807617,0.1875
				l-0.883789-0.109375l-0.161133,0.105469l-1.099609,0.719727l-0.198242-0.013672l-0.753906-0.052734l-0.012695-0.000977
				l-0.351563,0.321289l-0.007813,0.006836l-0.02832,0.047852l-0.188477,0.326172l-0.263672,0.456055l-0.442383,0.800781
				l-0.150391,0.594727l2.701172-0.316406L621.234863,395.617188z M632.872559,414.44043l-0.558594-0.352539l-0.40625,0.196289
				l-1.371094-0.058594l-0.063477-0.00293l-0.164063-0.007813l-0.094727-0.03418l-0.381836-0.141602l-0.214844-0.259766
				l-0.085938-0.103516l-1.610352,0.03418l-0.683594,0.147461l-0.458008,0.098633l-0.272461,0.058594l-0.094727,0.021484
				l-0.469727,0.177734l-0.661133,0.250977l-0.577148,0.219727l-0.157227,0.756836l0.001953,0.008789l0.006836,0.03125
				l0.087891,0.395508l-0.057617,0.587891l-0.110352,0.158203l-0.367188,0.525391l-1.036133,0.341797l-1.541016,0.508789
				l-0.625,0.588867l-0.635742,0.599609l-1.662109,0.796875l-0.882813-0.178711l-0.051758-0.010742l-0.280273,0.169922
				l-0.076172,0.045898l0.030273,0.5l0.161133,0.634766l-0.164063,0.342773l-0.288086,0.125977l-0.151367,0.036133
				l-0.068359,0.010742l-0.28125-0.488281l-1.177734,0.036133l-0.243164,0.279297l-0.058594,0.31543l-0.240234,0.710938
				l-0.006836,0.021484l-0.026367,0.014648l-0.920898,0.496094l-0.046875,0.025391l-0.021484-0.000977l-0.514648-0.015625
				l-0.328125-0.162109l-0.219727-0.108398l-0.588867-0.599609l-0.503906-0.757813l-1.047852-1.577148l-0.101563-0.151367
				l-0.029297-0.044922l0.180664-0.775391l-0.172852-0.881836l-0.380859-0.367188l-0.635742-0.614258l-0.24707-0.239258
				l-0.050781-0.047852l-0.009766-0.009766l-0.521484-0.206055l-0.201172,0.066406l-0.313477,0.241211l-0.069336,0.053711
				l-0.576172,0.444336l-0.369141,0.80957l-0.006836,0.006836l-0.001953,0.001953l-0.003906,0.003906l-0.289063,0.283203
				l-0.321289,0.175781l-0.023438,0.012695l-0.001953,0.000977l-0.237305,0.129883l-0.850586,0.030273l-0.052734,0.001953
				l-0.015625-0.010742l-0.332031-0.232422l-0.902344-0.632813l-0.950195-0.392578l-0.951172-0.043945l-1.541016,0.28418
				l-0.381836-0.360352l-0.669922-0.633789l-0.75-1.704102l-0.004883-0.011719l0.060547-0.110352l0.1875-0.341797l0.262695-0.476563
				L599.063965,413.75l-0.021484-0.02832h-0.009766l-0.056641-0.00293l-1.265625-0.061523l-0.055664-0.00293l-0.008789-0.003906
				l-0.371094-0.19043l-0.696289-0.356445l-0.006836-0.00293l-0.478516-0.245117l-0.019531-0.027344l-0.222656-0.295898
				l-1.1875-1.586914l-0.005859-0.007813l-0.000977-0.251953v-0.005859l-0.004883-0.904297l-0.001953-0.240234l0.643555-1.161133
				l0.047852-0.086914l0.679688-0.522461l0.207031-0.070313l0.225586-0.077148l0.46582,0.067383l0.041992,0.005859
				l0.142578,0.170898l0.362305,0.433594l0.00293,0.00293l-0.016602,1.233398l-0.010742,0.84375l0.004883-0.00293l0.039063-0.023438
				l0.736328-0.444336l0.030273-0.018555l0.493164-0.296875l0.277344-0.167969l0.150391-0.089844l1.088867-0.657227
				l0.005859-0.005859l0.918945-0.90332l1.266602-2.026367l-0.00293-0.027344l-0.035156-0.292969l-0.571289-0.181641
				l-1.174805,0.479492l-0.644531,0.262695l-0.392578-0.09082l-0.291992-0.246094l-0.170898-0.143555l-0.879883,0.266602
				l-0.106445,0.033203l-0.064453,0.041016l-0.786133,0.501953l-0.600586,0.382813l-0.552734,0.353516l-0.351563,0.223633
				l-0.145508,0.09375l-0.874023,0.276367l-0.003906,0.000977l-1.792969,0.454102l-0.026367,0.005859l-0.030273,0.037109
				l-0.435547,0.521484l-0.742188,0.889648l-1.320313,1.580078l-0.589844,0.706055l-0.154297,0.185547l-1.484375,0.776367
				l-0.191406,0.100586l-1.375,0.12207l-0.808594,0.071289l-0.467773,0.753906l-0.775391,1.251953l-1.118164,1.313477
				l-0.204102,0.240234l-0.856445,0.370117l-1.282227,0.553711l-0.777344,0.335938l-0.368164,0.15918l-0.205078,0.088867
				l-0.042969,0.017578l-0.006836,0.003906l-2.264648,1.869141l-0.889648,0.461914l-0.341797,0.600586l-0.012695,0.023438
				l-0.05957,0.046875l-1.526367,1.198242l-0.007813,0.006836h-0.005859l-0.574219,0.106445l-3.423828,0.633789l-2.320313,0.3125
				l-0.050781,0.005859l-1.946289-0.239258l-1.944336,0.425781l-0.0625,0.013672l-0.013672,0.003906l-3.257813,0.961914
				l-0.376953,0.111328l-1.125,1.052734l-0.422852-0.048828l-0.011719-0.000977l-0.595703-0.067383l-0.024414-0.00293
				l-1.895508-0.214844l-1.207031-0.135742l-0.039063,0.005859l-0.28125,0.040039l-2.381836,0.34375l-0.316406,0.044922
				l-0.060547,0.008789l-0.094727,0.013672l-0.235352,0.03418l-1.044922,0.151367l-0.18457,0.026367l-0.336914,0.047852
				l-0.234375,0.005859l-0.9375,0.024414l-0.874023,0.022461l-0.363281-0.042969l-0.515625-0.05957l-1.026367-0.120117
				l-0.669922-0.078125l-0.731445-0.085938l-1.567383-0.017578l-0.133789-0.001953l-0.661133-0.006836l-0.899414-0.010742
				l-1.142578,0.067383l-0.851563,0.050781l-1.108398,0.064453l-0.458008,0.027344l-0.144531,0.134766l-0.020508,0.018555
				l-0.091797,0.084961l-0.003906,0.004883l-0.088867-0.033203l-1.054688-0.397461l-0.720703-0.272461l-0.407227-0.15332
				l-0.211914-0.079102l-0.118164-0.044922l-0.40332-0.151367l-0.025391-0.009766l-0.841797,0.042969l-0.243164,0.012695
				l-1.212891,0.061523h-0.004883l-0.393555,0.098633l-0.041992,0.009766l-0.003906,0.000977l-0.188477,0.046875l-1.334961,0.332031
				l-0.150391,0.037109l-0.057617,0.014648l-0.03125,0.006836l-0.027344,0.007813l-0.161133,0.040039l-0.042969,0.009766
				l-0.073242,0.253906l-0.057617,0.203125l-0.180664,0.628906l-0.066406,1.160156l-0.058594,1.020508l-0.193359,0.566406
				l-0.027344,0.082031l-0.12207,0.046875l-5.852539,2.275391l-0.272461,0.106445l-0.175781,0.067383l-0.026367-0.009766
				l-0.015625-0.005859l-0.12207-0.046875l-5.097656-1.97168l-0.476563-0.087891l-0.802734-0.147461l-0.90918-0.167969
				l-0.34668-0.063477l-0.369141-0.068359l-1.024414,0.241211l-0.111328,0.209961l-0.244141-0.0625l-0.267578-0.068359
				l-0.064453-0.015625l-1.055664-0.525391l-0.680664-0.619141l-1.47168-1.858398l-0.148438,0.00293h-0.052734l-0.192383,0.003906
				l-0.15918,0.00293l-0.087891,0.125977l-0.141602,0.848633l-0.066406,0.390625l0.040039,1.794922l-0.249023,0.510742
				l-1.552734-0.113281l-0.267578-0.019531l-0.037109-0.395508l-0.044922-0.475586L506.539551,429l-0.65918-0.089844
				l-0.570313-0.077148l-0.173828-0.023438l-0.490234-0.067383l-0.270508-0.036133l-1.172852-0.483398l-0.55957-0.429688
				l-0.512695,0.451172l-0.389648,1.955078l-0.263672,0.557617l-1.205078,0.560547l-0.34082-0.154297l-0.533203,0.135742
				l-0.320313,0.082031l-0.126953,0.032227l-1.376953,0.310547l-0.764648-0.393555l-0.630859-0.325195l-0.708008,0.212891
				l-0.705078,0.297852l-0.628906,0.264648l-0.277344,0.117188l-0.536133,0.472656l-1.255859,0.514648l-0.277344-0.057617
				l-0.474609-0.099609l-0.544922,0.125977l-0.228516,0.230469l-0.355469,0.357422l-0.708984,1.007813l-0.354492,0.503906
				l-0.120117,1.501953l-1.105469,0.507813L487.816895,437l-0.165039,0.075195l-0.188477,0.086914l-0.037109,0.017578
				l-3.047852-1.375977l-1.272461,0.37793l-0.087891,0.115234l0.141602,0.399414l0.178711,0.503906l-0.12793,0.40918
				l-0.69043,0.90332l-0.77832,1.020508l-0.116211,0.151367l-0.015625,0.020508l-0.442383,0.578125l-0.047852,0.063477
				l0.009766,0.182617l0.011719,0.262695l0.008789,0.172852l-0.117188,0.216797l-0.196289,0.363281l-0.489258,0.907227
				l-0.333984,0.619141l-0.004883,0.008789l-0.618164,0.580078l-0.427734,0.039063l-0.362305-0.617188l-0.870117-1.481445
				l-0.038086-0.0625l-0.006836-0.011719l-0.025391-0.013672l-0.019531-0.010742l-0.109375-0.058594l-0.322266-0.173828
				l-0.039063-0.020508l-0.058594-0.032227l-0.057617-0.069336l-0.193359-0.235352l-0.191406-0.232422l-0.09668-0.116211
				l-0.050781-0.0625l-0.00293-0.006836l-0.236328-0.53418l-0.026367-0.058594l-0.008789-0.134766l-0.005859-0.083008
				l-0.014648-0.208008l0.015625-0.085938l0.053711-0.297852l0.004883-0.022461l0.070313-0.389648l0.076172-0.422852
				l0.319336-0.196289l0.15332-0.09375l0.532227,0.139648l0.044922,0.011719l0.011719,0.00293l0.038086-0.089844l0.145508-0.347656
				l0.075195-0.095703l0.202148-0.259766l0.018555-0.003906l0.101563-0.021484h0.00293l0.21875,0.464844l-0.083984,0.348633
				l-0.03418,0.142578l-0.003906,0.017578l0.126953,0.266602l0.098633,0.207031l0.136719,0.257813l0.088867,0.166016
				l0.123047,0.126953l0.095703-0.079102l0.006836-0.005859l0.108398-0.132813l0.001953-0.001953l-0.001953-0.003906
				l-0.082031-0.360352l0.000977-0.023438l0.011719-0.213867l-0.00293-0.119141l-0.003906-0.168945l-0.15332-0.34668
				l-0.052734-0.119141l-0.257813-0.238281l-0.006836-0.006836l-0.058594-0.457031l0.045898-0.192383l0.217773-0.919922
				l0.055664-0.992188l0.100586-0.263672l0.033203-0.085938l0.070313-0.185547l0.072266-0.191406l0.142578-0.206055
				l0.081055-0.117188l0.001953-0.00293l0.066406-0.095703l0.983398-1.428711l0.359375-0.521484l0.331055-0.478516l0.142578-0.09375
				l0.013672-0.008789l0.011719-0.006836l0.128906-0.084961l0.292969-0.19043l0.072266-0.046875l0.091797-0.05957l0.024414-0.016602
				l0.038086-0.024414l0.073242-0.047852l0.003906-0.001953l0.037109-0.024414l0.049805-0.032227l0.079102-0.051758
				l0.601563-0.391602l0.338867-0.220703l0.802734-0.739258l0.65918-0.274414l0.113281-0.047852l0.730469-0.304688
				l0.398438-0.166992l0.919922-0.587891l0.255859-0.398438l0.170898-0.594727l0.00293-0.011719l0.135742-0.470703l0.106445-0.37207
				l0.418945-0.177734l0.476563-0.202148l0.192383-0.082031l0.192383,0.104492l0.167969-0.230469l0.319336-1.175781
				l-0.036133-0.199219l-0.072266-0.386719l-0.022461-0.03418l-0.164063-0.25293l0.071289-0.586914l-0.005859-0.086914
				l-0.000977-0.008789l-0.008789-0.114258l-0.032227-0.419922l0.125977-0.357422l0.006836-0.017578l0.171875-0.486328
				l0.071289-0.419922l-0.027344-0.056641l-0.02832-0.058594l-0.289063-0.399414l-0.125-0.173828l-0.169922-0.235352
				l-0.302734-0.488281l-0.321289-0.519531l-0.03125-0.049805l-0.356445-0.577148l-0.37207-0.601563l-0.144531-0.234375
				l-0.09082-0.146484l-0.34082-0.553711l-0.568359-0.902344l-0.958008-1.576172l-0.661133-1.085938l-0.188477-0.30957
				l-0.456055-0.630859l-0.416016-0.745117l2.544922-1.546875l1.047852-0.636719l1.03125-0.626953l0.744141-0.452148
				l1.679688-1.021484l0.601563-0.359375l1.420898-0.839844l3.956055-2.335938l2.306641-1.400391l1.71875-1.042969l0.150391-0.09082
				l0.260742-0.158203l2.141602-1.254883l-0.8125-1.314453l-0.509766-0.825195l-1.53125-2.475586l-0.546875-0.852539
				l-0.082031-0.12793l-0.771484-1.203125l-0.980469-1.529297l-0.058594-0.091797l-0.166992-0.259766l0.086914-0.680664
				l0.013672-0.106445l0.0625-0.491211l-0.011719-0.194336l-0.040039-0.678711v-0.001953l0.047852-1.088867l0.077148-0.952148
				l0.262695-3.255859l0.103516-1.075195l0.079102-1.345703l0.004883-0.083984l0.097656-1.655273l0.279297-2.930664
				l0.016602-0.208008l0.039063-0.545898l0.073242-1.075195l0.005859-0.181641l0.007813-0.228516l0.001953-0.049805
				l0.007813-0.152344l0.111328-1.966797l0.007813-0.052734v-0.053711l0.009766-0.121094l0.006836-0.087891l0.000977-0.007813
				l0.007813-0.076172l0.130859-2.103516l0.180664-2.883789l0.696289-9.37207l0.025391-0.348633l0.082031-2.25l0.017578-0.333984
				l0.147461-2.779297l0.09375-1.756836l0.388672-5.602539l0.077148-1.869141l0.476563-6.828125l0.004883-0.053711
				l0.234375-3.574219l0.00293-0.041016l0.175781-2.126953l0.025391-0.307617l0.092773-1.113281v-0.003906l0.141602-3.132813
				l0.285156-3.794922l0.268555-4.365234l0.183594-5.202148l-0.764648-0.003906l-0.492188-2.09668l-0.40918-1.744141
				l0.87793-3.137695l0.139648-0.499023l1.5625-5.583984l2.641602-9.442383l2.305664-8.239258l0.160156-0.572266l1.712891-6.124023
				l0.683594-2.441406l2.365234-8.453125l0.873047-3.088867l2.325195-8.220703l3.072266-10.866211l0.735352-2.597656
				l-0.916992-0.008789l-1.162109-5.869141l0.368164-0.642578l0.207031-0.612305l-0.264648-0.658203l0.133789-1.464844
				l0.085938-0.09082l0.451172,0.162109l0.014648-0.433594l0.081055-2.357422l0.133789-3.912109l0.009766-0.401367l0.097656-4.125
				l0.005859-0.222656l0.007813-0.123047l0.360352-9.688477l0.286133-5.380859l0.050781-0.951172l0.033203-0.834961
				l0.008789-0.233398l0.339844-8.700195l0.15918-4.076172l0.007813-0.19043l0.003906-0.069336l0.173828-3.012695l0.267578-9.821289
				v-0.024414l0.005859-0.178711l0.019531-0.921875l0.012695-0.712891l0.007813-0.075195l0.089844-2.825195l0.022461-0.694336
				l0.004883-0.168945l0.045898-1.407227l0.0625-1.961914l0.035156-1.09375l0.073242-2.290039l0.051758-2.25l0.055664-2.419922
				l0.027344-0.415039l-0.073242-0.039063l-0.004883-0.412109l0.070313-0.274414l0.276367-0.204102l0.117188-0.177734
				l0.041016-0.306641l-0.016602-0.276367l-0.036133,0.004883l-0.168945-0.337891l-0.194336-0.389648l-0.098633-0.100586
				l-0.185547-0.064453l-0.021484-0.735352l0.158203-0.225586l-0.00293-0.02832l-0.014648-0.105469l-0.316406-0.314453
				l-0.482422-0.850586l-0.182617-0.171875l-0.254883-0.241211l-0.422852-0.324219l-0.827148-0.238281l-0.098633-0.12207
				l-0.027344-0.228516l-0.289063-0.177734l-0.689453,0.079102l-0.001953-0.000977l-0.085938-0.046875l-0.056641-0.132813
				l0.057617-0.191406l0.013672-0.044922l0.186523-0.211914l-0.020508-0.0625l-0.364258-0.233398l0.294922-0.549805
				l0.035156-0.136719l0.046875-0.451172l-0.000977-0.460938l-0.121094-0.27832l-0.342773-0.506836l-0.180664-0.082031
				l-0.143555-1.422852l-0.038086-0.141602l-0.125977-0.141602l-0.168945-0.100586l-0.115234,0.054688l-0.234375,0.354492
				l-0.176758-0.050781l-0.379883-0.289063l-0.505859-0.02832l-0.305664,0.179688h-0.029297l-1.12793-0.016602l-0.435547,0.374023
				l-0.87793-0.268555l-0.041016,0.048828l-0.516602,0.12207l-0.12793-0.019531l-0.126953-0.103516l-0.011719-0.010742
				l-0.052734,0.005859l-0.157227,0.014648l-0.029297,0.00293l-0.005859,0.023438l-0.041992,0.15918l0.208984,0.319336
				l-0.004883,0.064453l-0.370117,0.463867l-0.118164,0.21875l0.292969,0.691406l-0.006836,0.12207l-0.078125,0.163086
				l-0.344727,0.381836l-0.456055,0.302734l0.001953,1.264648l0.070313,0.581055l-0.046875,0.180664l-0.019531,0.074219
				l-0.064453,0.131836l-0.62207,0.587891l-0.304688,0.191406l-0.011719,0.000977l-0.176758,0.001953l-0.173828-0.086914
				l-0.426758-0.240234l-0.907227-0.6875l-0.273438-0.395508l-0.501953-0.155273l-0.00293-0.001953l-0.155273-0.105469
				l-0.114258-0.198242l-0.070313-0.121094l-0.022461-0.130859l0.072266-0.236328l0.427734-0.865234l0.268555-0.446289
				l-0.042969-0.366211l-0.132813-0.469727l0.008789-0.143555l0.470703-0.864258l0.011719-0.116211l-0.051758-0.171875
				l-0.766602-1.165039l-0.053711-0.222656l0.168945-0.635742l0.099609-0.177734l0.134766-0.145508l0.381836-0.231445
				l0.259766-0.479492l0.078125-0.605469l0.518555-1.178711l0.022461-0.323242l0.291992-0.925781l0.052734-0.352539
				l-0.142578-0.385742l0.041016-0.193359l0.212891-0.304688l0.299805-0.15918l0.188477-0.193359l0.036133-0.038086
				l0.143555-0.249023l0.012695-0.036133l0.141602-0.413086l0.473633-0.824219l0.233398-0.286133l0.416016-0.383789
				l0.571289-0.799805l0.053711-0.350586l0.001953-0.012695l-0.064453-0.712891l0.035156-0.702148l0.029297-0.137695
				l0.010742-0.049805l0.004883-0.023438l0.080078-0.137695l0.356445-0.614258l0.773438-1.336914l0.311523-0.661133
				l0.003906-0.05957l0.003906-0.066406l0.000977-0.029297l-0.333008-0.501953l-0.0625-0.183594l-0.160156-0.783203
				l-0.396484-0.449219l-0.455078-0.329102l-0.65332-0.569336l-0.070313-0.188477l-0.083008-0.570313l-0.081055-0.251953
				l-0.12207-0.268555l-0.196289-0.248047l-0.563477-0.426758l-0.174805-0.357422l-0.020508-0.148438l0.204102-0.75293
				l0.144531-0.319336l0.522461-0.515625l0.420898-0.213867l0.233398-0.341797l0.115234-0.286133l-0.017578-0.097656
				l-0.102539-0.150391l-0.580078-0.518555l-0.067383-0.199219l-0.006836-0.021484l-0.010742-0.02832l0.005859-0.054688
				l0.039063-0.389648l0.172852-0.568359l0.414063-0.999023l0.008789-0.146484l-0.012695-0.03418l-0.168945-0.462891
				l-0.574219-1.119141l-0.991211-1.269531l-0.109375-0.275391l-0.293945-1.195313l-0.285156-0.704102l-0.259766-0.643555
				l-0.068359-0.320313l0.245117-1.666992l-0.103516-1.943359l-0.353516-0.869141l-0.109375-0.459961l0.001953-0.288086
				l0.108398-0.365234l0.419922-2.655273l-0.000977-0.498047l-0.139648-0.533203l-0.243164-0.591797l-0.287109-0.270508
				l-0.462891-0.260742l-0.237305-0.079102l-0.351563-0.469727l-0.009766-0.011719l-0.02832-0.038086l-0.222656-0.109375
				l-0.488281-0.402344l-0.068359-0.254883l0.458984-1.936523l0.143555-0.868164l0.077148-0.807617l0.695313-1.413086
				l0.337891-0.688477l0.34668-1.206055l0.015625-0.053711l0.038086-0.132813l-0.032227-0.509766l-0.162109-0.895508
				l-0.163086-0.572266l0.001953-0.136719l0.323242-0.525391l0.288086-0.162109l0.387695-0.516602l0.071289-0.164063
				l0.219727-0.995117l0.072266-0.726563l0.255859-0.40625l0.010742-0.082031L509.73877,89.4375l-0.057617-0.291016
				l0.040039-0.236328l0.082031-0.203125l0.438477-0.388672l0.057617-0.185547l-0.00293-0.033203l-0.053711-0.479492
				l-0.035156-0.308594l0.018555-0.19043l0.136719-0.123047l0.029297-0.027344l0.101563-0.011719l0.152344-0.017578
				l0.107422-0.058594l0.138672-0.421875l0.364258-0.239258l0.192383-0.043945l0.230469-0.240234l0.138672-0.250977
				l0.693359-0.419922l0.042969-0.191406l0.285156-0.611328l0.210938-0.352539l0.001953-0.348633l0.040039-0.076172
				l0.31543-0.246094l0.073242-0.462891l0.606445-0.439453l-0.074219-0.369141l0.516602-0.158203l0.21875-0.148438l0.28418-0.344727
				l0.09375-0.026367l0.371094,0.09375l0.086914-0.030273l0.303711-0.592773l0.253906-0.863281l0.264648-0.697266l0.037109-0.098633
				l0.146484-0.933594l-0.102539-0.607422l-0.363281-0.803711l-0.433594-1.453125l-0.157227-0.893555l-0.025391-0.967773
				l0.056641-0.638672v-0.009766l-0.012695-0.884766l-0.089844-0.492188l-0.176758-0.612305l-0.584961-1.313477l-0.023438-0.793945
				l0.109375-0.824219l0.255859-0.388672l0.753906-0.701172l0.313477-0.347656l0.161133-0.266602l0.208008-0.650391
				l0.15332-0.828125l1.157227-2.703125l0.174805-0.967773l0.013672-0.232422l0.003906-0.064453l0.001953-0.018555
				l-0.128906-0.558594l-0.392578-0.926758l0.112305-0.97168l-0.000977-0.024414l-0.015625-0.713867l-0.000977-0.033203
				l-0.032227-0.238281l-0.043945-0.322266l-0.043945-0.119141l-0.318359-0.835938l-0.040039-0.678711l-0.143555-0.853516
				l-0.493164-0.725586l-0.510742-0.495117l-0.125977-0.174805l-0.033203-0.211914l-0.006836-0.044922l-0.006836-0.040039
				l0.024414-0.357422l-0.073242-0.570313l-0.152344-0.192383l-0.366211-0.142578l-0.075195-0.076172l-0.09082-0.191406
				l-0.005859-0.082031l-0.018555-0.257813l-0.055664-0.173828l-0.014648-0.018555l-0.578125-0.755859l-0.024414-0.124023
				l0.006836-0.02832l0.046875-0.220703l-0.009766-0.125977l-0.333984-0.405273l-0.567383-0.366211l-0.413086-0.160156
				l-0.05957-0.047852l-0.03125-0.026367l-0.037109-0.030273l-0.263672-0.486328l-0.121094-0.110352l-0.454102-0.414063
				l-0.569336-0.831055l-0.101563-0.691406l-0.170898-0.324219l-0.324219-0.439453l0.012695-0.106445l0.003906-0.026367
				l0.025391-0.029297l0.273438-0.313477l0.087891-0.168945l0.038086-0.185547l-0.041016-0.25l-0.288086-0.549805
				l-0.022461-0.041992l-0.011719-0.047852l-0.09082-0.374023l-0.074219-0.307617l-0.550781-0.527344l-0.033203-0.120117
				l0.021484-0.132813l0.209961-0.425781l0.067383-0.341797l0.022461-0.200195l0.020508-0.186523l0.004883-0.044922
				l-0.020508-0.09668l-0.021484-0.101563l-0.05957-0.274414l0.03125-0.086914l0.5625-0.418945l0.094727-0.117188
				l-0.367188-0.450195l0.414063-0.751953l-0.00293-0.09668l-0.076172-0.140625l-0.008789-0.166992l0.395508-0.583984
				l0.085938-0.040039l0.197266,0.020508l0.074219-0.100586l-0.032227-0.272461l-0.211914-0.280273l0.061523-0.762695
				l0.008789-0.099609l0.060547-0.060547l0.30957-0.102539l-0.016602-0.291992l-0.180664-0.258789l-0.037109-0.115234
				l0.387695-0.283203l0.319336-0.732422l-0.000977-0.088867l-0.210938-0.321289l-0.128906-0.196289l0.000977-0.070313
				l0.039063-2.59082l-0.029297-1.258789l-0.009766-0.404297l-0.000977-0.032227l0.141602-0.364258l0.489258-0.604492
				l0.265625-0.449219l0.02832-0.086914l0.006836-0.019531l0.0625-0.188477l0.355469-1.06543l0.129883-0.49707l0.225586-0.34668
				l0.682617-0.609375l0.15625-0.325195l0.048828-0.375l-0.00293-0.055664l-0.016602-0.28125l-0.042969-0.759766l-0.039063-0.313477
				l-0.081055-0.253906l-1.180664-1.238281l-0.261719-0.418945l-0.118164-0.116211l-0.250977-0.19043l-0.607422-0.330078
				l-0.185547-0.164063l-0.085938-0.077148l-0.045898-0.040039l-0.134766-0.168945l-0.321289-0.584961l-0.269531-0.109375
				l-0.05957-0.068359l-0.150391-0.729492l-0.001953-0.006836l-0.00293-0.397461l0.125977-0.864258l0.329102-0.389648
				l0.299805-0.175781l0.228516-0.447266l0.210938-0.87793l0.273438-1.388672l0.019531-0.101563l0.045898-0.234375
				l0.152344-0.606445l0.179688-0.428711l0.149414-0.333008l0.204102-0.298828l0.364258-0.325195l0.101563-0.091797
				l0.539063-0.348633l0.125977-0.236328l0.03125-0.05957l0.012695-0.024414l0.00293-0.053711l0.036133-0.621094l-0.088867-2.022461
				l0.135742-1.802734l-0.027344-0.442383l-0.039063-0.119141l-0.057617-0.057617l-0.422852-0.422852l-0.098633-0.136719
				l-0.339844-0.467773l-0.212891-0.464844l-0.066406-0.243164l-0.032227-0.115234l-0.041016-0.345703l0.095703-0.294922
				l0.005859-0.009766l0.25293-0.424805l0.56543-1.736328l-0.727539,0.016602l-0.408203,0.008789l-0.804688,0.018555
				l-1.672852,0.038086l-1.830078,0.041992l-2.095703,0.047852l-1.217773,0.045898l-5.337891,0.198242l-0.816406,0.030273
				l-2.458008,0.091797l-6.358398,0.236328l-0.983398,0.019531l-1.875977,0.039063l-7.001953-0.035156l-4.183594,0.099609
				l-4.745117,0.112305l-12.224609,0.572266l-9.383789,0.44043l-0.009766,0.000977l-0.15918,0.006836l-4.823242-0.046875
				l-2.163086-0.021484l-0.350586,0.001953l-0.364258,0.000977l-2.547852,0.007813l-4.542969,0.014648l-0.277344,0.000977
				l-0.610352-0.03418l-7.922852-0.435547l-0.457031-0.025391l-0.797852-0.043945l-4.023438-0.095703l-0.016602-0.000977h-0.017578
				l-3.261719-0.078125l-1.808594-0.018555l-6.032227-0.063477l-1.155273-0.011719l-0.46875-0.21582l-0.457031,0.074219
				l-0.430664,0.09375l-0.443359,0.037109l-1.443359-0.380859l-1.644531,0.552734l-0.291992,0.335938l-0.40625,0.46582
				l-1.067383-0.016602l-1.000977-0.368164l-0.245117-0.089844l-0.682617-0.94043l-1.951172-0.078125l-0.50293-0.47168
				l-0.479492-0.196289l-0.626953-0.266602L395.900879,0.8125L395.346191,0.5l-0.647461,0.123047l-0.920898,0.460938
				l-0.661133,0.514648l-0.092773,0.042969l-0.104492,0.046875l-0.401367,0.18457l-0.255859,0.075195l-0.283203,0.082031
				l-0.685547-0.008789l-0.848633,0.137695l-1.03125,0.765625l-0.578125,0.986328l-2.518555-0.111328l-0.579102-0.025391
				l-2.0625,0.132813l-1.624023,0.625l-0.520508,0.610352l-0.03125,0.600586l-0.439453,0.789063l-0.823242,0.582031
				l-0.93457,0.660156l-2.626953,1.259766l-0.50293,0.461914l-0.211914,0.02832l-2.220703,0.297852l-0.680664,0.617188
				l-0.349609,0.105469l-0.818359,0.248047l-1.137695,0.62793l-0.181641,0.30957l-0.53418,0.905273l-0.001953,0.003906
				l-1.773438,0.725586l-1.852539,1.060547l-0.635742,0.195313l-0.542969,0.400391l-1.242188,0.210938l-0.807617,0.802734
				l-1.013672,0.098633l-0.353516,0.303711l-0.783203,0.673828l-1.018555,0.265625l-1.19043,0.625977l-1.959961,1.295898
				l0.09082,1.120117l-0.071289,0.068359l-2.108398,2.007813l-1.023438,0.084961l-1.585938,1.689453l-0.282227,0.393555
				l-0.196289,0.274414l-1.202148,0.323242l-0.771484,0.689453l-1.350586,0.480469L347.557129,27.75l-1.614258,1.423828
				l-1.117188,0.986328l-0.415039,0.366211l-1.149414,1.014648l-0.164063,0.115234l-0.030273,0.020508l-1.605469,1.129883
				l-0.182617,0.126953l-0.279297,0.197266l-0.019531,0.019531l-0.141602,0.140625l-1.041992,1.030273l-0.255859,0.25293
				l-4.541016,4.495117l-1.392578,1.40918l-0.960938,0.972656l-0.642578,0.651367l-0.109375,0.089844l-2.290039,1.891602
				l-1.001953,0.828125l-0.033203,0.027344l-0.086914,0.071289l-2.736328,2.557617l-2.4375,2.600586l-0.894531,0.807617
				L320.174316,53l-3.324219,4.641602l-0.292969,1.162109l-0.750977,2.974609l-3.139648,3.041992l-0.914063,0.885742
				l-3.319336,2.80957l-0.741211,0.251953l-0.577148,0.638672l-0.816406,0.441406l-0.789063,0.658203l-1.652344,0.661133
				l-0.228516-0.083984l-0.143555-0.266602l-0.275391-0.075195l-0.175781-0.02832l-0.000977-0.000977l-0.152344-0.025391h-0.070313
				l-1.417969-0.013672l-0.588867,0.386719l-2.949219,1.273438l-2.063477,1.671875l-2.106445,1.707031l-1.166016,0.15918
				l-0.49707,0.333984l-0.673828,0.02832l-0.091797-0.057617l-0.253906-0.158203l-2.476563,1.665039l-0.194336,4.323242
				l-2.165039,1.927734l-0.837891,0.477539l-0.397461,0.226563l-3.09668,1.141602l-0.333984-0.052734l-1.249023,0.017578
				l-1.702148,0.023438l-2.087891,0.49707l-3.180664,6.491211l-0.261719,0.415039l-0.000977,0.000977l-0.198242,1.041992
				l-0.454102,1.222656l-0.25,1.18457l0.493164,1.34082l0.040039,1.756836l4.487305,1.204102l0.294922,0.236328l0.283203,1.232422
				l-0.009766,0.069336l-0.198242,1.453125l-0.050781,0.860352l0.100586,0.529297l0.176758,0.463867l0.714844,0.197266
				l0.470703,0.235352l0.981445,0.84375l0.234375,0.584961L279.976074,108.5v0.675781l0.352539,0.297852l0.478516,0.198242
				l0.479492,0.033203h0.630859l0.605469-0.220703l0.705078-0.506836l1.589844,0.560547l1.813477,0.639648l0.050781,0.018555
				l0.831055,0.645508l0.375,0.291016l1.830078-0.25293l0.068359-0.009766l0.558594,0.272461l0.317383,0.641602l0.00293,0.007813
				l0.063477,0.125977l-0.005859,0.957031l0.053711,0.551758l0.259766,0.763672l0.013672,0.067383l0.419922,2.06543
				l-0.110352,0.955078l-0.070313,0.607422l-0.479492,0.516602l-0.978516,0.450195l-1.019531,0.120117l-1.788086,1.050781
				l-0.973633,0.87793l-0.758789,0.448242l-0.053711-0.007813l-1.310547-0.193359l-0.654297-0.865234l-0.567383-0.245117
				l-0.704102-0.061523l-0.516602,0.24707l-0.939453,0.246094l-0.610352,0.494141l-0.563477,0.554688l-0.517578,0.492188
				l-0.140625,0.801758l0.09375,0.740234l0.44043,0.285156l0.866211,0.331055l1.347656,1.294922l1.112305,1.510742
				l0.386719,0.524414l0.113281,0.15332l0.056641,0.078125l0.009766,0.039063l0.162109,0.667969l0.339844,1.407227
				l0.575195,2.380859l0.198242,0.819336l0.530273,3.111328l0.038086,0.228516l0.053711,0.310547l0.394531,4.044922l0.3125,3.199219
				l-0.003906,0.085938l-0.010742,0.27832l-0.06543,1.669922l-0.067383,1.703125l-0.055664,1.44043l-0.347656,2.674805
				l-0.509766,1.558594l-0.648438,1.572266l-0.859375,1.27832l-0.570313,0.391602l-0.344727,0.084961l-1.578125,0.390625
				l-0.849609,0.354492l-2.129883,0.889648l-2.704102,0.09375l-1.166016-0.152344l-1.869141-1.300781l-0.198242,0.016602
				l-3.144531,0.262695l-0.555664,0.197266l-1.591797,1.267578l-2.801758,1.724609l-0.719727,1.138672l-0.4375,0.692383
				l-1.591797,0.65332l-0.709961-0.208008l-0.011719-0.00293l-0.489258,0.264648l-0.012695,0.013672l-0.450195,0.500977
				l-0.322266,0.358398l-0.298828,0.149414l-0.161133,0.079102l-2.021484,1.006836l-3.541016,2.641602l-0.796875,0.442383
				l-1.097656,0.609375l-0.952148,1.272461l-2.15625,3.644531l-1.118164,1.333008l-0.05957,0.072266l-0.040039,0.047852
				l-0.055664,0.043945l-1.024414,0.822266l-0.231445,0.009766l-0.085938,0.003906h-0.016602l-1.008789,0.041992l-0.172852,0.006836
				l-0.205078,0.007813l-0.211914,0.008789l-0.642578,0.026367l-0.040039,0.000977l-0.052734,0.051758l-0.204102,0.200195
				l-1.025391,1.00293l-0.975586,0.759766l-0.15625,0.121094l-0.625,0.486328l-0.038086,0.017578l-0.111328,0.049805
				l-0.84668,0.382813l-1.057617,0.476563l-1.044922,0.123047l-1.989258,0.235352l-0.723633,0.085938l-1.063477,0.730469
				l-1.793945,0.579102l-0.628906-0.083984l-0.132813-0.017578l-1.389648,0.217773l-0.143555,0.071289l-0.019531,0.009766
				l-1.282227,0.633789l-1.18457,0.74707l-1.151367,0.725586l-0.049805,0.03125l-0.064453,0.008789l-0.433594,0.0625
				l-0.407227-0.080078l-0.03418-0.006836l-0.896484-0.175781l-0.44043-0.085938l-0.625-0.123047l-0.899414,0.319336
				l-0.723633,0.006836l-1.25,0.011719l-0.761719,0.006836l-1.000977-0.381836l-0.550781-0.210938l-1.121094-0.427734
				l-0.513672-0.105469l-1.078125-0.222656l-0.551758-0.114258l-0.209961-0.042969l-1.1875-0.245117l-0.025391-0.005859
				l-0.573242,0.09375l-0.788086,0.128906l-0.063477,0.010742l-0.060547,0.009766l-0.057617-0.011719l-0.083008-0.015625
				l-0.181641-0.035156l-0.350586-0.069336l-0.366211-0.070313l-2.162109,0.578125l-0.18457,0.049805l-0.026855,0.006836
				l-0.087402-0.006836l-0.794922-0.066406l-0.198242-0.016602l-0.725586-0.060547l-0.981445-0.082031l-0.489746-0.041016
				l-2.049316,0.362305l-0.780273,0.137695l-0.236328,0.041992l-0.943359,0.166992l-1.026855-0.026367l-0.512695-0.013672
				l-0.556152-0.014648l-1.088867-0.027344l-0.563477-0.200195l-0.288086-0.102539l-2.117676,0.038086l-0.017578,0.00293
				l-0.255859,0.02832l-2.416504,0.273438l-0.015625,0.001953l-0.020508,0.001953l-0.816895,0.092773l-0.450684,0.050781
				l-0.786133,0.311523l-1.09375,0.433594l-0.866211,0.181641l-0.918945,0.192383l-1.174316,0.432617l-0.340332,0.125977
				l-0.121094,0.043945l-0.547363,0.202148h-0.000488l-1.000977,0.369141l-1.942871,0.436523l-0.488281,0.304688l-0.255371,0.15918
				l-1.211426,0.754883l-0.680176,0.423828l-0.025879,0.015625l-1.261719-0.117188l-0.085449-0.007813l-2.087402-0.78418
				l-0.008301-0.00293l-1.129395-0.813477l-0.85791-0.618164l-0.128906-0.092773l-0.04834-0.035156l-1.42041-1.023438
				l-0.50293-0.361328l-0.862793-0.364258L170.193359,183.25l-0.270996-0.114258l-0.003418-0.001953l-0.74707-0.31543
				l-0.121582-0.084961l-0.407227-0.28418l-1.375488-1.110352l-0.55127-0.445313l-1.19043-0.960938l-0.167969-0.135742
				l-1.015625-1.606445l-1.320313-0.693359l-1.425293-0.511719l-0.678711-0.244141l-0.26416-0.398438l-1.135254,0.113281h-0.003418
				l-0.853516,0.085938l-0.979492-0.0625l-0.916016-0.232422l-0.616699-0.15625l-4.704102-0.640625l-1.278809-0.415039
				l-1.081543-0.351563h-1.431641l-2.416016-0.682617l-0.984375-0.482422l-0.406738-0.052734l-0.043945-0.005859l-0.445313-0.057617
				l-1.47168,0.410156l-2.301758-0.138672l-0.745117-0.109375l-0.227539-0.033203l-1.442383-0.211914l-1.669922-0.245117
				l-0.073242-0.010742l-0.38916-0.057617l-1.024414-0.150391l-0.791992-0.116211l-0.10791-0.015625l-0.868164,0.00293
				l-1.449219,0.005859l-0.670898,0.001953l-0.26709,0.000977l-0.733398,0.070313l-0.233398,0.022461l-0.509277,0.048828
				l-2.216309,0.211914h-0.004395l-0.004395,0.000977l-1.007324,0.095703l-2.364746,0.226563l-1.362305-0.188477l-1.10498-0.041992
				l-0.849609-0.032227l-0.325195-0.012695l-0.848145-0.032227l-1.15625-0.043945l-0.35498-0.012695l-1.518066-0.057617
				l-1.082031-0.041992l-1.287598-0.047852l-0.078125-0.00293l-0.040527-0.001953l-0.013672-0.003906l-0.620605-0.177734
				l-0.238281-0.068359l-0.048828-0.014648l-0.469727,0.03418l-1.015625,0.074219l-3.638672,0.264648l-1.063477,0.077148
				l-1.431641,0.103516l-0.610352,0.044922l-0.057129-0.029297l-0.697754-0.350586l-0.431641-0.030273l-0.074219-0.004883
				l-2.342285,0.274414l-1.309082,0.15332l-0.141602,0.016602l-0.890137,0.103516l-1.40625,0.25293l-4.782715,0.860352
				l-0.76709,0.137695l-0.041016,0.014648L85.965332,176.25l-0.010254,0.00293l-0.230957,0.079102l-1.713867,0.299805
				l-2.310547,0.404297l-0.581055,0.186523l-1.867188,0.600586l-1.916016,0.424805l-1.165039,0.257813l-0.327148,0.072266h-0.000488
				l-0.454102,0.100586l-0.641113,0.142578l-0.154785-0.083008l-0.020996-0.011719l-1.366211,0.582031l-0.482422,0.205078
				l-3.3125,1.078125l-2.399414,0.780273l-1.760742,0.675781l-1.527344,0.584961l-2.412598,0.499023l-1.42627,0.295898
				l-0.039063,0.010742l-4.010742,1.167969l0.626953,1.005859l0.001953,0.003906l0.097656,0.15625l0.441406,1.34375
				l0.026367,0.189453l0.213867,1.542969l-0.006348,0.425781l-0.012695,0.869141l0.087402,0.59668l0.101563,0.695313
				l-0.047852,0.476563l-0.097656,0.96875l-0.018555,0.472656l-0.00293,0.087891l-0.019043,0.489258l0.036133,0.091797
				l0.332031,0.853516l0.151855,0.241211l0.160645,0.955078l0.135254,0.430664l0.040527,0.578125l-0.13623,0.587891
				l-0.432129,0.314453l-0.213379,0.314453l-0.370605,0.546875l-0.274902,0.21582l-0.18457,0.484375l0.043945,0.506836
				l0.044922,0.447266l0.029785,0.209961l0.060059,0.420898l-0.27832,0.970703l-0.046387,0.161133l-0.033203,0.116211
				l-0.021973,0.02832l-0.371094,0.480469l-0.400879,0.547852l0.002441,0.09375l0.01416,0.460938l2.35791,0.652344
				l0.420898,0.116211l1.015625,0.28125l0.255859,0.070313l1.064941,0.293945l0.406738,0.751953l0.022461,1.068359
				l-0.52832,1.900391l-0.398926,0.838867l-0.333496,0.701172l0.035645,0.956055l0.017578,0.462891l0.023438,0.631836
				l0.671875,0.99707l2.265137,1.34375l0.655273,0.388672l1.063965,1.155273l2.352051,0.200195l1.080078,0.944336l0.369629,0.679688
				l0.12207,0.225586l0.027832,0.050781l0.256836,0.47168l0.279297,1.040039l-0.000488,0.232422l-0.002441,0.849609
				l-0.002441,0.671875l-0.002441,0.703125l-0.319824,0.839844l-0.216309,0.566406l1.664551,0.180664l0.289551,0.733398
				l0.144043,0.365234l0.293945,0.748047l0.82666,1.464844l0.209961,0.039063l0.320801,0.05957l0.490723,1.155273l-0.078613,0.65625
				l-0.14209,0.298828v0.000977l-0.101563,0.211914l-0.17334,0.365234l0.160156,1.438477l0.177246,0.673828l0.036133,0.134766
				l0.129883,0.493164l0.23291,0.041992l0.407715,0.892578l-0.167969,0.819336l-0.72168,0.859375l-0.278809,0.332031
				l-0.20752,0.24707l-2.52832,2.208008l-0.248047,0.216797L68.165527,239.625l-0.145996,0.126953l-0.821777,0.219727L67,240.024414
				l-1.060547,0.28418l-0.641602,0.476563l-1.402832,1.041992l-1.715332,1.274414l-1.200195,0.083984l-1.016113,0.31543
				l-0.956055,0.518555l-1.443848,0.783203l-0.776367,1.582031l-0.295898,0.601563l-0.018555,0.380859l-0.073242,1.509766
				l-0.027832,0.587891l-0.759766,0.503906l-0.44043-0.010742l-1.000977,1.076172l-0.308105,0.331055l-1.298828,1.396484
				l-0.074707,0.304688l-0.11377,0.46875l-0.65625,1.234375l-0.227539,0.226563l-0.060547,0.060547l-0.059082,0.05957
				l-0.27002,0.116211l-0.118164,0.443359l-0.449219,1.670898L50.5,257.474609l-0.11377,0.420898l-0.193359,0.270508
				l-0.566406,0.790039l-0.051758,0.072266l-0.025879,0.005859l-0.505371,0.116211l-0.422852,0.097656l-0.537109,0.123047
				l-0.270508,0.0625l-0.014648,0.00293l-0.084961,0.019531l-0.02832,0.006836l-0.471191,0.108398l-0.629395,0.144531
				l-0.570801,0.130859l-0.025879,0.011719l-0.762695,0.326172l-0.118164,0.051758L43.616211,260.875l-0.007813,0.00293
				l-0.24707,0.071289l-0.856445,0.24707l-0.443848,0.12793l-0.02002,0.005859l-0.834961,0.433594l-0.903809,0.46875
				l-0.58252,0.487305l-0.916504,0.765625l-0.228516,0.098633l-0.619141,0.268555l-1.208008,0.523438l-0.694824,0.300781
				l-0.339844,0.425781l-0.087402,0.108398l-0.410156,0.366211l-0.040039,0.036133l-0.22168,0.198242l-0.291992,0.079102
				l-0.050293-0.012695l-0.041504-0.009766l-0.48291-0.119141l-0.13916,0.014648l-0.634766,0.063477l-0.811035,0.916992
				l-0.088379,0.080078l-0.020508,0.017578l-0.008301,0.007813l-1.468262,1.333008l-1.339844,0.988281l-0.541016,0.398438
				L28.54248,270.25l-1.190918,1.646484l-0.208496,0.288086l-0.899414,0.832031l-0.672363,0.623047l-0.381348,0.353516
				l-1.701172,0.720703l-0.398438,0.316406l-0.250488,0.199219l-0.918945,0.730469l-1.19873,0.952148l-0.129883,0.102539
				l-1.348633,0.952148l-0.022461,0.015625l-0.455078,0.321289l-0.844238,0.595703l-0.13623,0.095703l-0.014648,0.009766
				l-1.345703,0.806641l-2.472656,1.480469l-0.011719,0.007813l-0.582031,0.386719l-0.968262,0.643555l-0.19043,0.126953
				l-1.357422,0.901367l-0.479492,0.319336l-0.377441,0.250977l-0.09082,0.05957l-0.05127,0.03418l-0.021973,0.012695
				l-1.208496,0.676758l-0.619629,0.34668l-0.288574,0.162109l-3.197754,1.791016l-0.461426,0.257813l-0.306152,0.135742
				l-3.223633,1.423828l-0.000488,0.254883l-0.000488,1.688477L0.5,291.643555l0.025391,6.240234l-0.007813,0.413086
				l0.000488,0.668945l0.013672,1.118164l-0.008789,1.255859l-0.020508,2.043945l0.032715,1.286133l-0.002441,3.411133
				l-0.003906,7.083984l0.033203,2.097656l7.299805-0.02832l1.054688,0.009766l0.962891,0.009766l1.080078,0.009766
				l0.489258,0.004883l-0.000488-0.006836l5.913086,0.042969l1.035156,0.014648l0.824707,0.003906l4.453125,0.024414
				l4.86377-0.015625l2.502441-0.008789l3.048828-0.009766l3.739746-0.011719l3.661621-0.011719l0.807617-0.009766
				l0.436035-0.005859l4.45166-0.053711l2.686523,0.006836l6.698242,0.014648l6.256348,0.032227l0.405273,0.006836l0.03418,0.000977
				l0.256348,0.003906l2.387695,0.040039l3.107422,0.052734l2.473633,0.041992l3.787109-0.022461l6.212891-0.035156
				l4.200195-0.064453l3.912109-0.058594l2.443359-0.037109l1.692871-0.026367l0.806152,0.001953l0.55127,0.000977
				l4.807617,0.010742l4.501465,0.008789l6.193359,0.013672l2.988281,0.005859l3.233398,0.006836l2.954102,0.046875
				l0.206543-0.001953l1.105957-0.015625l5.083008-0.067383l5.322266-0.070313l0.225098,0.00293l3.805664,0.055664
				l1.524414,0.021484l1.929199,0.02832l0.017578,0.001953l2.599121,0.06543l0.077148,0.001953l3.255371,0.005859l1.405762,0.00293
				l4.621582,0.008789l3.300781,0.005859l0.654297,0.000977l0.738281-0.001953l5.82959-0.025391l9.137207-0.0625l0.047852-0.000977
				l10.384766-0.071289h0.098145h0.026855l3.773438,0.008789l5.098145,0.011719l6.093262,0.014648l9.292969,0.021484
				l1.93457,0.004883l1.370117,0.00293l2.761719,0.005859l0.807617-0.018555l0.923828-0.021484l1.582031-0.035156l1.568359-0.036133
				l2.609375-0.024414l1.873047-0.016602l0.007813,0.00293l3.348633-0.047852l1.847656-0.03125l0.44043-0.010742h1.21582
				l0.087891-0.009766h1.526367h5.331055l1.535156,0.009766h2.249023l3.047852-0.000977l1.512695,0.015625l0.068359,0.000977
				l0.109375,0.000977l2.151367,0.022461l11.482422,0.120117l0.744141,0.012695l0.585938,0.009766l0.479492,0.007813
				l0.484375,0.007813l0.410156,0.006836l0.476563,0.006836l0.513672,0.008789l0.572266,0.008789l2.452148,0.040039
				l0.086914,0.001953l0.520508,0.007813l0.350586,0.009766l8.980469,0.054688l0.494141,0.006836l5.43457-0.020508
				l5.661133-0.020508l5.90625-0.022461h0.600586l1.427734,0.009766l3.40332-0.006836l4.650391-0.008789l1.767578-0.00293h0.226563
				l1.729492,0.004883l7.036133,0.016602l2.951172,0.029297l5.696289,0.056641l1.629883,0.015625l0.855469-0.009766
				l9.696289-0.105469h0.056641l0.891602-0.00293l3.630859-0.010742l5.546875-0.016602l0.527344-0.016602l3.274414,0.005859
				l0.34082-0.000977l2.116211-0.003906l3.673828-0.004883l0.486328,0.245117l0.554688,0.1875l0.345703,0.212891l0.089844,0.054688
				l0.282227,0.637695l-0.015625,0.243164l-0.373047,1.058594l0.020508,0.150391l0.216797,0.21875l0.297852,0.049805
				l0.515625,0.21875l0.554688,0.686523l0.1875,0.086914l0.150391,0.696289l0.427734,0.424805l0.197266,0.123047l0.510742,0.083984
				l0.18457-0.017578l0.03418-0.053711l-0.024414-0.349609v-0.009766l-0.003906-0.051758l0.094727-0.111328l0.146484-0.068359
				l0.12793-0.001953l0.023438-0.000977l0.237305-0.004883l0.182617,0.222656l-0.026367,0.56543l0.063477,0.21582l0.126953,0.225586
				l0.823242,0.416992l0.147461,0.558594l0.009766,0.112305l0.049805,0.614258l-0.003906,0.469727l0.094727,0.277344
				l0.450195,0.861328l0.173828,0.452148l-0.016602,0.533203l-0.400391,0.510742l0.015625,0.414063l0.103516,0.609375
				l0.279297,0.144531l0.382813,0.091797l0.191406,0.139648l0.245117,0.700195l-0.051758,0.15625l-0.018555,0.056641
				l-0.167969,0.130859l-0.076172,0.05957l-0.041016,0.058594l-0.145508,0.205078l0.011719,0.27832l0.069336,0.199219
				l0.063477,0.086914l0.056641,0.080078l0.0625,0.085938l0.21582,0.173828l0.530273,0.011719l0.167969-0.087891l0.083984-0.044922
				l0.375977-0.375l0.176758-0.025391l0.191406,0.148438l0.333984,0.433594l0.236328,0.22168l0.47168,0.208008l0.15918,0.00293
				l0.023438-0.026367l0.265625-0.296875l0.396484-0.698242l0.014648-0.02832l0.084961-0.038086l0.333984-0.151367
				l0.411133-0.057617l0.047852-0.006836l0.493164,0.111328l0.276367,0.160156l0.046875,0.046875l0.169922,0.166992
				l0.018555,0.019531l0.005859,0.016602l0.09375,0.256836l0.104492,0.125l0.024414,0.018555l0.126953,0.102539l0.139648,0.019531
				l0.105469-0.061523l0.132813-0.176758l0.142578-0.366211l0.099609-0.407227l0.009766-0.039063l0.105469-0.136719
				l0.016602-0.019531l0.077148-0.099609l0.054688-0.009766l0.071289-0.013672l0.039063-0.006836l0.087891,0.030273
				l0.12207,0.041992l0.111328,0.038086l0.044922,0.054688l0.039063,0.047852l0.029297,0.036133l0.017578,0.067383
				l0.069336,0.273438l-0.053711,0.817383l0.201172,0.566406l0.163086,0.239258l0.209961,0.183594l0.40332,0.158203
				l0.288086-0.024414l0.516602-0.245117l0.209961-0.088867l0.286133-0.035156l0.741211,0.727539l0.245117,0.025391
				l0.730469-0.095703l0.254883,0.124023l0.095703,0.110352l0.082031,0.302734l-0.004883,0.461914l-0.125,0.629883
				l-0.011719,0.316406l0.024414,0.169922l0.121094,0.303711l1.064453,0.464844l0.519531,0.522461l0.323242,0.188477
				l0.295898-0.004883l0.045898-0.03125l0.431641-0.303711l0.140625-0.03125l0.038086,0.000977l0.182617,0.000977l0.071289,0.000977
				l0.037109,0.029297l0.102539,0.081055l0.040039,0.032227l0.010742,0.063477l0.014648,0.084961l0.007813,0.043945
				l-0.003906,0.049805l-0.021484,0.233398l-0.007813,0.091797l-0.138672,0.499023l-0.041016,0.144531l-0.041016,0.080078
				l-0.132813,0.259766l-0.024414,0.047852l-0.110352,0.109375l-0.250977,0.102539l-0.553711-0.110352l-0.302734,0.100586
				l-0.060547,0.020508l-0.025391,0.032227l-0.091797,0.118164l-0.362305,0.467773l-0.155273,0.199219l-0.052734,0.069336
				l-0.068359,0.150391l-0.097656,0.472656l-0.087891,0.819336l0.024414,0.158203l0.067383,0.15332l0.179688,0.199219
				l0.020508,0.023438l0.049805,0.008789l0.138672,0.024414l0.254883,0.044922l0.210938,0.000977l1.066406-0.298828
				l0.048828-0.005859l0.203125-0.023438l0.03125-0.00293l0.03125,0.023438l0.051758,0.040039l0.053711,0.041016l0.058594,0.084961
				l0.003906,0.004883l0.063477,0.089844l0.255859,0.124023l0.071289,0.03418l0.292969,0.064453l0.331055,0.214844
				l0.269531,0.582031l0.137695,0.299805l0.179688,0.388672l0.003906,0.06543l0.045898,0.754883l-0.161133,1.003906
				l0.077148,0.626953l0.009766,0.074219l0.016602,0.140625l0.306641,1.265625l-0.013672,0.1875l-0.025391,0.055664
				l-0.026367,0.054688l-0.013672,0.030273l-0.018555,0.008789l-0.104492,0.051758l-0.71582-0.162109l-0.436523,0.036133
				l-0.161133,0.256836l-0.015625,0.208984l0.125,0.286133l0.595703,0.600586l0.246094,0.420898l0.321289,0.767578l0.120117,0.625
				l-0.003906,0.259766l-0.109375,0.161133l-0.489258,0.421875l-0.045898,0.219727l0.072266,0.280273l0.094727,0.075195
				l0.260742,0.078125l0.326172,0.591797l0.098633,0.655273l-0.021484,0.668945l-0.021484,0.704102l-0.004883,0.144531
				l0.001953,0.038086l0.047852,0.810547l0.036133,0.185547l0.371094,0.878906l-0.052734,0.594727l-0.102539,0.186523
				l-0.142578,0.042969l-0.087891-0.020508l-0.175781-0.143555l-0.101563-0.083984l-0.066406-0.021484l-0.053711-0.017578
				l-0.039063-0.013672l-0.125977,0.03125l-0.374023,0.091797l-0.117188,0.111328l-0.008789,0.100586l0.072266,0.174805
				l0.064453,0.157227l0.005859,0.047852l0.009766,0.087891l0.003906,0.022461l-0.033203,0.015625l-0.105469,0.054688
				l-0.101563,0.051758l-0.039063-0.005859l-0.367188-0.046875l-0.250977,0.053711l-0.058594,0.012695l-0.236328,0.167969
				l0.000977,0.230469l0.612305,0.660156l0.262695,0.492188l0.208008,0.292969l0.084961,0.119141l0.572266,0.319336
				l0.487305,0.473633l0.231445,0.857422l0.270508,0.567383l0.280273,0.277344l0.305664,0.206055l0.316406,0.046875
				l0.149414,0.115234l0.705078,1.232422l0.175781,0.556641l0.015625,0.237305l-0.119141,0.158203l-0.416016,0.134766
				l-0.157227,0.172852l0.00293,0.494141l0.043945,0.113281l0.094727,0.091797l0.512695,0.109375l0.135742,0.074219
				l0.429688,0.308594l0.455078,0.462891l0.205078,0.357422l0.03125,0.142578l-0.00293,0.172852l-0.131836,0.323242
				l-0.089844,0.361328l0.001953,0.191406l0.042969,0.125977l0.283203,0.073242l0.457031-0.141602l0.5,0.000977l0.15918,0.085938
				l0.022461,0.030273l0.032227,0.043945l0.047852,0.063477l0.023438,0.088867l0.013672,0.049805l0.12207,0.453125
				l0.017578,0.261719l-0.023438,0.211914l-0.222656,0.772461l-0.02832,0.34082l0.047852,0.226563l0.041016,0.092773
				l0.048828,0.108398l0.042969,0.09375l0.048828,0.036133l0.042969,0.032227l0.042969,0.03125l0.941406,0.263672l0.050781,0.005859
				l0.878906,0.103516l0.148438-0.035156l0.666016-0.40918l0.196289-0.271484l0.306641-0.035156l0.736328,0.128906
				l0.460938,0.418945l0.21875,0.125h0.025391l0.036133,0.000977l0.483398,0.009766l0.054688,0.021484l0.318359,0.125
				l0.008789,0.003906l0.016602,0.020508l0.196289,0.245117l0.053711,0.067383l0.010742,0.054688l0.073242,0.398438
				l0.001953,0.365234l0.097656,0.368164l0.214844,0.139648l0.730469,0.168945l0.236328,0.129883l0.140625,0.171875
				l0.099609,0.292969l0.00293,0.134766l-0.467773,0.541016l-0.118164,0.411133l0.030273,0.230469l0.168945,0.110352
				l0.416992,0.070313l0.958008-0.217773l0.962891-0.383789l0.488281-0.045898l0.350586,0.132813l0.447266,0.313477
				l0.243164,0.273438l0.692383,0.625l0.182617,0.086914l0.316406,0.030273l0.166992-0.020508l0.204102-0.108398l0.242188-0.508789
				l0.009766-0.022461l0.078125-0.077148l0.174805-0.173828l0.078125-0.078125l0.060547-0.060547l0.078125-0.043945
				l0.391602-0.21582l0.363281,0.013672l0.154297,0.078125l0.349609,0.415039l0.004883,0.005859l0.003906,0.013672
				l0.044922,0.138672l0.019531,0.061523l0.021484,0.356445l0.043945,0.144531l0.081055,0.185547l0.220703,0.511719
				l0.030273,0.070313l0.124023,0.136719l0.274414,0.106445l0.486328-0.077148l0.504883-0.28418l0.382813-0.131836
				l0.207031,0.013672l0.456055,0.225586l0.100586,0.048828l0.113281,0.009766l0.238281,0.019531l0.056641,0.004883
				l0.022461-0.012695l0.288086-0.166992l0.008789-0.003906l0.019531-0.011719l0.288086-0.291992l0.005859-0.005859
				l0.548828-0.27832l0.231445-0.054688l0.198242,0.053711l0.141602,0.148438l0.092773,0.185547l0.050781,0.172852
				l0.012695,0.327148L402.377441,378.75l-0.192383,0.21582l-0.049805,0.371094l0.05957,0.289063l0.193359,0.413086
				l0.196289,0.292969l0.196289,0.149414l0.260742,0.138672l0.758789,0.101563l0.393555,0.220703l0.206055,0.291016
				l0.069336,0.234375l0.171875,0.575195l0.154297,0.335938l0.414063,0.400391l0.488281,0.359375l0.176758,0.129883
				l0.306641,0.326172l0.129883,0.366211l-0.020508,0.239258l-0.104492,0.12793l-0.425781,0.31543l0.118164-0.008789
				l0.086914,0.051758l0.126953,0.077148l1.46582,0.884766l2.59082,1.563477l2.735352,1.585938l3.603516,2.213867l0.095703,0.058594
				l0.130859,0.080078l0.273438,0.167969l1.567383,0.962891l0.87793,0.539063l2.070313,1.272461l1.808594,1.080078
				l1.553711,0.927734l1.421875,0.930664l0.821289,0.537109l0.523438,0.342773l3.186523,2.084961l0.139648,0.091797
				l0.202148,0.131836l0.339844,0.205078l0.697266,0.420898l1.928711,1.162109l1.611328,0.97168l0.054688,0.033203
				l1.520508,1.029297l4.705078,2.717773l0.696289,0.401367l3.177734,1.705078l0.989258,0.530273l1.577148,0.914063
				l0.24707,0.143555l0.103516,0.05957l0.650391,0.376953l0.02832,0.016602l0.197266,0.114258l0.040039,0.023438l0.364258,0.210938
				l1.03125,0.597656l0.006836,0.003906l0.131836,0.077148l0.037109,0.020508l0.529297,0.307617l0.09668,0.055664l0.566406,0.328125
				l0.486328,0.282227l0.647461,0.375l0.106445,0.061523l0.344727,0.199219l0.871094,0.507813l0.164063,0.095703l0.930664,0.541992
				l0.882813,0.512695l0.203125,0.119141l0.249023,0.144531l0.813477,0.473633h0.000977l0.603516,0.354492l0.044922,0.027344
				l0.592773,0.347656l0.09668,0.056641l0.882813,0.518555l1.074219,0.630859l1.806641,1.060547l0.819336,0.481445
				l0.603516,0.353516l0.521484,0.306641l0.099609,0.058594l0.533203,0.3125l0.481445,0.283203l1.525391,0.895508l0.647461,0.380859
				l0.385742,0.295898l0.164063,0.092773l0.185547,0.03125l0.696289,0.009766l-0.199219,1.62793l-0.198242,0.727539l-0.477539,1.75
				l-0.188477,0.693359l-0.25293,1.061523l-0.146484,0.618164l-0.264648,1.113281l-0.167969,0.567383l-0.018555,0.201172
				l-0.040039,0.010742l-0.068359,0.279297l-0.035156,0.140625l-0.744141,2.508789l-0.351563,0.788086l-0.375,0.774414
				l-0.81543,1.711914l-0.296875,0.709961l-0.015625,0.037109l-0.143555,0.344727l-0.736328,2.21582l-0.391602,0.650391
				l-0.003906,0.007813l-1.086914,1.981445l-1.332031,2.427734l-0.166016,0.303711l-0.699219,1.275391l-0.368164,0.734375
				l-0.34082,1.780273l-0.117188,0.613281l-0.128906,0.670898l-0.026367,0.183594l-0.008789,0.060547l-0.146484,1.004883
				l-0.092773,0.639648h0.001953l0.387695,0.249023l0.012695,0.007813l0.081055,0.205078l0.030273,0.075195l0.097656,0.243164
				l0.008789,0.021484l-0.135742,0.665039l-0.257813,0.205078l-0.036133,0.097656l-0.212891,0.584961l0.050781,0.366211
				l0.017578,0.121094l0.084961,0.115234l0.191406,0.256836l0.003906,0.005859l0.063477,0.739258l0.053711,0.638672
				l0.02832,0.338867l0.030273,0.356445l-0.004883,0.005859l-0.501953,0.599609l-0.397461,0.474609l-0.199219,0.236328
				l-0.077148,0.15332l-0.039063,0.076172l-0.009766,0.019531l-0.196289,0.385742l-0.128906,0.254883l-0.050781,0.098633
				l-0.048828,0.193359l-0.047852,0.188477l-0.001953,0.006836l-0.026367,0.107422l-0.083008,0.326172l-0.098633,0.386719
				l-0.018555,0.074219l0.03125,0.173828l0.012695,0.071289l0.020508,0.113281l0.017578,0.097656l0.035156,0.196289
				l0.030273,0.165039l0.030273,0.169922l0.013672,0.076172l0.03418,0.1875l0.261719,0.435547l0.129883,0.214844l0.146484,0.244141
				l0.5625,0.12207l0.463867,0.100586l0.728516,0.158203l0.611328,0.529297l0.134766,0.532227l-0.454102,0.742188
				l-0.374023,0.466797l-0.019531,0.024414l-0.019531,0.024414l-0.043945,0.055664l0.03125,0.154297l0.009766,0.046875
				l0.020508,0.102539l0.00293,0.015625l0.012695,0.063477l0.139648,0.102539l0.099609,0.074219l0.558594,0.233398l0.856445,0.02832
				l2.545898-0.244141l0.618164-0.058594l0.139648-0.013672l0.308594,0.342773l0.130859,0.145508l0.421875,0.237305
				l0.288086,0.161133l0.236328,0.488281l-0.138672,0.523438v0.004883l-0.003906,1.041992v0.014648l2.886719-1.071289
				l1.561523-0.578125l1.097656-0.529297l0.126953-0.060547l0.049805-0.023438l0.25293-0.12207l0.195313-0.094727l0.34668-0.166016
				l0.354492-0.170898l0.064453-0.030273l0.293945-0.141602l0.682617-0.329102l0.094727-0.045898l0.387695-0.136719
				l0.071289-0.024414l0.581055-0.205078l0.1875-0.067383l0.107422-0.038086l0.871094-0.306641l0.197266-0.049805l0.212891-0.053711
				l0.071289-0.018555l0.414063-0.104492l0.30957-0.078125l0.043945-0.010742l0.026367-0.006836l0.164063-0.041016l0.988281-0.25
				l0.03125-0.007813l0.09375-0.023438l0.12793,0.000977l0.254883,0.00293l0.19043,0.00293l0.293945,0.00293l0.859375,0.010742
				l-0.078125,0.441406l-0.036133,0.205078l1.222656,0.023438l1.732422,0.03418l1.324219,0.025391l0.34082,0.006836
				l0.259766,0.004883l0.279297,0.004883l0.264648,0.005859l0.47168,0.008789l1.695313,0.033203l0.136719,0.00293l0.238281,0.003906
				l0.219727,0.004883l0.237305,0.003906l0.224609,0.004883l0.466797-0.083984l0.269531-0.047852l0.713867-0.128906
				l0.041016-0.006836l1.374023-0.24707l0.673828,0.033203l0.267578,0.012695l1.226563,0.05957l0.042969,0.007813l0.009766,0.001953
				l0.177734,0.032227l0.18457,0.03418l0.208008,0.038086l0.125977,0.023438l0.962891,0.176758l6.199219-1.438477l2.760742-0.639648
				l2.116211-0.666016l2.555664-0.804688l3.240234-1.364258l2.576172-0.556641l0.40918,0.748047l0.352539,0.644531
				l0.267578,0.186523l3.351563-0.071289l0.191406-0.003906l0.134766-0.02832l1.702148-0.352539l2.146484-0.530273l0.30957-0.076172
				l0.736328-0.223633l0.960938-0.291992l2.333984-0.708008l0.492188-0.149414l0.53125-0.161133l0.711914-0.216797
				l6.512695-1.975586l1.101563-0.453125l1.208984-0.49707l0.498047-0.204102l0.583984-0.240234l1.509766-0.746094l1.391602-0.6875
				l4.245117-2.097656l4.803711-2.066406l7.077148-2.798828l0.524414-0.207031l0.769531-0.255859l0.079102-0.026367
				l0.029297-0.009766l0.032227,0.007813l0.061523,0.016602l0.024414,0.005859l0.207031,0.053711l0.631836-0.370117
				l1.371094-0.483398l2.624023-0.924805l1.446289-0.510742l2.527344-0.891602l2.5-0.880859l1.959961-0.692383l1.313477-0.462891
				l0.574219-0.214844l0.220703-0.083008l2.298828-0.859375l0.964844-0.361328l3.392578-1.269531l0.324219-0.121094l0.5-0.186523
				l0.157227-0.067383l5.774414-2.444336l3.50293-1.722656l1.838867-0.904297l0.056641-0.02832l2.695313-1.325195l0.355469-0.174805
				l0.008789-0.003906l0.030273-0.014648l1.568359-0.771484l2.015625-0.991211l1.313477-0.646484l0.029297-0.013672
				l2.416992-1.188477l0.136719-0.067383l0.255859-0.125l2.729492-1.342773l0.331055-0.162109l2.012695-0.990234l0.498047-0.245117
				l0.71582-0.351563l0.931641-0.399414l3.572266-1.533203l2.303711-0.989258l0.188477-0.09082l0.12207-0.058594l4.96875-2.385742
				l1.666016-0.800781l0.547852-0.262695l2.556641-0.628906l1.673828-0.891602l0.682617-0.364258l0.029297-0.015625
				l0.173828-0.235352l0.636719-0.865234l0.605469-0.823242L632.872559,414.44043z M479.900879,438.474609l0.289063-0.03125
				l0.072266-0.973633l-0.09668-0.323242l-0.337891-0.317383l-0.224609,0.092773l-0.02832,0.484375l0.053711,0.705078
				L479.900879,438.474609z M458.433105,453.769531l-0.003906-0.004883l-0.109375-0.148438l-0.003906-0.001953l-0.044922-0.021484
				l-0.017578,0.014648l-0.004883,0.004883l-0.045898,0.039063l-0.164063,0.322266l-0.320313,0.621094l-0.03125,0.070313
				l0.076172,0.135742l0.063477,0.03125l0.089844,0.044922l0.080078-0.128906l0.003906-0.008789l0.262695-0.589844
				L458.433105,453.769531z M456.858887,463.228516l-0.214844-0.324219l-0.214844-0.463867l-0.021484-0.044922l-0.34375-0.737305
				l-0.100586-1.091797l-0.067383-0.730469l-0.09082-0.132813l-0.044922-0.06543l-0.206055-0.300781l-0.095703-0.140625
				l-0.029297-0.041992l-0.027344-0.041016l-0.044922-0.00293l-0.803711-0.049805l-0.12793,0.032227l-1.089844,0.271484
				l-0.229492,0.057617l-0.024414,0.005859l-0.144531,0.036133l-0.047852,0.011719l-0.277344,0.069336l-0.09082,0.022461
				l-0.024414,0.005859l-0.118164,0.030273l-0.521484,0.129883l-0.849609,0.112305l-0.022461,0.00293l-0.664063,0.087891
				l-0.025391,0.003906l-0.286133,0.038086l-0.774414,0.102539l-0.708008-0.178711l-0.076172-0.019531l-0.59375-0.149414
				l-0.068359-0.067383l-0.243164-0.238281l-0.488281-0.042969l-0.500977,0.242188l-0.017578,0.008789l-0.21875,0.105469
				l-0.149414,0.1875l-0.392578,0.492188l-0.351563,0.441406l-0.098633,1.253906l0.064453,0.272461l0.392578,0.078125
				l0.054688,1.507813l-0.113281,0.5l-0.578125,0.80957l-0.193359,1.052734l-0.154297,0.84668l-0.199219,1.085938
				l-0.244141,0.310547l-0.142578,0.180664l-0.101563,0.128906h-0.077148h-0.005859l-0.390625-0.001953l-0.487305-0.00293
				l-0.419922,0.341797l-0.255859,0.208008l-0.423828,0.34375l-0.405273,0.329102l0.036133,0.091797l0.451172,1.181641
				l-0.054688,0.635742l-0.032227,0.380859l-0.005859,0.06543l-0.000977,0.005859l-0.643555,0.603516l-0.089844,0.084961
				l-0.025391,0.023438l-0.025391,0.024414l-0.058594,0.134766l-0.006836,0.016602l-0.206055,0.477539l0.120117,0.587891
				l0.351563,0.587891l0.280273,0.063477l0.427734-0.216797l0.141602-0.072266l0.098633-0.048828l0.147461-0.075195
				l0.006836-0.003906l0.253906-0.128906l0.451172-0.056641l0.376953-0.048828l0.080078-0.009766l0.167969-0.021484
				l0.045898-0.044922l0.699219-0.673828l0.068359-0.019531l0.775391-0.219727l0.053711-0.035156l0.174805-0.115234
				l0.273438-0.179688l0.833984-0.548828l0.085938-0.056641l0.333008,0.108398l0.776367-0.427734l0.59375-0.327148
				l0.080078-0.066406l0.179688-0.148438l0.061523-0.050781l0.174805-0.146484l0.400391-0.332031l0.077148-0.063477
				l0.341797-0.070313l0.15625,0.069336l0.178711,0.080078l0.240234,0.383789l0.754883-0.802734l0.489258-0.521484l0.485352-0.34375
				l0.242188-0.171875l0.088867,0.072266h0.000977l0.022461-0.02832l1.146484-1.422852l0.186523-0.232422l0.297852-0.369141
				l0.011719-0.012695l0.023438-0.023438l0.303711-0.310547l1.469727-1.505859l0.720703-0.986328l0.484375-1.069336
				l-0.290039-0.4375L456.858887,463.228516z"/>
		</g>
	</svg>
