<?xml version="1.0" encoding="UTF-8" standalone="no"?>
<!-- Created with Inkscape (http://www.inkscape.org/) -->
<svg id="thailand-stamp" xmlns:rdf="http://www.w3.org/1999/02/22-rdf-syntax-ns#" xmlns="http://www.w3.org/2000/svg" height="783" width="603" version="1.1" xmlns:cc="http://creativecommons.org/ns#" xmlns:dc="http://purl.org/dc/elements/1.1/" viewBox="0 0 607 783">
 <g id="border" transform="translate(1.5 -270.9)">
  <path d="m15 272.4a15 15 0 0 1 -15 15v30a15 15 0 0 1 15 15 15 15 0 0 1 -15 15v30a15 15 0 0 1 15 15 15 15 0 0 1 -15 15v30a15 15 0 0 1 15 15 15 15 0 0 1 -15 15v30a15 15 0 0 1 15 15 15 15 0 0 1 -15 15v30a15 15 0 0 1 15 15 15 15 0 0 1 -15 15v30a15 15 0 0 1 15 15 15 15 0 0 1 -15 15v30a15 15 0 0 1 15 15 15 15 0 0 1 -15 15v30a15 15 0 0 1 15 15 15 15 0 0 1 -15 15v30a15 15 0 0 1 4.012 0.5469 15 15 0 0 1 2.793 1.086 15 15 0 0 1 1.301 0.7461 15 15 0 0 1 3.367 2.957 15 15 0 0 1 2.857 5.23 15 15 0 0 1 0.6699 4.434 15 15 0 0 1 -0.0371 1.061 15 15 0 0 1 -0.1816 1.488 15 15 0 0 1 -1.414 4.256 15 15 0 0 1 -0.7461 1.301 15 15 0 0 1 -0.8711 1.219 15 15 0 0 1 -0.9902 1.127 15 15 0 0 1 -2.291 1.93 15 15 0 0 1 -1.277 0.7832 15 15 0 0 1 -5.693 1.762 15 15 0 0 1 -1.499 0.1v30a15 15 0 0 1 15 15 15 15 0 0 1 -15 15v30a15 15 0 0 1 15 15 15 15 0 0 1 -15 15v30a15 15 0 0 1 15 15 15 15 0 0 1 -15 15v30a15 15 0 0 1 0.006 0 15 15 0 0 1 15 15h30a15 15 0 0 1 15 -15 15 15 0 0 1 15 15h30a15 15 0 0 1 15 -15 15 15 0 0 1 15 15h30a15 15 0 0 1 15 -15 15 15 0 0 1 15 15h30a15 15 0 0 1 15 -15 15 15 0 0 1 15 15h30a15 15 0 0 1 15 -15 15 15 0 0 1 15 15h30a15 15 0 0 1 15 -15 15 15 0 0 1 15 15h30a15 15 0 0 1 15 -15 15 15 0 0 1 15 15h30a15 15 0 0 1 15 -15 15 15 0 0 1 15 15h30a15 15 0 0 1 15 -15 15 15 0 0 1 15 15h30a15 15 0 0 1 14.99 -15v-30a15 15 0 0 1 -15 -15 15 15 0 0 1 15 -15v-30a15 15 0 0 1 -15 -15 15 15 0 0 1 15 -15v-30a15 15 0 0 1 -15 -15 15 15 0 0 1 15 -15v-30a15 15 0 0 1 -1.061 -0.0371 15 15 0 0 1 -1.488 -0.1816 15 15 0 0 1 -5.557 -2.16 15 15 0 0 1 -1.219 -0.8711 15 15 0 0 1 -1.127 -0.9902 15 15 0 0 1 -1.93 -2.291 15 15 0 0 1 -0.7832 -1.277 15 15 0 0 1 -0.6524 -1.35 15 15 0 0 1 -0.8848 -2.861 15 15 0 0 1 -0.2246 -1.482 15 15 0 0 1 -0.0742 -1.498 15 15 0 0 1 0.0371 -1.061 15 15 0 0 1 0.5098 -2.951 15 15 0 0 1 0.4726 -1.424 15 15 0 0 1 1.359 -2.67 15 15 0 0 1 4.152 -4.275 15 15 0 0 1 2.627 -1.436 15 15 0 0 1 1.408 -0.5137 15 15 0 0 1 1.453 -0.3711 15 15 0 0 1 1.482 -0.2246 15 15 0 0 1 1.5 0.3v-30a15 15 0 0 1 -15 -15 15 15 0 0 1 15 -15v-30a15 15 0 0 1 -15 -15 15 15 0 0 1 15 -15v-30a15 15 0 0 1 -15 -15 15 15 0 0 1 15 -15v-30a15 15 0 0 1 -15 -15 15 15 0 0 1 15 -15v-30a15 15 0 0 1 -15 -15 15 15 0 0 1 15 -15v-30a15 15 0 0 1 -15 -15 15 15 0 0 1 15 -15v-30a15 15 0 0 1 -15 -15 15 15 0 0 1 15 -15v-30a15 15 0 0 1 -15 -15 15 15 0 0 1 15 -15v-30a15 15 0 0 1 -15 -15h-30a15 15 0 0 1 -15 15 15 15 0 0 1 -15 -15h-30a15 15 0 0 1 -15 15 15 15 0 0 1 -15 -15h-30a15 15 0 0 1 -15 15 15 15 0 0 1 -15 -15h-30a15 15 0 0 1 -15 15 15 15 0 0 1 -15 -15h-30a15 15 0 0 1 -15 15 15 15 0 0 1 -15 -15h-30a15 15 0 0 1 -15 15 15 15 0 0 1 -15 -15h-30a15 15 0 0 1 -15 15 15 15 0 0 1 -15 -15h-30a15 15 0 0 1 -15 15 15 15 0 0 1 -15 -15h-30a15 15 0 0 1 -15 15 15 15 0 0 1 -15 -15h-30z" stroke="#000" stroke-miterlimit="4.8" stroke-width="3" fill="none"/>
 </g>
 <g id="background" transform="translate(1.5,-218.5)">
  <rect height="650" width="470" y="285" x="65" fill="#18c991"/>
 </g>
 <g id="content" transform="translate(1.5,-218.5)" fill="#fff">
  <g transform="matrix(0 1.001 -.9992 0 0 0)">
   <path style="" d="m319.1-76.77v-83.55h-22.99v28.44h-13.78v-42.38h90.28v42.38h-13.78v-28.44h-22.91v83.55h14.5v13.94h-45.58v-13.94h14.26z"/>
   <path style="" d="m394.5-76.37v-84.35h-14.02v-13.54h29.24v42.78q13.7-11.05 26.03-11.05 7.69 0 12.66 3.204 4.966 3.204 6.729 8.491 1.842 5.207 1.842 15.3v39.17h13.22v13.54h-28.44v-47.42q0-8.812-0.5607-11.78-0.5607-2.964-3.124-4.886-2.483-1.923-5.928-1.923-8.812 0-22.43 10.01v42.46h13.46v13.54h-42.7v-13.54h14.02z"/>
   <path style="" d="m556-76.37v13.54h-26.59v-9.452q-11.05 10.73-24.67 10.73-10.57 0-18.42-6.889-7.77-6.889-7.77-17.62 0-10.81 8.251-17.94 8.331-7.129 20.03-7.129 10.89 0 21.07 6.569v-7.69q0-5.928-1.121-9.132t-5.287-5.768q-4.085-2.563-10.73-2.563-11.45 0-16.58 9.132l-14.58-3.845q9.693-18.1 33.48-18.1 8.731 0 15.06 2.403 6.408 2.323 9.532 6.088 3.124 3.685 4.165 8.01 1.121 4.326 1.121 13.78v35.89h13.06zm-28.12-15.3q-9.853-7.69-19.95-7.69-6.328 0-10.57 3.685-4.246 3.685-4.246 9.532 0 5.447 3.685 9.132 3.765 3.685 10.17 3.685 11.05 0 20.91-9.292v-9.052z"/>
   <path style="" d="m573.4-166.7q0-3.685 2.563-6.408 2.643-2.724 6.649-2.724 3.765 0 6.488 2.643 2.724 2.643 2.724 6.488t-2.724 6.569q-2.724 2.643-6.488 2.643-3.845 0-6.569-2.724-2.643-2.724-2.643-6.488zm2.163 90.36v-50.47h-12.1v-13.54h27.32v64h11.94v13.54h-39.25v-13.54h12.1z"/>
   <path style="" d="m623.3-76.37v-84.35h-13.78v-13.54h29v97.89h11.86v13.54h-40.85v-13.54h13.78z"/>
   <path style="" d="m739.3-76.37v13.54h-26.59v-9.452q-11.05 10.73-24.67 10.73-10.57 0-18.42-6.889-7.77-6.889-7.77-17.62 0-10.81 8.251-17.94 8.331-7.129 20.03-7.129 10.89 0 21.07 6.569v-7.69q0-5.928-1.121-9.132t-5.287-5.768q-4.085-2.563-10.73-2.563-11.45 0-16.58 9.132l-14.58-3.845q9.693-18.1 33.48-18.1 8.731 0 15.06 2.403 6.408 2.323 9.532 6.088 3.124 3.685 4.165 8.01 1.121 4.326 1.121 13.78v35.89h13.06zm-28.12-15.3q-9.853-7.69-19.95-7.69-6.328 0-10.57 3.685-4.246 3.685-4.246 9.532 0 5.447 3.685 9.132 3.765 3.685 10.17 3.685 11.05 0 20.91-9.292v-9.052z"/>
   <path style="" d="m774.7-140.4v9.372q14.66-10.57 26.76-10.57 7.53 0 12.42 3.605 4.966 3.525 6.488 8.731 1.522 5.127 1.522 15.06v37.81h13.06v13.54h-28.28v-50.71q0-8.812-2.643-11.45-2.643-2.724-6.488-2.724-10.09 0-22.83 9.853v41.49h13.38v13.54h-42.22v-13.54h13.62v-50.47h-13.62v-13.54h28.84z"/>
   <path style="" d="m937.8-76.37v13.54h-29.16v-11.37q-11.37 12.66-27.72 12.66-15.14 0-26.59-10.33t-11.45-29.4q0-19.15 11.78-30.2t26.59-11.05q15.7 0 27.4 12.5v-30.68h-14.9v-13.54h30.12v97.89h13.94zm-78.66-25.31q0 12.82 7.209 19.71 7.29 6.889 17.38 6.889 9.773 0 17.3-7.209 7.61-7.29 7.61-20.11 0-12.9-7.77-19.47-7.69-6.569-17.3-6.569-10.33 0-17.38 7.77-7.049 7.69-7.049 18.98z"/>
  </g>
  <path d="m384.2 666 2.272 2.452-1.082 3.464zm-8.804-15.51 6.624 7.976-5.678-2.298zm-91.93 86.66 3.042 1.487-0.1352-5.137zm-2.095 5.678 6.016-0.1352-5.272 7.097zm-16.97 106 2.839 5.948-4.326 1.622zm-18.69 6.129 8.819-1.668-2.298 4.596zm19.77 5.902 6.624-2.298 3.109 7.3-7.841 2.298zm-51.1-63.94 7.706 4.191-0.1352 9.328-5.813 2.163zm114.1-453.8-7.3 20.01 30.28 3.785-0.5408 34.88-11.74 38.11 6.131 7.288 34.81-26.74 22.71 14.6 15.03-4.651 11.2-15.36 24.06 7.3 28.66 34.07-2.163 36.23 30.82 30.82-6.489 43.26-17.84 11.36-8.111-10.27h-45.42l-26.5 5.948-15.68 23.79h-9.193l13.52 43.8-2.704 7.571 6.624 16.22v5.137l-10.95-21.36-1.352 4.326-30.15-26.09-10.14 3.92-24.87-1.622 6.759-31.09-14.6-4.326-22.17 6.759 2.974 10.27-5.408 16.49 1.893 16.76-22.71 37.04-0.5408 12.17-13.52 20.28 1.893 39.75 20.55-0.5408 4.326 25.96 10.54 10.27 5.678 35.69 16.49 21.09 14.06-1.352 10.54 4.056 19.74 24.87-11.09 17.3-9.734-6.489-17.03 10.54-6.489-9.463 5.137-3.245-0.5408-12.71h-8.382l-2.974-8.111-21.36-11.09-4.596 9.193-15.68-15.68 0.8111-9.463-16.49-24.33-3.245 10.82-7.03-20.01-15.05-8.865-1.48 6.436-7.808-3.924 2.433-41.23 11.9-30.82 10.27-13.79 1.352-10.82 31.86-36.1 2.024-15.91-16.85-37.76 4.326-16.22-7.03-20.28-24.6-25.69-3.785-21.09 14.6-4.867 2.974-27.04h9.463l3.245-10.82-8.111 1.622-8.382-15.14 2.163-7.841-30.28-37.85 3.785-4.326-12.71-20.82 14.6-1.622-1.622-12.98 8.382-23.52 7.3-8.111 7.03 5.948 27.58-3.515 3.515-11.09 17.3-1.893-3.245-8.111 22.44-2.433 2.704 7.841 8.652-4.056z" fill-rule="evenodd"/>
 </g>
</svg>
