<?xml version="1.0" encoding="UTF-8" standalone="no"?>
<!-- Created with Inkscape (http://www.inkscape.org/) -->
<svg id="vt-stamp" xmlns:rdf="http://www.w3.org/1999/02/22-rdf-syntax-ns#" xmlns="http://www.w3.org/2000/svg" height="783" width="603" version="1.1" xmlns:cc="http://creativecommons.org/ns#" xmlns:dc="http://purl.org/dc/elements/1.1/" viewBox="0 0 603.00001 783">
 <g id="border" transform="translate(1.5 -270.9)">
  <path d="m15 272.4a15 15 0 0 1 -15 15v30a15 15 0 0 1 15 15 15 15 0 0 1 -15 15v30a15 15 0 0 1 15 15 15 15 0 0 1 -15 15v30a15 15 0 0 1 15 15 15 15 0 0 1 -15 15v30a15 15 0 0 1 15 15 15 15 0 0 1 -15 15v30a15 15 0 0 1 15 15 15 15 0 0 1 -15 15v30a15 15 0 0 1 15 15 15 15 0 0 1 -15 15v30a15 15 0 0 1 15 15 15 15 0 0 1 -15 15v30a15 15 0 0 1 15 15 15 15 0 0 1 -15 15v30a15 15 0 0 1 4.012 0.5469 15 15 0 0 1 2.793 1.086 15 15 0 0 1 1.301 0.7461 15 15 0 0 1 3.367 2.957 15 15 0 0 1 2.857 5.23 15 15 0 0 1 0.6699 4.434 15 15 0 0 1 -0.0371 1.061 15 15 0 0 1 -0.1816 1.488 15 15 0 0 1 -1.414 4.256 15 15 0 0 1 -0.7461 1.301 15 15 0 0 1 -0.8711 1.219 15 15 0 0 1 -0.9902 1.127 15 15 0 0 1 -2.291 1.93 15 15 0 0 1 -1.277 0.7832 15 15 0 0 1 -5.693 1.762 15 15 0 0 1 -1.499 0.1v30a15 15 0 0 1 15 15 15 15 0 0 1 -15 15v30a15 15 0 0 1 15 15 15 15 0 0 1 -15 15v30a15 15 0 0 1 15 15 15 15 0 0 1 -15 15v30a15 15 0 0 1 0.006 0 15 15 0 0 1 15 15h30a15 15 0 0 1 15 -15 15 15 0 0 1 15 15h30a15 15 0 0 1 15 -15 15 15 0 0 1 15 15h30a15 15 0 0 1 15 -15 15 15 0 0 1 15 15h30a15 15 0 0 1 15 -15 15 15 0 0 1 15 15h30a15 15 0 0 1 15 -15 15 15 0 0 1 15 15h30a15 15 0 0 1 15 -15 15 15 0 0 1 15 15h30a15 15 0 0 1 15 -15 15 15 0 0 1 15 15h30a15 15 0 0 1 15 -15 15 15 0 0 1 15 15h30a15 15 0 0 1 15 -15 15 15 0 0 1 15 15h30a15 15 0 0 1 14.99 -15v-30a15 15 0 0 1 -15 -15 15 15 0 0 1 15 -15v-30a15 15 0 0 1 -15 -15 15 15 0 0 1 15 -15v-30a15 15 0 0 1 -15 -15 15 15 0 0 1 15 -15v-30a15 15 0 0 1 -1.061 -0.0371 15 15 0 0 1 -1.488 -0.1816 15 15 0 0 1 -5.557 -2.16 15 15 0 0 1 -1.219 -0.8711 15 15 0 0 1 -1.127 -0.9902 15 15 0 0 1 -1.93 -2.291 15 15 0 0 1 -0.7832 -1.277 15 15 0 0 1 -0.6524 -1.35 15 15 0 0 1 -0.8848 -2.861 15 15 0 0 1 -0.2246 -1.482 15 15 0 0 1 -0.0742 -1.498 15 15 0 0 1 0.0371 -1.061 15 15 0 0 1 0.5098 -2.951 15 15 0 0 1 0.4726 -1.424 15 15 0 0 1 1.359 -2.67 15 15 0 0 1 4.152 -4.275 15 15 0 0 1 2.627 -1.436 15 15 0 0 1 1.408 -0.5137 15 15 0 0 1 1.453 -0.3711 15 15 0 0 1 1.482 -0.2246 15 15 0 0 1 1.5 0.3v-30a15 15 0 0 1 -15 -15 15 15 0 0 1 15 -15v-30a15 15 0 0 1 -15 -15 15 15 0 0 1 15 -15v-30a15 15 0 0 1 -15 -15 15 15 0 0 1 15 -15v-30a15 15 0 0 1 -15 -15 15 15 0 0 1 15 -15v-30a15 15 0 0 1 -15 -15 15 15 0 0 1 15 -15v-30a15 15 0 0 1 -15 -15 15 15 0 0 1 15 -15v-30a15 15 0 0 1 -15 -15 15 15 0 0 1 15 -15v-30a15 15 0 0 1 -15 -15 15 15 0 0 1 15 -15v-30a15 15 0 0 1 -15 -15h-30a15 15 0 0 1 -15 15 15 15 0 0 1 -15 -15h-30a15 15 0 0 1 -15 15 15 15 0 0 1 -15 -15h-30a15 15 0 0 1 -15 15 15 15 0 0 1 -15 -15h-30a15 15 0 0 1 -15 15 15 15 0 0 1 -15 -15h-30a15 15 0 0 1 -15 15 15 15 0 0 1 -15 -15h-30a15 15 0 0 1 -15 15 15 15 0 0 1 -15 -15h-30a15 15 0 0 1 -15 15 15 15 0 0 1 -15 -15h-30a15 15 0 0 1 -15 15 15 15 0 0 1 -15 -15h-30a15 15 0 0 1 -15 15 15 15 0 0 1 -15 -15h-30z" stroke="#000" stroke-miterlimit="4.8" stroke-width="3" fill="none"/>
 </g>
 <g id="background" transform="translate(1.5,-218.5)">
  <rect height="650" width="470" y="285" x="65" fill="#2d3e63"/>
 </g>
 <g id="content" transform="translate(1.5,-218.5)" fill="#fff">
  <g transform="scale(1.001 .9992)">
   <path style="" d="m99.68 367.9-27.94-73.65h-10.29v-10.41h32.85v10.41h-9.633l21.18 55.88 20.64-55.88h-9.693v-10.41h31.95v10.41h-10.11l-27.4 73.65h-11.55z"/>
   <path style="" d="m200.9 341h-48.7q1.077 8.017 6.342 12.98 5.265 4.966 13.46 4.966 11.91 0 18.85-9.573l10.05 4.427q-4.906 7.598-12.74 11.31-7.838 3.65-16.39 3.65-13.28 0-22.74-8.257-9.393-8.316-9.393-22.38 0-13.34 9.154-21.96 9.214-8.616 21.12-8.616 11.67 0 21.12 8.436 9.513 8.376 9.872 25.01zm-11.73-8.257q-1.197-6.103-6.342-11.01-5.145-4.966-12.62-4.966-6.821 0-11.67 4.487-4.846 4.427-5.923 11.49h36.56z"/>
   <path style="" d="m219.6 357v-37.69h-11.67v-10.11h20.76v13.04q1.915-5.086 5.325-8.436 3.41-3.351 7.18-4.427 3.829-1.077 10.41-1.077h2.992v11.49h-2.274q-8.675 0-12.98 1.735-4.248 1.735-6.342 6.342-2.034 4.547-2.034 16.39v12.74h12.62v10.11h-35.66v-10.11h11.67z"/>
   <path style="" d="m269.8 357v-37.69h-9.633v-10.11h21v7.299q10.29-8.197 20.16-8.197 9.932 0 13.7 9.034 11.31-9.034 21.06-9.034 5.624 0 9.214 2.513 3.65 2.453 4.906 6.282 1.256 3.769 1.256 11.19v28.72h10.11v10.11h-21.48v-36.8q0-5.026-0.4786-7.06-0.4188-2.094-2.274-3.41-1.795-1.376-4.368-1.376-7.299 0-16.57 7.479v31.05h9.932v10.11h-21.3v-37.87q0-5.684-1.675-8.197-1.615-2.573-5.564-2.573-6.462 0-16.63 7.479v31.05h10.17v10.11h-31.89v-10.11h10.35z"/>
   <path style="" d="m366.9 338.1q0-13.4 8.855-21.96 8.855-8.616 21.6-8.616 12.5 0 21.48 8.496 8.975 8.436 8.975 22.08t-8.975 22.14q-8.915 8.496-21.48 8.496-12.92 0-21.72-8.616-8.735-8.616-8.735-22.02zm12.03 0q0 8.556 5.325 14.06 5.385 5.445 13.1 5.445 7.838 0 13.1-5.504 5.325-5.564 5.325-14 0-8.496-5.385-14t-13.04-5.504q-8.017 0-13.22 5.624-5.205 5.624-5.205 13.88z"/>
   <path style="" d="m457.2 309.2v7q10.95-7.898 19.98-7.898 5.624 0 9.274 2.692 3.71 2.633 4.846 6.522 1.137 3.829 1.137 11.25v28.24h9.752v10.11h-21.12v-37.87q0-6.581-1.974-8.556-1.974-2.034-4.846-2.034-7.539 0-17.05 7.359v30.99h9.992v10.11h-31.53v-10.11h10.17v-37.69h-10.17v-10.11h21.54z"/>
   <path style="" d="m506.5 319.3v-10.11h7.539v-8.915l11.37-10.41v19.33h10.71v10.11h-10.71v28.12q0 6.761 0.718 8.376 0.7778 1.556 3.769 1.556 3.171 0 6.222-1.197v10.35q-4.368 1.556-8.735 1.556-5.205 0-8.436-2.274-3.231-2.333-4.068-5.804-0.8376-3.47-0.8376-11.97v-28.72h-7.539z"/>
  </g>
  <path fill-rule="evenodd" d="m188.9 465.9-3.686 5.217 5.929-2.413zm-7.437 16.92 4.436 8.535-8.198 14.45 3.913-1.049 3.906 6.474-6.133 10.16-7.887-6.675-0.5266-17.32zm-5.603-10.77 3.61 1.057-0.6706 10.69-4.77 0.6781zm3.894-5.228 2.504 7.596 5.38-20.15-2.739-4.239zm-10.71-12.37 5.16 2.644-3 13.96-4.44-4.773zm19.63-23.22-19.17 1.046 5.523 9.312 2.22 25.37 4.584-23.24 6.024-4.508zm17.41-2.622 76.28-3.743 49.31-0.1818 7.274 18.41 2.909-15.62-4.766-3.084 111.2-8.153-1.811 5.114-6.645 0.7804 7.274 18.41-18.18 34.43 13.44 31.87-15.36 32.6-23.12 12.96-8.115 12.15-14.74-2.122-13 14.5 1.925 19.96 5.561 17.67-11.69 23.21-8.062 28.44-4.023 18.19-13.35 15.77-1.871 19.33-10.32 17.7 1.917 50.47-5.607 27.47 3.258 29.08-12 9.85-1.917 18.49 14.84 26.78-122.7 2.515-2.303-11.58-0.6818-150.4-8.812-8.297-0.4319-7.918-11.37-1.47-2.652 12.68-7.38-5.031 11.68-38.67-6.402-10.1-8.471-48.02 8.228-33.05 12.4-10.29-5.963-9.706 11.12-33.63-12.27-18.14 12.71-4.455-5.22-11.42 5.63-4.069 6.493-34.21-6.721 7.054-0.9395-9.562 3.751-23.19-10.46-0.2652 12.01-17.37 2.281 11.16z"/>
 </g>
</svg>
