<?xml version="1.0" standalone="yes"?>
<!DOCTYPE svg PUBLIC "-//W3C//DTD SVG 1.1//EN" "http://www.w3.org/Graphics/SVG/1.1/DTD/svg11.dtd">
<svg
  xmlns="http://www.w3.org/2000/svg"
  xmlns:xlink="http://www.w3.org/1999/xlink"
  version="1.1"
  width="1566.9"
  height="2550.0"
  viewBox="-5824,-11182 15669,25500">
<g id="state_outline">
<path id="Vermont" d="M 9564,-11171 l 281,-11 -10,25 -20,10 -26,16 -25,15 -20,36 -16,18 -15,15 -15,0 -25,-9 -16,-5 -46,-10 -56,-14 -46,6 -55,15 -41,21 -45,20 -31,26 -25,20 -15,41 1,35 5,25 1,10 -17,16 -17,17 -2,4 -10,17 9,20 5,7 18,18 11,10 15,15 11,26 17,18 15,15 15,5 16,25 15,21 5,25 5,15 11,10 5,0 10,5 10,10 5,15 5,26 -5,20 -4,26 -5,40 5,41 5,25 5,15 2,15 -6,9 -16,7 -9,9 4,26 5,21 11,30 10,35 15,36 16,30 66,66 16,25 15,20 6,20 5,10 10,5 16,10 5,15 -5,15 -5,11 -15,15 -10,15 -15,21 -10,10 -15,16 -26,19 -13,35 -14,27 -15,36 -15,20 -15,26 -20,20 -21,25 -20,26 -40,56 -10,20 -21,15 -15,11 -25,15 -25,8 -20,16 -20,25 -10,26 -5,15 4,32 -10,20 -11,20 -14,26 -5,25 3,35 6,30 10,25 -4,36 -10,30 -10,36 -25,41 -15,26 -45,36 -20,15 -16,10 -16,16 -10,20 -5,25 12,30 11,25 13,30 1,32 -11,30 -10,36 -5,20 -5,31 1,20 -11,20 -15,21 -10,10 -20,10 -26,15 -20,16 -30,20 -31,26 -20,25 -51,86 -25,31 -17,24 -15,25 -40,52 -25,20 -16,11 -15,10 -10,5 -20,5 -15,11 -15,20 1,21 10,25 10,15 16,25 10,30 6,26 5,20 1,25 0,25 16,26 20,9 10,10 14,27 8,19 6,14 22,37 55,84 36,51 16,35 6,28 15,30 10,15 5,26 -5,20 1,30 0,21 6,30 6,25 5,25 9,21 15,30 14,10 25,5 12,5 10,5 0,21 -10,15 -5,15 5,15 5,21 6,25 -5,25 0,21 10,20 20,10 11,10 20,5 25,0 11,5 0,10 -5,5 -16,5 -15,0 -10,5 5,16 10,5 21,5 16,0 25,-6 20,-10 10,-6 16,5 15,10 11,15 0,31 11,25 5,20 0,10 -5,15 -21,13 -10,12 7,21 18,15 15,7 20,14 10,6 21,14 15,6 15,10 9,10 1,7 -11,11 -20,-10 -26,-4 -15,5 5,10 15,10 16,5 15,5 16,15 10,10 0,10 -10,5 -10,-5 -21,-5 -15,0 -5,6 -5,20 1,35 6,56 5,30 6,21 0,15 -10,10 -10,5 -16,1 -30,20 -10,16 5,10 16,-1 20,-5 36,0 10,10 -1,15 -10,12 -10,15 -5,13 17,11 15,-11 13,-12 16,-7 14,11 3,8 0,10 -5,12 -1,8 11,10 21,-9 15,-3 5,6 0,21 11,15 10,15 -4,23 -5,20 -24,26 -20,20 -22,8 -20,6 -10,-15 -1,-21 -10,-15 -10,0 -20,16 0,25 10,25 16,20 10,21 6,20 -10,10 -16,-5 -15,0 -10,1 -10,15 -10,25 -10,16 -15,15 -20,5 -20,6 -27,-5 -25,-5 -31,-5 -45,6 -41,5 -21,5 -20,26 -20,20 -5,25 6,20 10,25 13,27 38,39 51,41 41,30 15,20 10,31 -5,35 -5,30 -15,31 -30,46 -26,25 -61,0 -15,6 -5,15 10,15 16,20 15,20 26,21 20,25 17,29 15,20 8,10 5,10 -1,16 -4,10 -4,6 -10,0 -11,-11 -10,-9 -6,-16 -16,-10 -6,-3 -6,6 -1,18 5,15 3,11 7,9 5,10 0,11 -5,5 -20,0 -15,-10 -16,5 -5,10 -5,15 -10,36 -10,40 -10,26 -15,20 -20,10 -16,10 -25,3 -20,6 -41,0 -20,6 -15,10 -10,20 -5,21 -20,25 -15,21 -20,10 -21,1 -11,0 -16,-5 0,-10 5,-21 -15,-15 -15,0 -16,6 -20,20 -15,20 -10,21 0,15 10,15 10,10 11,10 11,14 6,15 -7,17 -11,14 -27,7 -15,5 -20,6 -20,16 -15,15 -9,18 -5,36 -10,66 -15,45 -20,36 -30,30 -25,8 -26,16 -20,10 -20,16 -5,15 -10,26 -9,20 -26,21 -30,15 -27,17 -29,23 -63,63 -46,25 -35,16 -36,10 -35,5 -36,3 -37,5 -30,6 -26,15 -20,16 -15,25 -15,16 -15,10 -25,1 -16,-5 -15,-10 -40,-30 -16,-5 -21,4 -4,1 -26,10 -30,10 -36,21 -35,15 -46,16 -36,20 -40,19 -40,36 -36,36 -40,51 -19,51 -2,41 0,25 -2,20 6,96 1,46 -10,35 -20,21 -25,21 -41,20 -46,15 -55,21 -30,12 -65,38 -51,24 -36,26 -56,16 -40,6 -38,-5 -46,-15 -41,-20 -35,-25 -36,-20 -31,-15 -30,-10 -26,0 -36,10 -49,14 -46,36 -30,31 -30,25 -25,6 -33,5 -26,0 -40,-5 -26,-4 -30,0 -54,5 -56,10 -48,16 -46,15 -36,18 -51,21 -37,17 -51,26 -64,30 -36,10 -35,16 -36,10 -15,5 -21,10 -15,31 -10,18 -5,30 1,36 -10,30 -10,31 -15,25 -25,26 -30,30 -17,16 -31,12 -25,10 -30,21 -17,23 -10,15 -11,27 -8,31 -20,60 -5,31 5,20 5,10 15,0 10,10 11,15 5,31 0,20 -9,30 4,51 2,30 10,26 10,18 16,25 17,31 10,36 -5,41 -9,30 -15,46 0,31 -4,45 -5,31 -5,25 -4,30 -10,26 -10,35 -11,26 0,30 -5,20 -6,20 -6,15 -9,21 -15,26 -15,45 10,26 6,25 20,40 26,51 25,55 27,56 21,35 25,29 16,15 14,22 13,20 7,15 5,18 -1,32 0,35 -9,41 0,25 6,30 10,20 10,15 6,16 10,25 1,20 0,46 -5,15 -5,10 -15,15 -15,11 -20,10 -20,11 -15,20 -21,24 -11,20 -8,27 0,26 1,25 0,20 11,36 15,40 16,15 10,5 10,0 21,-11 15,-15 20,-21 30,0 16,15 10,20 1,30 -5,41 -10,20 -10,11 -25,15 -20,5 -16,6 -10,15 1,10 20,10 16,10 25,15 11,10 3,16 0,14 -4,15 -16,6 -10,-1 -21,-4 -23,0 -26,1 -20,5 -10,9 -11,10 -4,27 7,14 -6,21 -5,21 -15,30 -20,26 -15,15 -9,10 -20,10 -26,11 -15,15 -5,10 5,15 15,10 21,10 5,15 0,16 -20,15 -26,10 -30,15 -16,16 -20,25 -5,20 0,41 10,20 7,25 -6,16 -11,15 -15,15 -4,12 -3,5 -9,21 -5,17 -1,16 -4,15 -14,7 -26,-3 -22,-11 -14,5 -11,21 0,15 6,25 10,30 16,15 10,20 -5,16 -15,10 -10,-10 -16,-10 -15,-15 -11,-15 -15,-5 -20,0 -15,21 -5,20 0,26 1,30 -10,30 -20,31 -15,31 -15,25 -5,26 6,25 5,25 9,18 8,11 6,15 -1,27 0,25 1,50 -5,21 -5,25 0,10 5,5 16,-5 20,-10 15,-1 21,0 20,5 26,5 36,19 15,10 5,5 0,10 -15,11 -15,5 -10,5 -15,10 -5,21 0,35 -4,26 -15,30 -30,36 -26,21 -40,10 -17,12 -19,18 -2,22 -2,35 11,25 0,30 -5,36 1,35 -5,26 1,30 -10,20 -15,21 -26,20 -26,15 -25,21 -51,35 -65,51 -44,53 -16,24 -12,25 -15,30 -10,25 -17,29 -5,15 -20,16 -30,10 -26,11 -15,5 -5,10 -10,21 6,25 5,25 10,20 16,15 5,20 -4,26 -5,20 -15,10 -21,11 -30,10 -20,6 -31,20 -17,25 -2,41 6,33 7,27 10,61 16,46 5,55 0,51 -15,40 -10,21 -10,30 -11,20 6,21 5,25 7,29 11,37 8,35 -5,35 -10,26 -26,25 -15,25 -15,26 -10,30 -26,46 -25,30 -15,15 -11,16 -15,30 0,20 5,31 2,25 -1,25 -11,25 -12,12 -25,17 -21,10 -35,21 -40,46 -25,40 -25,46 -25,51 -20,31 -25,20 -26,16 -35,21 -36,10 -31,25 -51,30 -35,20 -41,21 -26,16 -25,21 -18,27 -20,26 -30,41 -45,51 -55,66 -16,21 -15,25 -9,41 -11,35 -5,41 -5,50 -2,66 13,45 10,31 5,25 -6,26 -14,35 -15,41 -30,55 -26,51 -25,25 -5,10 -5,21 0,20 5,20 0,25 -10,26 -10,25 -12,19 -6,7 -35,22 -20,21 -9,12 5,25 6,21 0,25 -16,15 -20,31 -10,23 -10,35 0,20 16,41 16,30 9,22 6,25 -4,32 -7,19 -4,7 -14,26 -28,28 -25,26 -28,18 -30,21 -45,31 -81,41 -50,21 -26,20 -30,20 -21,31 -10,25 -10,35 -10,41 -5,40 2,41 5,40 1,42 3,44 -10,61 -16,56 -30,50 -31,56 -24,38 -20,41 -16,45 0,31 2,41 20,23 3,4 14,17 41,35 27,28 21,31 10,30 5,35 0,41 -5,35 -5,30 -20,56 -18,58 -20,36 -11,27 8,28 1,36 3,38 -3,40 -6,38 -19,76 -10,46 -20,116 -18,92 -14,45 -5,46 -4,46 -5,45 -4,46 -10,35 -5,46 -4,20 -10,20 -25,36 -15,21 -17,24 -3,37 -5,40 1,51 5,25 6,35 21,30 41,25 36,10 30,-6 26,5 21,10 10,15 5,20 -14,30 -31,26 -30,36 -15,20 -15,26 -21,39 -10,20 4,21 -7,41 -5,36 16,45 31,45 26,25 21,25 5,15 -4,31 -20,45 -20,36 -10,31 -11,39 -5,36 -8,41 -15,46 -9,35 -40,92 -20,41 -25,45 -36,41 -20,20 -36,31 -25,15 -11,15 -8,22 -9,30 -6,17 -3,11 -6,26 7,36 11,30 5,30 10,36 2,14 3,22 -5,24 -10,41 -10,30 -15,35 -10,36 7,50 5,35 10,28 1,35 -4,18 -9,10 -20,21 -36,35 -25,36 -1,18 6,25 10,25 16,23 5,25 0,30 -5,21 -10,20 -9,13 -11,17 -10,21 -5,22 -5,30 -5,31 4,20 -1,11 -3,55 -7,46 -4,30 -5,30 5,36 16,20 11,30 15,25 21,20 40,63 22,45 22,48 5,25 3,29 -5,25 -11,25 -20,30 -15,21 -10,15 -5,25 0,30 5,26 5,30 10,30 6,31 0,30 5,30 -3,21 -7,20 -10,35 -13,25 -5,7 -64,74 -42,39 -30,31 -25,21 -20,15 -10,25 -5,26 6,35 15,30 16,25 10,25 6,25 0,31 -6,24 -5,26 -1,41 4,55 21,46 36,34 42,30 25,20 11,25 5,18 0,25 -5,20 -25,41 -25,8 -20,10 -20,11 -21,15 -15,11 -15,15 -15,19 -7,21 3,21 3,18 4,11 3,21 1,25 -5,26 -10,25 -15,26 -10,20 -35,26 -15,10 -16,5 -45,0 -16,15 -20,16 -61,25 -62,15 -61,21 -40,8 -25,11 -26,15 -25,16 -25,20 -26,16 -10,20 -9,35 0,21 8,25 13,35 6,25 10,30 6,31 0,20 -5,30 1,36 10,20 1,35 5,30 1,30 -10,26 -15,25 -5,16 -5,20 -7,35 -2,31 -10,35 -10,25 -20,36 -14,30 -30,26 -31,25 -36,25 -15,21 -15,30 -10,45 -10,36 -5,45 2,51 -1,35 12,37 13,34 15,35 10,25 11,26 5,20 0,50 -5,56 0,40 5,35 11,26 15,60 26,81 20,61 21,35 26,40 15,30 25,25 32,35 31,30 25,10 21,15 16,20 15,20 5,15 9,31 5,31 1,26 -3,23 -20,20 0,20 7,20 5,15 19,7 17,-4 26,-25 20,-16 16,-19 25,-6 21,0 18,4 16,10 22,21 20,25 36,25 21,30 15,36 10,30 5,30 1,30 5,31 11,30 37,60 49,76 24,44 11,19 -1256,-34 -1915,-61 -523,-14 -184,-5 -761,-21 -439,-13 -1126,-41 -436,-17 -38,-3 -27,-2 -39,-184 -47,-221 -24,-134 -18,-112 10,-15 6,-5 15,-28 4,-28 0,-35 5,-36 0,-40 1,-32 9,-125 56,15 5,-106 41,-1095 2,-39 6,-179 29,-1117 35,-475 16,-421 19,-478 54,-1371 0,-17 1,-43 32,-1258 9,-188 29,-677 2,-56 0,-55 -5,-31 0,-30 10,-30 10,-31 15,-30 7,-35 1,-14 -5,-31 -14,-30 -10,-27 -9,-30 -4,-30 -2,-12 -2,-14 -3,-41 -15,-45 -16,-25 -15,-25 -11,-11 -15,-14 -41,-41 -21,-14 -40,-22 -40,-21 -25,-17 -18,-24 -6,-11 -10,-10 -19,-11 -20,-1 -25,5 -16,-1 -10,-4 0,-35 11,-21 10,-26 4,-19 0,-15 -2,-13 -3,-12 0,-16 5,-25 5,-38 -5,-33 -5,-40 -18,-33 -33,-28 -10,-20 -10,-9 -5,-10 4,-11 6,-15 0,-16 -1,-10 -10,-15 -5,-10 5,-20 0,-15 -5,-26 -25,5 -21,10 -20,5 -16,-10 -25,-20 -10,-2 -11,0 -30,4 -31,14 -21,-1 -20,-5 -25,1 -15,0 -9,2 -7,3 -40,6 -31,4 -15,-4 -5,-1 -42,3 -14,0 -21,-3 -20,0 -31,-5 -11,4 -20,6 -25,20 0,21 -3,8 -2,7 -15,44 -11,52 1,25 1,8 4,23 -5,25 -21,25 -15,15 -20,21 -16,20 0,40 4,17 1,9 -5,10 -5,15 -5,25 5,26 10,16 5,16 -12,24 -4,7 -9,12 -15,16 -19,14 -11,20 -10,20 -27,14 -9,2 -11,0 -20,-5 -31,-10 -25,-20 -31,-25 -46,-35 -14,-9 -11,-7 -31,-25 -21,-20 -15,-31 -4,-35 6,-35 1,-15 2,-10 15,-36 16,-20 15,-20 5,-26 0,-25 -3,-8 -7,-17 -5,-26 0,-19 20,-20 15,-31 0,-41 -2,-15 -5,-18 -24,-53 -19,-30 -19,-46 -6,-21 -2,-14 0,-25 10,-36 17,-30 11,-20 16,-24 21,-20 10,-11 11,-24 11,-28 16,-25 15,-20 3,-11 7,-20 25,-80 10,-46 8,-31 6,-29 7,-31 5,-36 11,-24 16,-20 16,-19 17,-35 16,-35 11,-30 11,-35 2,-8 7,-16 15,-31 10,-25 21,-15 25,-19 21,-15 30,-22 15,-16 6,-8 13,-23 11,-30 6,-32 -4,-34 1,-30 -2,-24 0,-20 14,-41 16,-41 8,-13 23,-37 15,-26 9,-13 17,-26 15,-26 16,-33 14,-33 3,-21 1,-16 1,-40 -15,-54 -5,-21 -12,-43 -5,-20 -19,-37 -35,-31 -10,-12 -27,-34 -15,-25 -21,-27 -15,-29 -9,-18 -10,-30 -3,-6 -11,-25 -5,-10 -10,-15 -19,-26 -15,-21 -6,-8 -18,-28 -15,-26 1,-20 -3,-14 0,-10 5,-26 16,-25 25,-36 20,-20 16,-15 20,-21 19,-22 16,-20 6,-23 0,-32 -5,-19 -16,-20 -20,-30 -10,-26 -1,-33 1,-8 6,-33 11,-40 12,-45 6,-28 0,-43 -10,-53 -10,-30 -11,-31 -14,-54 -20,-31 -10,-9 -12,-12 -30,-35 -16,-25 -9,-13 -17,-23 -8,-38 -7,-17 -15,-41 -15,-65 -2,-6 -19,-71 -10,-30 -6,-36 -8,-40 1,-36 4,-28 2,-17 7,-41 5,-40 0,-15 -3,-30 -4,-41 -3,-46 -11,-60 -3,-27 -4,-15 -9,-40 -8,-46 -2,-18 0,-31 5,-56 2,-20 5,-37 6,-30 8,-24 8,-21 12,-45 0,-51 -6,-29 -4,-26 -5,-62 -21,-50 -26,-45 -4,-6 -37,-43 -40,-43 -40,-21 -34,-31 -28,-28 -16,-26 -10,-40 -4,-29 1,-15 3,-22 9,-34 9,-21 17,-41 11,-24 20,-47 36,-87 50,-126 50,-129 14,-42 18,-57 4,-24 4,-33 2,-56 0,-28 -5,-26 -4,-22 -2,-13 0,-36 5,-30 22,-37 24,-29 14,-18 12,-17 25,-36 26,-30 15,-41 5,-26 3,-32 7,-63 2,-68 -3,-54 1,-33 1,-35 6,-30 0,-14 3,-14 5,-31 9,-30 37,-41 12,-11 31,-28 33,-31 24,-18 17,-13 15,-10 31,-21 21,-21 29,-34 10,-20 4,-9 22,-55 22,-56 16,-30 7,-7 25,-27 22,-24 25,-21 36,-20 35,-26 41,-25 45,-39 26,-42 31,-66 14,-57 6,-24 5,-25 3,-35 2,-31 3,-29 1,-18 -4,-51 -5,-39 -7,-20 -9,-25 -10,-36 -20,-45 -9,-35 -9,-25 -6,-21 -2,-15 0,-66 -3,-40 -2,-30 -2,-26 -3,-61 -2,-13 -11,-64 -13,-76 -5,-16 -23,-71 -19,-56 -19,-44 -3,-15 -8,-60 0,-51 6,-29 22,-45 6,-22 7,-16 30,-40 21,-31 25,-45 9,-26 6,-20 16,-44 11,-41 11,-40 18,-52 21,-42 21,-47 6,-11 18,-32 25,-46 7,-11 19,-34 30,-102 11,-50 -1,-51 -3,-39 -3,-20 -13,-58 -2,-14 -4,-46 -4,-72 -1,-29 -1,-30 -1,-51 -4,-56 -13,-51 -14,-46 -17,-46 -12,-30 -32,-78 -44,-72 -2,-7 -14,-40 -5,-9 -10,-22 -11,-25 0,-56 -4,-20 -15,-21 -19,-26 -24,-31 -24,-43 -21,-46 -15,-26 -6,-9 -15,-26 -7,-14 -4,-11 -5,-5 -25,-31 -20,-20 -15,-12 -15,-13 -21,-20 -21,-16 -20,-15 -35,-35 -10,-11 -21,-36 -20,-39 -9,-15 -12,-21 -20,-40 -16,-46 -2,-6 -11,-39 -6,-15 -6,-26 9,-40 6,-46 0,-30 -3,-14 -9,-27 -19,-46 -14,-46 -15,-26 -14,-20 -6,-15 -2,-9 0,-41 16,-42 0,-24 -6,-20 0,-45 21,-26 9,-21 16,-15 10,-20 1,-15 -4,-15 -10,-11 -2,-8 0,-11 5,-21 9,-20 11,-10 5,-25 -5,-11 0,-20 10,-20 16,-15 9,-12 3,-7 11,-20 11,-30 6,-27 -9,-26 1,-29 0,-14 3,-18 20,-51 21,-65 40,-108 -45,-42 5,-126 9,-90 10,-65 1,-13 5,-53 2,-23 3,-23 5,-67 11,-35 11,-20 5,-14 8,-16 19,-30 22,-36 10,-31 15,-30 3,-15 2,-15 10,-36 10,-25 22,-48 19,-33 7,-13 8,-13 25,-31 16,-35 5,-30 5,-41 0,-25 -1,-14 -4,-37 -5,-35 -11,-36 -10,-21 -12,-20 -34,-50 -36,-50 -67,-56 -35,-28 -30,-25 -51,-43 -35,-46 -26,-36 -15,-50 1,-32 1,-40 1,-20 2,-15 15,-30 20,-41 26,-36 12,-25 6,-13 13,-73 11,-64 41,-161 18,-69 11,-42 11,-25 21,-29 17,-25 25,-15 15,-15 9,-7 13,-12 15,-18 21,-32 15,-29 2,-17 1,-14 6,-30 -4,-41 0,-9 2,-57 3,-86 0,-9 3,-93 1,-40 11,-25 0,-36 -2,-13 -6,-23 -13,-24 -35,-51 -20,-38 -19,-31 -5,-7 -13,-21 -10,-40 0,-36 6,-24 30,-97 45,-143 1104,-26 92,-1 1093,-27 784,34 1063,-22 1582,27 254,14 255,40 147,20 524,-11 270,4 1307,42 941,-28 504,8 747,-68 509,-7 234,-6 1709,-58 z" />
</g>

</svg>
