<?xml version="1.0" encoding="UTF-8" standalone="no"?>
<!-- Created with Inkscape (http://www.inkscape.org/) -->
<svg id="vietnam-stamp" xmlns:rdf="http://www.w3.org/1999/02/22-rdf-syntax-ns#" xmlns="http://www.w3.org/2000/svg" height="783" width="603" version="1.1" xmlns:cc="http://creativecommons.org/ns#" xmlns:dc="http://purl.org/dc/elements/1.1/" viewBox="0 0 603.00001 783">
 <g id="border" transform="translate(1.5 -270.9)">
  <path d="m15 272.4a15 15 0 0 1 -15 15v30a15 15 0 0 1 15 15 15 15 0 0 1 -15 15v30a15 15 0 0 1 15 15 15 15 0 0 1 -15 15v30a15 15 0 0 1 15 15 15 15 0 0 1 -15 15v30a15 15 0 0 1 15 15 15 15 0 0 1 -15 15v30a15 15 0 0 1 15 15 15 15 0 0 1 -15 15v30a15 15 0 0 1 15 15 15 15 0 0 1 -15 15v30a15 15 0 0 1 15 15 15 15 0 0 1 -15 15v30a15 15 0 0 1 15 15 15 15 0 0 1 -15 15v30a15 15 0 0 1 4.012 0.5469 15 15 0 0 1 2.793 1.086 15 15 0 0 1 1.301 0.7461 15 15 0 0 1 3.367 2.957 15 15 0 0 1 2.857 5.23 15 15 0 0 1 0.6699 4.434 15 15 0 0 1 -0.0371 1.061 15 15 0 0 1 -0.1816 1.488 15 15 0 0 1 -1.414 4.256 15 15 0 0 1 -0.7461 1.301 15 15 0 0 1 -0.8711 1.219 15 15 0 0 1 -0.9902 1.127 15 15 0 0 1 -2.291 1.93 15 15 0 0 1 -1.277 0.7832 15 15 0 0 1 -5.693 1.762 15 15 0 0 1 -1.499 0.1v30a15 15 0 0 1 15 15 15 15 0 0 1 -15 15v30a15 15 0 0 1 15 15 15 15 0 0 1 -15 15v30a15 15 0 0 1 15 15 15 15 0 0 1 -15 15v30a15 15 0 0 1 0.006 0 15 15 0 0 1 15 15h30a15 15 0 0 1 15 -15 15 15 0 0 1 15 15h30a15 15 0 0 1 15 -15 15 15 0 0 1 15 15h30a15 15 0 0 1 15 -15 15 15 0 0 1 15 15h30a15 15 0 0 1 15 -15 15 15 0 0 1 15 15h30a15 15 0 0 1 15 -15 15 15 0 0 1 15 15h30a15 15 0 0 1 15 -15 15 15 0 0 1 15 15h30a15 15 0 0 1 15 -15 15 15 0 0 1 15 15h30a15 15 0 0 1 15 -15 15 15 0 0 1 15 15h30a15 15 0 0 1 15 -15 15 15 0 0 1 15 15h30a15 15 0 0 1 14.99 -15v-30a15 15 0 0 1 -15 -15 15 15 0 0 1 15 -15v-30a15 15 0 0 1 -15 -15 15 15 0 0 1 15 -15v-30a15 15 0 0 1 -15 -15 15 15 0 0 1 15 -15v-30a15 15 0 0 1 -1.061 -0.0371 15 15 0 0 1 -1.488 -0.1816 15 15 0 0 1 -5.557 -2.16 15 15 0 0 1 -1.219 -0.8711 15 15 0 0 1 -1.127 -0.9902 15 15 0 0 1 -1.93 -2.291 15 15 0 0 1 -0.7832 -1.277 15 15 0 0 1 -0.6524 -1.35 15 15 0 0 1 -0.8848 -2.861 15 15 0 0 1 -0.2246 -1.482 15 15 0 0 1 -0.0742 -1.498 15 15 0 0 1 0.0371 -1.061 15 15 0 0 1 0.5098 -2.951 15 15 0 0 1 0.4726 -1.424 15 15 0 0 1 1.359 -2.67 15 15 0 0 1 4.152 -4.275 15 15 0 0 1 2.627 -1.436 15 15 0 0 1 1.408 -0.5137 15 15 0 0 1 1.453 -0.3711 15 15 0 0 1 1.482 -0.2246 15 15 0 0 1 1.5 0.3v-30a15 15 0 0 1 -15 -15 15 15 0 0 1 15 -15v-30a15 15 0 0 1 -15 -15 15 15 0 0 1 15 -15v-30a15 15 0 0 1 -15 -15 15 15 0 0 1 15 -15v-30a15 15 0 0 1 -15 -15 15 15 0 0 1 15 -15v-30a15 15 0 0 1 -15 -15 15 15 0 0 1 15 -15v-30a15 15 0 0 1 -15 -15 15 15 0 0 1 15 -15v-30a15 15 0 0 1 -15 -15 15 15 0 0 1 15 -15v-30a15 15 0 0 1 -15 -15 15 15 0 0 1 15 -15v-30a15 15 0 0 1 -15 -15h-30a15 15 0 0 1 -15 15 15 15 0 0 1 -15 -15h-30a15 15 0 0 1 -15 15 15 15 0 0 1 -15 -15h-30a15 15 0 0 1 -15 15 15 15 0 0 1 -15 -15h-30a15 15 0 0 1 -15 15 15 15 0 0 1 -15 -15h-30a15 15 0 0 1 -15 15 15 15 0 0 1 -15 -15h-30a15 15 0 0 1 -15 15 15 15 0 0 1 -15 -15h-30a15 15 0 0 1 -15 15 15 15 0 0 1 -15 -15h-30a15 15 0 0 1 -15 15 15 15 0 0 1 -15 -15h-30a15 15 0 0 1 -15 15 15 15 0 0 1 -15 -15h-30z" stroke="#000" stroke-miterlimit="4.8" stroke-width="3" fill="none"/>
 </g>
 <g id="background" transform="translate(1.5,-218.5)">
  <rect height="650" width="470" y="285" x="65" fill="#c83737"/>
 </g>
 <g id="content" transform="translate(1.5,-218.5)" fill="#fff">
  <g transform="scale(1.001 .9992)">
   <path style="" d="m111.4 813.1-37.98-100.1h-13.99v-14.15h44.65v14.15h-13.1l28.79 75.97 28.06-75.97h-13.18v-14.15h43.43v14.15h-13.75l-37.25 100.1h-15.7z"/>
   <path style="" d="m193.3 706.5q0-3.741 2.603-6.507 2.684-2.765 6.751-2.765 3.823 0 6.588 2.684t2.765 6.588-2.765 6.67q-2.765 2.684-6.588 2.684-3.904 0-6.67-2.765-2.684-2.765-2.684-6.588zm2.196 91.75v-51.24h-12.28v-13.75h27.74v64.99h12.12v13.75h-39.85v-13.75h12.28z"/>
   <path style="" d="m316 776.5h-66.21q1.464 10.9 8.622 17.65 7.158 6.751 18.3 6.751 16.19 0 25.62-13.01l13.66 6.019q-6.67 10.33-17.32 15.37-10.65 4.961-22.29 4.961-18.06 0-30.91-11.22-12.77-11.31-12.77-30.42 0-18.14 12.44-29.85 12.53-11.71 28.71-11.71 15.86 0 28.71 11.47 12.93 11.39 13.42 34zm-15.94-11.22q-1.627-8.296-8.622-14.97-6.995-6.751-17.16-6.751-9.272 0-15.86 6.1-6.588 6.019-8.052 15.62h49.7z"/>
   <path style="" d="m327 747v-13.75h10.25v-12.12l15.45-14.15v26.27h14.56v13.75h-14.56v38.23q0 9.191 0.976 11.39 1.057 2.115 5.124 2.115 4.311 0 8.459-1.627v14.07q-5.937 2.115-11.87 2.115-7.076 0-11.47-3.091-4.392-3.172-5.531-7.89-1.139-4.717-1.139-16.27v-39.04h-10.25z"/>
   <path style="" d="m93.53 858.2v9.516q14.88-10.74 27.17-10.74 7.646 0 12.61 3.66 5.043 3.579 6.588 8.866 1.545 5.205 1.545 15.29v38.39h13.26v13.75h-28.71v-51.49q0-8.947-2.684-11.63-2.684-2.765-6.588-2.765-10.25 0-23.18 10v42.13h13.58v13.75h-42.86v-13.75h13.83v-51.24h-13.83v-13.75h29.28z"/>
   <path style="" d="m241.7 923.2v13.75h-27v-9.598q-11.22 10.9-25.05 10.9-10.74 0-18.71-6.995-7.89-6.995-7.89-17.89 0-10.98 8.378-18.22 8.459-7.239 20.33-7.239 11.06 0 21.39 6.67v-7.808q0-6.019-1.139-9.272t-5.368-5.856q-4.148-2.603-10.9-2.603-11.63 0-16.84 9.272l-14.8-3.904q9.842-18.38 34-18.38 8.866 0 15.29 2.44 6.507 2.359 9.679 6.182 3.172 3.741 4.229 8.134 1.139 4.392 1.139 13.99v36.44h13.26zm-28.55-15.54q-10-7.808-20.25-7.808-6.426 0-10.74 3.741-4.311 3.741-4.311 9.679 0 5.531 3.741 9.272 3.823 3.741 10.33 3.741 11.22 0 21.23-9.435v-9.191z"/>
   <path style="" d="m262.4 923.2v-51.24h-13.1v-13.75h28.55v9.923q13.99-11.14 27.41-11.14 13.5 0 18.63 12.28 15.37-12.28 28.63-12.28 7.646 0 12.53 3.416 4.961 3.335 6.67 8.54 1.708 5.124 1.708 15.21v39.04h13.75v13.75h-29.2v-50.02q0-6.832-0.6507-9.598-0.5694-2.847-3.091-4.636-2.44-1.871-5.937-1.871-9.923 0-22.53 10.17v42.21h13.5v13.75h-28.96v-51.49q0-7.727-2.277-11.14-2.196-3.497-7.564-3.497-8.784 0-22.61 10.17v42.21h13.83v13.75h-43.35v-13.75h14.07z"/>
  </g>
  <path d="m273.6 345.2-23.75 44.19 6.629 25.96-8.286 16.02 9.944 38.12 45.85 14.36 44.75 17.68 79 12.15 69.61 63.53 19.33 52.48-35.7 70.43-6.146-1.174-6.767 3.66 6.925 14.66-7.349 6.562 7.966 2.561 1.716 11.55-9.824 5.234 3.848 8.359-15.43 21.79 1.12 17.09-6.692 11.23-9.979 3.196 6.33-7.644-3.131-4.182-3.181 3.744-19.27-35.03 2.21-7.734-22.1 1.105-0.5524-8.839 6.629-6.077 1.657-18.23 14.36-16.02 8.286 4.972 9.391-6.629-5.524-8.286h-12.15l-7.734-9.944 4.419-10.5 11.05-2.21-7.182-12.71 25.96-27.62-0.5524-8.839-35.36-40.33-9.391-0.5524-0.5524-17.68-18.23-27.07-20.99-3.867 3.315-14.36-32.04 5.524-12.71-12.71-28.17-6.629-28.73-11.05-11.6 3.315-8.839-12.15-50.82 6.077 2.762-18.23 12.71-7.734 1.657-17.13-24.86-1.657 1.105-8.286-20.44-2.21-3.867 15.47-21.54 7.734-19.89-12.71-2.21-13.26-6.629 8.286-30.94-10.5v-17.13l20.99-1.105 3.315-19.89 7.182 0.5524 2.21-4.419 14.36 1.105-1.105-15.47 6.629 3.867 9.944-13.26-2.762-12.71 11.05-16.02 24.86 5.524 20.99-18.23 9.391 2.21-1.657 12.71 16.57 12.15 28.73-1.657 8.839-9.944z" fill-rule="evenodd"/>
 </g>
</svg>
