<?xml version="1.0" encoding="UTF-8" standalone="no"?>
<!-- Created with Inkscape (http://www.inkscape.org/) -->

<svg
   xmlns:svg="http://www.w3.org/2000/svg"
   xmlns="http://www.w3.org/2000/svg"
   version="1.1"
   width="709"
   height="470"
   viewBox="0 0 709 470"
   id="svg3907">
  <defs
     id="defs3911" />
  <path
     d="m 215.48525,467.63127 c -1.04784,-1.04785 -3.23112,-1.53836 -6.51773,-1.46431 -2.71815,0.0612 -4.94209,-0.25556 -4.94209,-0.70399 0,-0.44844 -0.5625,-0.89093 -1.25,-0.98333 -6.00384,-0.8069 -8.75,-1.52082 -8.75,-2.27475 0,-0.48982 -1.7372,-0.89059 -3.86045,-0.89059 -2.4562,0 -5.18435,-0.89842 -7.5,-2.46986 -2.00175,-1.35843 -3.63955,-2.2426 -3.63955,-1.96482 0,0.27778 -0.94241,6.9e-4 -2.09424,-0.61576 -1.37828,-0.73763 -1.92309,-1.77527 -1.59362,-3.03518 0.27534,-1.05291 0.0927,-1.91438 -0.40576,-1.91438 -1.30664,0 -1.11839,-2.76266 0.21862,-3.20833 1.47932,-0.49311 1.39038,-4.53618 -0.1824,-8.29167 -1.73186,-4.13534 -2.16055,-10.53247 -0.81449,-12.15436 0.8522,-1.02684 0.75775,-1.34564 -0.39868,-1.34564 -2.35943,0 -3.1108,-3.24797 -1.09273,-4.72362 0.96006,-0.70201 1.20955,-1.27638 0.55443,-1.27638 -0.65512,0 -1.19113,-0.70737 -1.19113,-1.57193 0,-0.86456 -1.16776,-3.56456 -2.59502,-6 -1.42726,-2.43544 -2.29512,-4.42807 -1.92857,-4.42807 0.36654,0 -0.0407,-0.70714 -0.90498,-1.57143 -0.86429,-0.86428 -1.57143,-2.16285 -1.57143,-2.88569 0,-0.72285 -0.67223,-2.6032 -1.49384,-4.17857 -0.82161,-1.57537 -1.49661,-2.50137 -1.5,-2.05777 -0.003,0.44359 -1.35616,0.009 -3.00616,-0.96561 -1.65,-0.97468 -3,-2.0811 -3,-2.45871 0,-0.37761 -1.2375,-1.18641 -2.75,-1.79734 -1.5125,-0.61092 -4.27905,-2.22994 -6.14788,-3.59782 -4.27425,-3.12851 -6.77624,-3.12832 -12.25005,8.9e-4 -4.48987,2.56674 -11.85207,3.42992 -11.85207,1.38961 0,-0.82145 -0.35721,-0.82599 -1.33204,-0.017 -0.98532,0.81774 -1.82147,0.74763 -3.21226,-0.26934 -1.59664,-1.1675 -1.67891,-1.61739 -0.54551,-2.98306 1.12962,-1.3611 1.09423,-1.60821 -0.23033,-1.60821 -1.0212,0 -1.43259,-0.68766 -1.18391,-1.97897 0.20961,-1.08844 -0.0486,-2.24453 -0.57373,-2.5691 -0.52516,-0.32457 -0.73312,-0.94889 -0.46211,-1.38738 0.271,-0.43849 -0.38977,-1.59591 -1.46838,-2.57203 -1.70073,-1.53914 -2.66017,-1.63659 -7.22642,-0.734 -6.943654,1.37253 -12.897854,0.36006 -14.288694,-2.4297 -1.05118,-2.10845 -1.11073,-2.11328 -3.52294,-0.28588 -1.4071,1.06597 -3.34585,1.63722 -4.54535,1.33927 -1.36319,-0.3386 -3.21086,0.42219 -5.30522,2.18448 -2.71989,2.28864 -3.57713,2.53836 -5.58038,1.62562 -3.24964,-1.48059 -6.52273,-4.3948 -6.52273,-5.80751 0,-1.12372 -2.15841,-2.38475 -4.08179,-2.38475 -0.50502,0 -0.91821,0.84752 -0.91821,1.88337 0,1.9853 -3.59656,3.57842 -4.55984,2.01981 -0.51243,-0.82913 0.0241,-6.5805 1.2037,-12.90318 0.6744,-3.61481 0.5245,-33.91857 -0.17337,-35.04775 -0.32369,-0.52374 -0.14229,-0.95225 0.4031,-0.95225 0.5454,0 1.27728,-0.9 1.62641,-2 0.84315,-2.65653 2.88677,-2.58702 2.19076,0.0745 -0.29837,1.14098 0.0913,4.50784 0.86595,7.4819 0.77464,2.97406 1.18773,6.87803 0.91796,8.67548 -1.00135,6.67204 -1.06876,8.76812 -0.28198,8.76812 0.44402,0 0.80731,-1.39814 0.80731,-3.10699 0,-2.34148 0.36706,-2.96613 1.48981,-2.5353 1.00193,0.38449 1.69489,-0.24542 2.11607,-1.92355 0.47245,-1.88239 1.08898,-2.34839 2.51019,-1.89732 2.55455,0.81078 2.38703,0.0547 -1.11607,-5.03684 -3.43568,-4.99358 -3.72991,-6.97549 -1.25,-8.4199 1.56287,-0.91029 1.5094,-1.02253 -0.5,-1.04969 -2.66438,-0.036 -2.80359,-0.61968 -0.65925,-2.76402 1.24286,-1.24286 1.76185,-1.31391 2.37311,-0.32486 0.59146,0.95699 1.42338,0.70854 3.40925,-1.01815 1.44479,-1.25623 2.62689,-2.6392 2.62689,-3.07326 0,-1.32083 -6.87397,-0.62093 -7.40143,0.75361 -0.29941,0.78025 -1.52431,1.09596 -3.12555,0.8056 -1.65894,-0.30082 -2.39672,-0.0949 -1.99408,0.55659 0.3515,0.56874 -0.0625,1.03408 -0.91992,1.03408 -0.89871,0 -1.55902,-0.85757 -1.55902,-2.02475 0,-1.18971 -0.94383,-2.38359 -2.28853,-2.89485 -1.67676,-0.6375 -2.34912,-1.76701 -2.51518,-4.22525 -0.12465,-1.84533 -0.51855,-4.93015 -0.87532,-6.85515 -0.35677,-1.925 -0.66522,-6.5375 -0.68544,-10.25 -0.0202,-3.7125 -0.23437,-6.75 -0.4759,-6.75 -0.24153,0 -1.01446,0.78679 -1.71763,1.74843 -0.70316,0.96163 -1.48174,1.52413 -1.73018,1.25 -0.24843,-0.27414 -0.73491,-7.47343 -1.08108,-15.99843 -0.72701,-17.90447 -4.01986,-33.61327 -6.99309,-33.36111 -1.171,0.0993 -1.63765,-0.6843 -1.63765,-2.75 0,-1.80121 -0.52394,-2.88889 -1.39159,-2.88889 -1.72227,0 -2.45798,-2.81374 -3.1893,-12.19755 -0.78231,-10.038 -3.32523,-25.28491 -5.01664,-30.07888 -0.77136,-2.18626 -1.40966,-5.15595 -1.41844,-6.5993 -0.009,-1.47214 -1.32605,-4.1106 -3,-6.00978 -1.64122,-1.86203 -2.98403,-4.05151 -2.98403,-4.86552 0,-1.64877 -7.87965,-9.24897 -9.58904,-9.24897 -1.31399,0 -3.41096,-4.33235 -3.41096,-7.04705 0,-1.07412 -0.39145,-1.95295 -0.8699,-1.95295 -1.1844004,0 -3.2863804,-11.11581 -3.3454704,-17.69171 -0.0265,-2.9442 -0.43882,-5.59457 -0.91637,-5.88971 -0.47754,-0.29514 -0.86826,-1.41006 -0.86826,-2.4776 0,-1.06754 -0.675,-1.94098 -1.5,-1.94098 -2.1912,0 -1.84193,-1.33015 1.06681,-4.06277 2.05892,-1.93425 2.45083,-3.02963 1.98067,-5.53582 -0.38952,-2.07633 -0.11111,-3.51868 0.82995,-4.29969 0.77886,-0.64639 1.18507,-2.05871 0.9027,-3.13849 -0.28383,-1.08537 -0.0141,-1.96323 0.60324,-1.96323 1.7893404,0 1.2899404,-2.82669 -0.88337,-5 -1.1,-1.1 -2,-2.4125 -2,-2.91667 0,-0.50416 -0.5625,-1.10599 -1.25,-1.33738 -2.35208,-0.79164 1.30958,-3.746865 4.62244,-3.730645 3.5246504,0.01726 5.0659504,0.797143 5.8986704,2.984695 0.42839,1.12538 0.59071,1.02424 0.64994,-0.404993 0.0704,-1.698071 0.26903,-1.747696 1.82895,-0.45687 0.9625,0.796463 2.9875,2.067253 4.5,2.823973 1.5125,0.75672 2.75,1.74981 2.75,2.20687 0,0.45706 0.67108,0.83102 1.4913,0.83102 0.82022,0 2.75296,1.3202 4.29498,2.93378 3.47736,3.63873 12.62662,7.35357 16.88627,6.85628 1.75294,-0.20464 3.02502,-0.10973 2.82685,0.21091 -0.19817,0.32065 1.96632,2.13911 4.80998,4.04102 2.84367,1.9019 6.03577,4.23483 7.09356,5.18428 4.20899,3.77792 16.80324,5.80686 27.98196,4.50793 5.77679,-0.67124 7.18098,-0.53206 8.72448,0.86479 1.367234,1.23733 2.846214,1.50382 5.760024,1.03788 2.97434,-0.47561 4.0589,-0.26611 4.49414,0.86811 0.66512,1.73329 3.63646,2.03772 3.63646,0.37258 0,-0.78512 0.44228,-0.75539 1.47165,0.0989 2.31006,1.91718 8.36716,2.93015 11.73883,1.96317 1.77385,-0.50874 3.73863,-0.50787 4.64981,0.002 1.78508,0.99898 7.13971,-1.30672 7.13971,-3.07436 0,-0.59472 0.63066,-0.8393 1.40146,-0.54352 0.86167,0.33066 1.61868,-0.29282 1.96541,-1.6187 0.56106,-2.14553 0.57356,-2.14645 2.45532,-0.18081 1.04026,1.08664 3.02156,2.93369 4.40289,4.10457 1.65663,1.40423 2.73646,3.61672 3.17239,6.5 0.36349,2.40412 1.09713,5.04613 1.63031,5.87113 0.68124,1.05409 0.78419,0.53459 0.34632,-1.74752 -0.773,-4.02875 0.89181,-6.25248 4.68096,-6.25248 1.91958,0 3.00872,0.6256 3.43669,1.97402 0.34459,1.08571 1.95521,2.92012 3.57915,4.07646 1.62394,1.15635 2.69577,2.51804 2.38184,3.02599 -0.31393,0.50794 -0.0942,0.92353 0.48824,0.92353 1.74098,0 1.20828,-1.75983 -1.28845,-4.25656 -1.2911,-1.29111 -2.27581,-3.32002 -2.18824,-4.5087 0.19217,-2.6085 3.2824,-6.23474 5.31314,-6.23474 1.15923,0 1.21813,-0.30042 0.28045,-1.43026 -0.94338,-1.13671 -0.81302,-1.63042 0.63518,-2.40547 2.43821,-1.30489 6.33223,1.8145 6.23665,4.99602 -0.0779,2.59159 -1.7478,7.10965 -1.85942,5.03069 -0.0387,-0.71996 -0.47804,-1.05701 -0.97641,-0.749 -1.12482,0.69518 -0.20804,4.55802 1.08177,4.55802 0.51831,0 0.68349,0.41891 0.36706,0.9309 -0.31644,0.512 -0.11799,1.21356 0.44098,1.55902 0.59406,0.36715 1.02952,-0.53896 1.04811,-2.1809 0.0405,-3.57912 2.38694,-6.74605 4.42016,-5.96583 1.01587,0.38983 1.55273,1.89395 1.56169,4.37543 0.008,2.07976 0.285,4.79388 0.61664,6.03138 0.48628,1.81458 0.19336,2.25 -1.51366,2.25 -2.84942,0 -2.67743,1.06878 1.06408,6.61265 1.74939,2.59211 3.27761,5.65217 3.39605,6.80013 0.11843,1.14797 0.5396,3.09972 0.93592,4.33722 0.62248,1.94367 0.36433,2.25 -1.89605,2.25 -1.60009,0 -2.61663,0.55454 -2.61663,1.42742 0,0.78508 -1.10922,2.29993 -2.46493,3.36633 -2.2138,1.74138 -2.97865,3.65095 -5.24902,13.10487 -0.41378,1.72302 -0.23432,2.18744 0.63714,1.64885 0.66723,-0.41237 0.98189,-1.35243 0.69924,-2.08902 -0.28266,-0.73659 0.58666,-2.96106 1.93182,-4.94326 1.34516,-1.9822 2.44649,-3.92152 2.44739,-4.3096 0.003,-1.16658 8.42927,-8.72674 9.37613,-8.4121 0.48277,0.16043 0.60142,-0.73998 0.26365,-2.0009 -0.33776,-1.26092 -0.62026,-3.12823 -0.62777,-4.14958 -0.008,-1.14092 -0.53185,-1.65813 -1.35753,-1.34129 -0.96255,0.36936 -1.21322,-0.16777 -0.88342,-1.89302 0.25325,-1.32478 0.78312,-2.4087 1.17749,-2.4087 0.39437,0 2.52853,1.6875 4.74258,3.75 2.85257,2.65731 4.23903,4.91487 4.75817,7.74771 0.40295,2.19874 1.22489,4.30194 1.82654,4.67378 0.76901,0.47528 0.70538,1.14423 -0.21423,2.25229 -0.87569,1.05515 -0.93708,1.57622 -0.18569,1.57622 0.61734,0 1.051,0.3375 0.96368,0.75 -0.0873,0.4125 0.20326,1.58292 0.64572,2.60092 0.98723,2.27141 -0.81719,3.61228 -4.88997,3.63377 l -2.90301,0.0153 2.40301,2.08284 c 2.33801,2.0265 2.85612,4.19644 3.26329,13.66716 0.0768,1.7875 0.47722,3.25 0.88972,3.25 1.99766,0 0.38303,1.93974 -2.5,3.00338 -1.7875,0.65947 -2.6847,1.41692 -1.99377,1.68324 0.69093,0.26631 1.03338,0.84478 0.76101,1.28548 -0.27237,0.44071 0.17483,1.35737 0.99377,2.03704 1.68712,1.40018 2.00026,5.55684 0.48899,6.49086 -0.55,0.33992 -1,1.12748 -1,1.75015 0,1.8526 2.93357,-2.59506 2.9682,-4.50015 0.0175,-0.9625 0.42066,-1.75 0.89594,-1.75 0.98857,0 4.17471,7.86565 4.40054,10.86366 0.0828,1.09878 0.50708,1.7774 0.94291,1.50804 0.43582,-0.26935 0.82412,0.0993 0.86287,0.81928 0.0388,0.71996 0.7191,-0.46195 1.51187,-2.62647 1.29325,-3.53095 1.26159,-4.40467 -0.30799,-8.5 -0.96216,-2.51048 -1.61511,-5.16039 -1.45099,-5.8887 0.16412,-0.7283 -0.21774,-1.94609 -0.84857,-2.70619 -1.6359,-1.97115 -0.16225,-3.73861 2.6663,-3.1979 1.32366,0.25303 2.66877,0.036 2.98914,-0.48242 0.64036,-1.03612 -2.20125,-4.03577 -4.74146,-5.00516 -0.88618,-0.33818 -1.83564,-1.47303 -2.10993,-2.52188 -0.59638,-2.28056 3.57195,-10.52047 4.79839,-9.4854 0.47127,0.39773 0.32892,0.0258 -0.31633,-0.82647 -0.64524,-0.85229 -1.47896,-3.46196 -1.85271,-5.79927 -0.57175,-3.57547 -0.34074,-4.56529 1.45613,-6.23934 1.17463,-1.09426 2.13569,-2.64709 2.13569,-3.45067 0,-0.80357 0.45857,-1.46104 1.01905,-1.46104 0.57525,0 0.75771,-1.04126 0.41897,-2.39091 -0.33004,-1.31499 -0.11361,-2.69155 0.48095,-3.05901 0.59457,-0.36746 1.08103,-2.00281 1.08103,-3.6341 0,-2.50007 0.47452,-3.06088 3.02081,-3.57014 3.102,-0.6204 4.22335,-1.67552 4.59996,-4.32826 0.11849,-0.83467 0.55533,-2.64258 0.97075,-4.01758 0.66151,-2.18955 0.56019,-2.3401 -0.81592,-1.21236 -1.3269,1.08741 -1.89188,0.88 -3.63327,-1.33383 -1.13413,-1.4418 -2.53011,-2.33218 -3.10219,-1.97862 -0.57208,0.35356 -1.04014,0.0492 -1.04014,-0.67639 0,-0.72558 -1.125,-2.5325 -2.5,-4.01537 -1.78324,-1.92315 -2.5,-3.82037 -2.5,-6.61734 0,-2.25267 -0.63359,-4.44703 -1.48899,-5.15695 -0.81894,-0.67967 -1.2739,-1.58378 -1.01101,-2.00914 0.26289,-0.42536 -0.19207,-1.32947 -1.01101,-2.00914 -1.2146,-1.00802 -1.48899,-0.93676 -1.48899,0.3867 0,0.89234 -0.41968,1.62244 -0.93261,1.62244 -2.12561,0 -2.23169,4.19621 -0.16178,6.39953 1.15191,1.22615 2.09439,2.55751 2.09439,2.95857 0,0.40105 1.125,1.94245 2.5,3.42533 1.375,1.48287 2.5,3.26323 2.5,3.95635 0,0.69312 0.375,1.26022 0.83333,1.26022 0.45834,0 0.83334,0.61326 0.83334,1.3628 0,2.44446 -3.23197,0.59987 -5.13257,-2.92933 -1.01697,-1.88841 -2.4673,-3.43347 -3.22296,-3.43347 -0.75565,0 -1.62203,-0.64659 -1.92528,-1.43686 -0.30326,-0.79027 -1.07664,-1.245 -1.71862,-1.0105 -1.84346,0.67335 -3.16049,-0.7604 -4.33969,-4.7243 -1.4825,-4.98346 -1.05484,-11.24391 0.90176,-13.2005 1.19176,-1.19177 1.73092,-1.2876 2.07558,-0.36891 0.31908,0.85051 0.95258,0.61168 2.01304,-0.75893 1.24034,-1.6031 1.79893,-1.75194 2.81475,-0.75 1.79233,1.76783 2.55261,1.56144 3.1872,-0.86523 0.60623,-2.31821 -1.15466,-5.88477 -2.90544,-5.88477 -0.60746,0 -1.91895,-0.9 -2.91444,-2 -0.99549,-1.1 -2.86523,-2 -4.15499,-2 -1.28975,0 -2.29172,-0.3375 -2.22659,-0.75 0.38544,-2.44112 -0.31837,-4.250008 -1.6536,-4.250008 -1.2038,0 -1.31346,0.414305 -0.50799,1.919338 0.73218,1.3681 0.69525,2.02998 -0.1286,2.30459 -0.63568,0.2119 0.49291,1.35802 2.50799,2.54695 3.92427,2.31537 4.44011,3.78517 2.33758,6.66055 -1.41923,1.94092 -5.6738,1.43617 -5.6738,-0.67312 0,-0.60881 -1.125,-0.05 -2.5,1.2417 -1.375,1.29175 -2.5,3.13269 -2.5,4.09098 0,0.95829 -0.52579,1.91762 -1.16842,2.13183 -0.64263,0.21421 0.41774,1.14215 2.35638,2.06209 3.10813,1.47491 3.69805,2.38181 4.99041,7.67188 0.80608,3.29959 1.1806,6.34664 0.83226,6.77123 -0.34833,0.4246 0.18107,2.34699 1.17646,4.27199 l 1.8098,3.5 0.002,-3.25 c 0.002,-4.24554 2.74149,-4.37865 5.49629,-0.26707 1.0971,1.63745 3.25582,3.49954 4.79715,4.13798 3.54477,1.46829 5.43778,5.25232 5.19228,10.37909 -0.27657,5.77553 -1.28623,7.5 -4.39116,7.5 -3.55238,0 -5.09345,-1.69237 -5.09345,-5.59301 0,-3.12234 -3.01534,-5.86096 -3.81426,-3.46422 -0.46219,1.38657 -4.18574,1.37394 -4.18574,-0.0142 0,-1.38448 -2.54409,-3.92857 -3.92857,-3.92857 -0.58929,0 -1.07143,-1.42707 -1.07143,-3.17126 0,-1.74419 -0.74474,-3.99419 -1.65499,-5 -1.31621,-1.4544 -1.36738,-1.83187 -0.25,-1.84405 1.12331,-0.0122 1.14412,-0.18078 0.10382,-0.84064 -1.05615,-0.66992 -1.0636,-1.34675 -0.0396,-3.59424 1.11146,-2.4394 1.02967,-2.93849 -0.68729,-4.19397 -1.20787,-0.88321 -2.08003,-1.03167 -2.29377,-0.39045 -0.60924,1.82772 -3.1782,1.10243 -3.1782,-0.8973 0,-1.06254 -1.35,-2.89319 -3,-4.06809 -3.60828,-2.56932 -3.89166,-5.82818 -1,-11.5 1.1,-2.15759 2,-4.47722 2,-5.15474 0,-0.67752 0.86826,-1.84001 1.92948,-2.58331 2.03173,-1.42308 3.50894,-9.372963 1.92369,-10.352702 -0.46921,-0.29001 -0.85314,-1.42729 -0.85314,-2.52729 0,-1.1 0.447,-1.723736 0.99334,-1.386081 0.57566,0.355777 0.90443,-0.460374 0.78189,-1.940983 -0.27004,-3.262866 -1.55197,-3.29263 -2.36459,-0.0549 -0.99979,3.983494 -2.75292,2.996666 -2.07691,-1.169085 0.63034,-3.884362 2.27958,-5.63612 4.52761,-4.80907 0.91746,0.337533 1.16201,-0.01862 0.75,-1.092292 -0.33624,-0.87622 -0.64687,-2.343824 -0.69029,-3.26134 -0.0492,-1.039461 -0.26905,-1.197086 -0.58333,-0.418213 -0.80562,1.996546 -5.1228,1.502504 -5.81073,-0.664958 -0.73215,-2.3068 0.33438,-7.085044 1.58142,-7.085044 0.49037,0 0.89159,-0.613559 0.89159,-1.363464 0,-2.025815 4.41035,-1.463314 4.80994,0.613464 0.20545,1.067812 -0.27661,1.75 -1.23662,1.75 -1.83308,0 -1.97256,0.902428 -0.46367,3 0.91077,1.266118 0.99124,1.227138 0.51607,-0.25 -0.3628,-1.127813 -0.0408,-1.75 0.90566,-1.75 0.80774,0 1.46862,0.352977 1.46862,0.784392 0,0.431416 1.35,1.581858 3,2.556537 2.92172,1.7259 4.11348,4.659071 1.89301,4.659071 -0.60884,0 -0.85912,0.645927 -0.55618,1.435392 0.30295,0.789466 0.0136,1.660947 -0.64301,1.936626 -0.6566,0.275678 -0.0688,0.417251 1.30618,0.314607 1.82359,-0.136131 2.46291,0.283947 2.3629,1.552613 -0.0754,0.956581 0.23101,1.511741 0.68091,1.233688 0.44989,-0.278052 1.0885,-0.06786 1.41912,0.467088 0.33061,0.534951 1.18124,0.750026 1.89027,0.477944 1.52625,-0.585677 1.02465,-5.461042 -0.95431,-9.275486 -1.5211,-2.931916 -0.54139,-4.101176 3.4581,-4.127159 1.71629,-0.01115 2.1951,-0.437172 1.76145,-1.567251 -0.34149,-0.889925 -0.17385,-1.291322 0.39301,-0.940983 2.19639,1.357441 0.80095,-1.487145 -1.80535,-3.680207 -3.8276,-3.220707 -4.57592,-4.676345 -3.23478,-6.292316 0.8638,-1.040809 0.82601,-1.886212 -0.15446,-3.456195 -0.98813,-1.582262 -1.02618,-2.51354 -0.15938,-3.9015 0.9227,-1.477489 0.78129,-2.046262 -0.74589,-3 -2.7165,-1.696486 -4.06532,-1.472228 -7.16159,1.19071 -2.91637,2.508211 -4.12406,6.017683 -1.25,3.632429 1.2532,-1.040066 1.5,-0.89568 1.5,0.877555 0,2.543807 -1.67011,2.730969 -4.17126,0.467457 -1.00581,-0.910243 -1.82874,-1.219869 -1.82874,-0.688058 0,0.531811 1.35,1.965027 3,3.184925 1.65,1.219898 3,3.104524 3,4.188058 0,2.093275 -1.4624,2.648939 -2.51008,0.953751 -0.34546,-0.558971 -1.11655,-0.714443 -1.71353,-0.345491 -0.64782,0.400379 -0.79775,0.205381 -0.37188,-0.483689 0.39244,-0.634979 0.28824,-1.154508 -0.23155,-1.154508 -0.51979,0 -1.69246,-1.575 -2.60594,-3.5 -0.91347,-1.925 -2.12104,-3.5 -2.68349,-3.5 -1.43273,0 -0.65774,-4.25304 0.86647,-4.755005 0.6875,-0.226414 1.25,0.390838 1.25,1.371672 0,2.405781 1.57602,0.589427 2.3503,-2.708708 0.48667,-2.073031 0.11206,-2.857738 -1.87089,-3.91898 -1.36368,-0.729816 -2.47941,-2.079286 -2.47941,-2.998822 0,-0.919536 -1.89921,-3.609364 -4.22046,-5.977395 -4.08796,-4.170341 -4.15075,-4.331298 -2,-5.126912 3.14352,-1.162863 2.92355,-3.742911 -0.2671,-3.132979 -1.74325,0.333244 -2.68851,-0.04813 -3.15915,-1.274594 -1.04674,-2.727768 1.02465,-5.022617 4.20867,-4.662701 2.36349,0.267164 2.60378,0.08906 1.56635,-1.160972 -0.97141,-1.170482 -0.95625,-1.647828 0.0731,-2.302848 0.71421,-0.454465 31.67356,-0.931678 68.79856,-1.060472 37.125,-0.128795 69.41473,0.216461 70.92723,-0.06049 10.31149,-3.05375 -1.09393,6.981938 3.04908,0.735117 0.99815,-0.310448 14.42372,-2.155871 26.52372,-2.445486 12.1,-0.289614 27.625,-0.751619 34.5,-1.026676 6.875,-0.275058 18.96795,-0.73139 26.87323,-1.01407 7.90528,-0.282681 14.65528,-0.652777 15,-0.822437 0.34472,-0.16966 11.20177,-0.38511 24.12677,-0.478778 12.925,-0.09367 25.07203,-0.622142 26.9934,-1.174385 1.92137,-0.552243 7.09637,-1.011202 11.5,-1.019907 4.40363,-0.0087 13.30631,-0.454957 19.78374,-0.991671 6.47743,-0.536714 17.05243,-1.198127 23.5,-1.4698084 6.44757,-0.271681 15.77286,-0.7181406 20.72286,-0.9921326 4.95,-0.273993 13.725,-0.756584 19.5,-1.072426 5.775,-0.315842 14.1,-0.991124 18.5,-1.500627 4.4,-0.509502 16.27089,-1.392906 26.37977,-1.96312 10.10887,-0.570214 18.74539,-1.262721 19.19226,-1.538906 1.89628,-1.171962 25.57431,-0.522267 29.33859,0.805014 3.58664,1.264645 3.92733,1.704496 4.11226,5.309193 0.18949,3.693627 1.20832,17.631941 3.50349,47.930312 0.54163,7.15 1.21986,16.825 1.50718,21.5 0.28733,4.675 0.72515,10.3 0.97294,12.5 0.2478,2.2 0.70025,10.075008 1.00545,17.500008 0.30521,7.425 0.99004,17.775 1.52186,23 0.53181,5.225 2.09419,24.575 3.47195,43 4.54701,60.80801 5.53856,73.3961 6.57721,83.5 0.56538,5.5 1.22245,13.15 1.46015,17 0.2377,3.85 1.15611,16.45 2.04091,28 0.8848,11.55 1.74679,25.58182 1.91554,31.18182 0.22957,7.61857 0.76308,10.95423 2.11923,13.25 0.99683,1.6875 2.27789,3.07203 2.84681,3.07673 0.86024,0.007 2.96155,5.75511 5.20627,14.24145 0.25459,0.9625 0.88257,1.75 1.39551,1.75 1.57452,0 1.03894,3.87125 -1.12143,8.10593 l -2.05404,4.02625 2.96317,3.03081 2.96318,3.03081 -2.07754,2.38938 c -2.19904,2.52912 -4.18599,3.03528 -14.96832,3.81307 -4.13433,0.29823 -6.97714,0.0815 -7.375,-0.56224 -0.39708,-0.64249 -0.88908,-0.68052 -1.27241,-0.0983 -0.70476,1.07031 -34.8869,3.89773 -57.62499,4.76652 -8.25,0.31523 -19.95,0.99566 -26,1.51207 -8.50616,0.72606 -65.37318,4.03946 -74.75,4.35536 -0.9625,0.0324 -1.75,0.39192 -1.75,0.79887 0,0.40695 -2.08987,2.33564 -4.64416,4.28599 -5.91342,4.51523 -11.28867,6.05283 -15.87196,4.54021 -2.35539,-0.77735 -3.97234,-0.80363 -5.31259,-0.0864 -1.05965,0.56711 -6.17423,1.95138 -11.36572,3.07616 -8.59069,1.86124 -9.71168,1.90906 -12.47209,0.53198 -2.70246,-1.34816 -3.36188,-1.34901 -6.05035,-0.008 -1.65952,0.82788 -5.09615,3.3351 -7.63695,5.5716 -2.92222,2.57224 -5.45125,3.98636 -6.88291,3.84861 -1.2448,-0.11977 -3.83827,0.481 -5.76327,1.33503 -1.925,0.85404 -5.28652,1.8877 -7.47005,2.29703 -2.18353,0.40933 -6.86,2.25058 -10.39215,4.09166 -3.53216,1.84109 -7.20681,3.34743 -8.16591,3.34743 -0.95909,0 -3.2957,1.59776 -5.19248,3.55059 -1.89677,1.95282 -4.53559,3.69214 -5.86404,3.86515 -1.32845,0.17301 -3.54037,0.76933 -4.91537,1.32515 -3.0643,1.23871 -12.77054,2.71585 -15.5,2.35886 -1.1,-0.14387 -3.03071,-1.35017 -4.29047,-2.68067 -3.10217,-3.27636 -9.32375,-3.31887 -13.61514,-0.093 -1.70191,1.27934 -5.79439,3.39457 -9.09439,4.70052 -3.3,1.30594 -6.95409,3.20778 -8.1202,4.2263 -2.26697,1.98006 -2.98806,2.06985 -11.18936,1.39342 -5.00637,-0.41292 -5.56659,-0.21547 -9.81082,3.45789 -2.47569,2.14284 -4.88709,3.89596 -5.35865,3.89596 -2.18915,0 -4.02097,-1.37818 -4.02097,-3.0252 0,-3.44793 -1.27718,-5.1019 -5.13007,-6.64352 -2.12846,-0.85164 -3.86993,-1.84753 -3.86993,-2.21309 0,-1.04527 -7.9007,-1.08787 -8.54457,-0.0461 -0.35481,0.57411 -1.27257,0.56094 -2.38464,-0.0342 -0.9943,-0.53214 -2.08923,-0.68611 -2.43318,-0.34217 -0.34394,0.34394 -1.48864,-0.15591 -2.54377,-1.11079 -2.2452,-2.03189 -4.9832,-2.63532 -7.09384,-1.56344 -0.825,0.41897 -3.73506,1.0614 -6.4668,1.42762 -2.73174,0.36623 -5.49132,1.10117 -6.1324,1.63322 -1.3477,1.11849 -7.4008,0.87718 -7.4008,-0.29504 0,-1.32071 -4.00209,-0.88013 -7.62601,0.83953 -2.58065,1.2246 -3.28415,2.08087 -2.84539,3.46329 0.43615,1.37418 -0.24928,2.23249 -2.72286,3.40965 -1.81816,0.86524 -5.33074,2.63025 -7.80574,3.92223 -2.475,1.29198 -4.85721,2.13683 -5.2938,1.87744 -0.4366,-0.25938 -1.3366,-0.0449 -2,0.47659 -0.66341,0.52151 -2.5562,1.27176 -4.2062,1.66722 -1.65,0.39546 -3.81433,1.59249 -4.80961,2.66007 -0.99529,1.06757 -2.23279,1.6795 -2.75,1.35985 -0.51722,-0.31966 -0.94039,-0.20026 -0.94039,0.26533 0,1.57513 -7.89403,1.23462 -9.54018,-0.41152 z M 60.025426,294.24287 c 0,-1.99979 2.91154,-3.99409 8.3419,-5.71391 2.97774,-0.94306 5.58148,-2.11333 5.78608,-2.60059 0.20461,-0.48727 -2.10298,-1.5118 -5.12798,-2.27675 -3.025,-0.76494 -5.95,-2.0148 -6.5,-2.77744 -0.55,-0.76265 -1.54809,-2.21312 -2.21797,-3.22326 -1.15344,-1.73933 -1.27527,-1.74392 -2.29969,-0.0866 -0.59495,0.9625 -1.73436,1.75 -2.53203,1.75 -1.84001,0 -1.87391,3.03844 -0.0616,5.51698 0.76381,1.04458 1.15924,2.49735 0.87872,3.22837 -0.28052,0.73103 0.26362,2.18402 1.2092,3.22888 0.94559,1.04486 1.4236,2.3781 1.06227,2.96276 -0.36135,0.58463 -0.18043,1.06299 0.40203,1.06299 0.58246,0 1.05902,-0.48214 1.05902,-1.07143 z m 0.69385,-7.56805 c -0.35171,-0.35171 -0.39562,-1.03405 -0.0976,-1.51631 0.63919,-1.03422 2.40372,-0.14245 2.40372,1.21481 0,1.07509 -1.35536,1.25229 -2.30615,0.3015 z M 184.55444,263.68849 c 1.33844,-1.44419 2.19039,-3.01919 1.89324,-3.5 -0.29716,-0.4808 -0.0316,-0.87419 0.59016,-0.87419 1.66153,0 3.98759,-2.61147 3.98759,-4.47688 0,-0.89085 0.9,-3.48252 2,-5.75926 1.1,-2.27673 2,-4.28 2,-4.45169 0,-1.0773 -3.88242,3.83656 -4.15919,5.26415 -0.63863,3.29415 -2.77552,2.5881 -4.54776,-1.50264 -1.10842,-2.55848 -2.421,-4.07368 -3.52895,-4.07368 -2.06571,0 -2.09755,-0.25884 -0.66608,-5.41456 0.59777,-2.15301 2.05776,-4.7733 3.24442,-5.82287 2.13911,-1.89198 2.13084,-1.89364 -0.96679,-0.19405 -4.99006,2.73792 -9.2846,14.43148 -5.30005,14.43148 0.62611,0 0.92264,0.5625 0.65896,1.25 -0.29375,0.7659 0.44778,1.30637 1.91471,1.39556 2.83137,0.17215 5.35073,2.04464 5.35073,3.97688 0,0.75766 -0.675,1.37756 -1.5,1.37756 -1.03726,0 -1.5,1.04195 -1.5,3.37756 0,4.63112 -2.34733,6.52307 -5.05402,4.07355 -1.10908,-1.00371 -1.77054,-2.46591 -1.46991,-3.24935 0.35814,-0.93328 0.0579,-1.2369 -0.87077,-0.88054 -1.78379,0.6845 -4.23934,-1.97923 -5.1358,-5.57122 -0.37747,-1.5125 -1.08753,-2.75 -1.57791,-2.75 -1.68295,0 -0.89117,-5.00042 1.10841,-7 2.00995,-2.00995 2.4835,-5.91433 1.1334,-9.34474 -0.65402,-1.66176 -0.84114,-1.59212 -1.88641,0.702 -0.97266,2.13476 -0.9229,2.4556 0.30766,1.98339 1.03665,-0.39779 1.28633,-0.0898 0.8497,1.04801 -0.34008,0.88624 -1.06833,1.61134 -1.61833,1.61134 -0.55,0 -0.71655,0.73865 -0.37012,1.64144 0.49821,1.29832 0.34415,1.40431 -0.737,0.50703 -1.13407,-0.94119 -1.29405,-0.24138 -0.93922,4.10856 0.23522,2.88363 0.50252,6.93544 0.594,9.00402 0.1212,2.74073 0.53982,3.61774 1.54307,3.23275 1.72968,-0.66374 4.12325,1.25187 4.12325,3.2999 0,2.41214 3.06059,5.2063 5.70274,5.2063 1.31602,0 3.48784,-1.18161 4.82627,-2.62581 z m -21.87409,-0.83106 c -0.32568,-0.84872 -1.06009,-1.54313 -1.63201,-1.54313 -0.65816,0 -0.5918,0.71745 0.18076,1.95452 1.37978,2.20937 2.35126,1.93398 1.45125,-0.41139 z m -4.65492,-3.54313 c 1.82797,-1.18132 0.24909,-1.18132 -2.5,0 -1.31874,0.56668 -1.48906,0.87815 -0.5,0.9144 0.825,0.0302 2.175,-0.38124 3,-0.9144 z m 7.5,0 c 0.33992,-0.55 -0.30852,-1 -1.44098,-1 -1.13246,0 -2.05902,0.45 -2.05902,1 0,0.55 0.64844,1 1.44098,1 0.79254,0 1.7191,-0.45 2.05902,-1 z m 13.86163,-3.5 c 0.31658,-0.825 0.13972,-1.5 -0.39301,-1.5 -0.53274,0 -0.96862,0.675 -0.96862,1.5 0,0.825 0.17686,1.5 0.39301,1.5 0.21616,0 0.65203,-0.675 0.96862,-1.5 z m 26.63837,-11.91667 c 0,-0.77916 -0.53096,-1.59365 -1.17991,-1.80997 -0.74895,-0.24965 -0.89162,-1.10189 -0.39061,-2.33333 0.43412,-1.06702 0.89976,-3.46858 1.03476,-5.33681 l 0.24546,-3.39678 -1.42182,2.71365 c -1.22462,2.33726 -1.64655,2.53099 -3.04208,1.39677 -1.39475,-1.13358 -1.52898,-1.07329 -0.96442,0.43314 0.51388,1.37118 0.12148,1.75 -1.81276,1.75 -1.80195,0 -2.46862,-0.54011 -2.46862,-2 0,-1.1 -0.39754,-2 -0.88342,-2 -1.58304,0 -1.96495,5.41377 -0.56355,7.98858 0.75179,1.38128 1.38491,2.14434 1.40693,1.69568 0.022,-0.44866 -0.42579,-1.68616 -0.99514,-2.75 -0.80431,-1.50286 -0.70873,-1.93426 0.42857,-1.93426 1.54554,0 4.60661,2.6039 4.60661,3.91861 0,0.74681 3.70637,2.87441 5.25,3.01371 0.4125,0.0372 0.75,-0.56982 0.75,-1.34899 z m 6.7755,-9.72208 c -1.2995,-0.80313 -4.7755,0.71601 -4.7755,2.08707 0,0.48287 1.33723,0.3732 2.97162,-0.24371 1.87049,-0.70603 2.53891,-1.38908 1.80388,-1.84336 z m -68.51982,-2.99156 c -0.47162,-1.80345 0.14586,-3.76878 2.86099,-9.10614 1.23046,-2.41882 1.11448,-2.7895 -0.6598,-2.10865 -0.84872,0.32569 -1.33242,0.80287 -1.07488,1.0604 0.25754,0.25754 -0.39806,2.48925 -1.45687,4.95937 -2.29849,5.36217 -2.51517,8.48897 -0.53563,7.72934 0.82311,-0.31585 1.17618,-1.3489 0.86619,-2.53432 z m 5.24432,2.13031 c -2.74909,-1.18132 -4.32797,-1.18132 -2.5,0 0.825,0.53316 2.175,0.94464 3,0.9144 0.98906,-0.0362 0.81874,-0.34772 -0.5,-0.9144 z m 15.74066,-3.53446 c -0.87525,-1.56398 -0.98828,-1.56563 -1.58021,-0.0231 -0.37462,0.97623 -0.22986,1.40944 0.351,1.05044 0.5437,-0.33602 0.98855,-0.0594 0.98855,0.61473 0,0.67413 0.26625,0.95943 0.59166,0.63402 0.32542,-0.32542 0.16747,-1.34967 -0.351,-2.27613 l 0,4e-5 z m 30.95519,-0.21554 c -0.28974,-1.5125 -0.71979,-2.17265 -0.95566,-1.46701 -0.42534,1.2725 0.33557,4.21701 1.08975,4.21701 0.216,0 0.15565,-1.2375 -0.13409,-2.75 z m 16.73386,0.83333 c -0.1781,-1.47817 -1.79706,-4.45164 -1.85942,-3.41512 -0.0387,0.64252 -0.31465,1.80502 -0.61332,2.58334 -0.32364,0.84337 0.0804,1.41512 1,1.41512 0.84867,0 1.5114,-0.2625 1.47274,-0.58334 z m -52.74638,-4.3 c -0.71756,-0.71756 -1.18333,-0.7766 -1.18333,-0.15 0,0.56834 0.3,1.33334 0.66667,1.7 0.36666,0.36667 0.89916,0.43417 1.18333,0.15 0.28417,-0.28416 -0.0158,-1.04916 -0.66667,-1.7 z m 37.1783,-2.28333 c 0.31658,-0.825 0.13972,-1.5 -0.39301,-1.5 -0.53274,0 -0.96862,0.675 -0.96862,1.5 0,0.825 0.34617,0.82277 0.56232,0.82277 0.21616,0 -1.8876,1.3567 0.79931,-0.82277 z m -46.86163,-6.5 c 0.33992,-0.55 0.16803,-1 -0.38197,-1 -0.55,0 -1.27811,0.45 -1.61803,1 -0.33992,0.55 -0.16803,1 0.38197,1 0.55,0 1.27811,-0.45 1.61803,-1 z m 1.90825,-4.75 c 1.41536,-3.86101 3.84444,-7.36946 6.1466,-8.8779 1.33539,-0.87498 2.19025,-1.97552 1.89969,-2.44566 -0.74864,-1.21132 7.21165,-6.02983 10.6883,-6.46983 3.78672,-0.47924 4.86052,-1.20347 4.84185,-3.26563 -0.0116,-1.28177 -0.21606,-1.37445 -0.84486,-0.38299 -1.03012,1.62425 -6.13983,0.54712 -6.13983,-1.29427 0,-0.69821 0.675,-2.88497 1.5,-4.85948 0.825,-1.9745 1.4478,-5.29196 1.384,-7.37212 -0.0668,-2.17699 -0.32628,-2.93332 -0.61147,-1.78212 -0.27251,1.1 -1.12031,2.35986 -1.884,2.79969 -0.76369,0.43983 -1.38853,1.25389 -1.38853,1.80902 0,0.55513 0.4949,0.70346 1.09977,0.32963 0.79754,-0.49291 0.80069,-0.12087 0.0115,1.35383 -0.59857,1.11844 -1.53469,2.18524 -2.08026,2.37068 -0.54558,0.18543 -1.42921,2.64755 -1.96362,5.47138 -0.78878,4.16783 -1.9218,6.1097 -6.01951,10.31665 -2.77635,2.85034 -5.04788,5.82744 -5.04788,6.61577 0,0.78834 -0.35134,1.43335 -0.78076,1.43335 -0.42942,0 -1.29033,1.35 -1.91314,3 -0.6228,1.65 -0.77394,3 -0.33587,3 0.43808,0 1.08519,-0.7875 1.43802,-1.75 z m 30.59175,-13.30902 c 0,-1.13246 -0.45,-28.04586 -1,-1.44098 -0.0134,0.64643 -1,1.26648 -1,2.05902 0,0.79254 0.45,1.44098 1,1.44098 0.55,0 1,-0.92656 1,-2.05902 z m 7.19634,-7.55463 c -0.86954,-1.55378 -0.98892,-1.43454 -0.85363,0.8526 0.0868,1.46781 0.5397,2.27705 1.01091,1.8064 0.47146,-0.47089 0.40104,-1.66133 -0.15728,-2.659 z m 2.80366,-95.43433 c 0,-0.458697 -0.45,-1.112109 -1,-1.452028 -0.55,-0.339919 -1,-0.403281 -1,-0.140804 0,0.262476 -0.2751,1.194137 -0.61134,2.070357 -0.44745,1.166041 -0.17937,1.427366 1,0.974799 0.88624,-0.340081 1.61134,-0.993627 1.61134,-1.452324 z m 5.58295,115.18219 c -0.43077,-0.697 -0.51316,-1.53733 -0.18309,-1.86741 0.89497,-0.89496 1.87077,0.4213 1.38739,1.87145 -0.33872,1.01617 -0.57427,1.01538 -1.2043,-0.004 l 0,-4e-5 z m 13.41705,-63.13421 c 0,-0.55 0.675,-1 1.5,-1 0.825,0 1.5,0.45 1.5,1 0,0.55 -0.675,1 -1.5,1 -0.825,0 -1.5,-0.45 -1.5,-1 z m -48,-53.043416 c 0,-2.484314 -2.8503,-3.902582 -7.01116,-3.488643 -3.29451,0.327751 -5.09976,-0.151952 -8.3463,-2.217832 -7.82355,-4.978386 -9.28107,-6.82134 -9.04539,-11.437383 0.1174,-2.299378 -0.15532,-5.15064 -0.60605,-6.336139 -0.74789,-1.967117 -0.47749,-2.168853 3.0947,-2.308825 2.87273,-0.112565 3.9142,0.243823 3.9142,1.339428 0,0.821041 0.4505,1.492802 1.00111,1.492802 0.55061,0 2.74795,1.8 4.88298,4 2.13503,2.2 4.38453,4 4.99889,4 1.90409,0 1.2267,3.158558 -0.79053,3.686074 -2.86159,0.748324 -3.19628,3.717133 -0.55934,4.96157 2.0516,0.968201 2.3381,0.725601 3.42423,-2.899607 0.65192,-2.175916 1.42832,-4.589475 1.72533,-5.363465 0.36735,-0.957304 0.0442,-1.217003 -1.01059,-0.81223 -0.94721,0.363476 -2.05699,-0.215822 -2.85189,-1.488659 -0.71571,-1.146026 -1.86804,-2.083683 -2.56074,-2.083683 -1.52952,0 -1.56986,-0.551468 -0.22427,-3.065741 0.81451,-1.521914 0.70792,-1.934259 -0.5,-1.934259 -2.76413,0 -1.69057,-4.457057 1.9154,-7.952099 1.89782,-1.839437 3.36032,-3.812345 3.25,-4.384238 -0.11032,-0.571894 1.48692,-1.334336 3.54942,-1.694317 2.0625,-0.35998 3.75,-0.275348 3.75,0.188072 0,0.46342 0.3375,0.757288 0.75,0.65304 0.4125,-0.104248 3.08026,1.292972 5.92835,3.104934 5.48683,3.490735 6.02999,5.617738 1.71135,6.701648 -1.466,0.367942 -2.3897,1.330942 -2.3897,2.491368 0,1.046574 -0.69645,1.891592 -1.55902,1.891592 -0.85746,0 -1.33656,-0.359932 -1.06468,-0.799849 0.27188,-0.439916 -0.41589,-1.368292 -1.52838,-2.063056 -1.83449,-1.145656 -1.95947,-1.063925 -1.34304,0.878265 0.52051,1.639998 -0.0866,2.825629 -2.59271,5.063057 -1.79981,1.60687 -2.7679,2.921583 -2.1513,2.921583 0.6166,0 1.42562,-0.492737 1.79782,-1.09497 0.41549,-0.67227 1.37963,-0.02347 2.49752,1.680658 1.361,2.074723 1.56627,3.251193 0.81289,4.658892 -0.7089,1.324597 -0.64838,2.316444 0.20401,3.343508 0.66654,0.803134 1.43689,1.235244 1.71189,0.960244 0.275,-0.275 -0.0483,-1.160699 -0.71851,-1.968221 -0.98486,-1.186674 -0.85381,-1.695984 0.68338,-2.655977 1.65681,-1.034696 1.76994,-1.682171 0.87784,-5.024432 -1.29111,-4.837156 -0.56001,-5.563496 3.30306,-3.281528 3.23023,1.908144 3.72992,2.855462 2.05292,3.891907 -0.55897,0.345464 -0.75742,1.047021 -0.44098,1.559017 0.31643,0.511996 -0.23873,0.937793 -1.23369,0.946215 -1.45907,0.01235 -1.53414,0.189288 -0.38809,0.914657 1.20869,0.765013 1.16537,1.289378 -0.29005,3.510622 -1.02235,1.560303 -1.59424,4.059252 -1.42093,6.208946 0.2807,3.48174 0.16921,3.610699 -3.45995,4.002085 -2.30469,0.248549 -3.75,-0.01933 -3.75,-0.695031 z m -5.21057,-22.351632 c -0.70919,-0.767271 -1.67497,-1.161021 -2.14619,-0.875 -0.47122,0.286022 -0.24622,0.906899 0.5,1.379727 2.11014,1.337054 3.07508,1.041201 1.64619,-0.504727 z m 5.5722,-7.10496 c -0.31659,-0.825 -0.75246,-1.5 -0.96862,-1.5 -0.21615,0 -0.39301,0.675 -0.39301,1.5 0,0.825 0.43588,1.5 0.96862,1.5 0.53273,0 0.70959,-0.675 0.39301,-1.5 z m 27.63837,9.5 c 0,-0.55 0.45,-1 1,-1 0.55,0 1,0.45 1,1 0,0.55 -0.45,1 -1,1 -0.55,0 -1,-0.45 -1,-1 z m -56.63837,-11.5 c -0.31659,-0.825 -0.31268,-2.185191 0.009,-3.022647 0.4866,-1.268075 0.92247,-1.311453 2.60699,-0.259453 2.6675,1.665887 2.66184,4.7821 -0.009,4.7821 -1.11727,0 -2.29041,-0.675 -2.60699,-1.5 z m 15,-2 c 0.31658,-0.825 0.18787,-1.5 -0.28603,-1.5 -0.47389,0 -1.08536,-0.583046 -1.35881,-1.295659 -0.5401,-1.40746 4.79741,-2.327424 5.60006,-0.965216 0.84739,1.438152 -1.25375,5.260875 -2.89161,5.260875 -1.04624,0 -1.431,-0.542618 -1.06361,-1.5 z m 11.71732,-9.916667 c -0.0434,-1.054166 0.19292,-1.644791 0.52522,-1.3125 0.33229,0.332292 0.36781,1.194792 0.0789,1.916667 -0.31922,0.797733 -0.55618,0.560776 -0.60416,-0.604167 l 4e-5,0 z m -15.07895,-28.25 c 0,-0.733333 -0.45,-1.333333 -1,-1.333333 -0.55,0 -1,-0.45 -1,-1 0,-0.55 2.07314,-1 4.60699,-1 3.79013,0 4.49936,0.280465 4,1.581787 -0.33385,0.869984 -0.60699,1.919984 -0.60699,2.333334 0,0.41335 -1.35,0.751546 -3,0.751546 -1.83333,0 -3,-0.518519 -3,-1.333334 z"
     id="path3929" />
</svg>
