<?xml version="1.0" encoding="UTF-8" standalone="no"?>
<!-- Created with Inkscape (http://www.inkscape.org/) -->
<svg id="wa-stamp" xmlns:rdf="http://www.w3.org/1999/02/22-rdf-syntax-ns#" xmlns="http://www.w3.org/2000/svg" height="783" width="603" version="1.1" xmlns:cc="http://creativecommons.org/ns#" xmlns:dc="http://purl.org/dc/elements/1.1/" viewBox="0 0 603.00001 783">
 <g id="border" transform="translate(1.5 -270.9)">
  <path d="m15 272.4a15 15 0 0 1 -15 15v30a15 15 0 0 1 15 15 15 15 0 0 1 -15 15v30a15 15 0 0 1 15 15 15 15 0 0 1 -15 15v30a15 15 0 0 1 15 15 15 15 0 0 1 -15 15v30a15 15 0 0 1 15 15 15 15 0 0 1 -15 15v30a15 15 0 0 1 15 15 15 15 0 0 1 -15 15v30a15 15 0 0 1 15 15 15 15 0 0 1 -15 15v30a15 15 0 0 1 15 15 15 15 0 0 1 -15 15v30a15 15 0 0 1 15 15 15 15 0 0 1 -15 15v30a15 15 0 0 1 4.012 0.5469 15 15 0 0 1 2.793 1.086 15 15 0 0 1 1.301 0.7461 15 15 0 0 1 3.367 2.957 15 15 0 0 1 2.857 5.23 15 15 0 0 1 0.6699 4.434 15 15 0 0 1 -0.0371 1.061 15 15 0 0 1 -0.1816 1.488 15 15 0 0 1 -1.414 4.256 15 15 0 0 1 -0.7461 1.301 15 15 0 0 1 -0.8711 1.219 15 15 0 0 1 -0.9902 1.127 15 15 0 0 1 -2.291 1.93 15 15 0 0 1 -1.277 0.7832 15 15 0 0 1 -5.693 1.762 15 15 0 0 1 -1.499 0.1v30a15 15 0 0 1 15 15 15 15 0 0 1 -15 15v30a15 15 0 0 1 15 15 15 15 0 0 1 -15 15v30a15 15 0 0 1 15 15 15 15 0 0 1 -15 15v30a15 15 0 0 1 0.006 0 15 15 0 0 1 15 15h30a15 15 0 0 1 15 -15 15 15 0 0 1 15 15h30a15 15 0 0 1 15 -15 15 15 0 0 1 15 15h30a15 15 0 0 1 15 -15 15 15 0 0 1 15 15h30a15 15 0 0 1 15 -15 15 15 0 0 1 15 15h30a15 15 0 0 1 15 -15 15 15 0 0 1 15 15h30a15 15 0 0 1 15 -15 15 15 0 0 1 15 15h30a15 15 0 0 1 15 -15 15 15 0 0 1 15 15h30a15 15 0 0 1 15 -15 15 15 0 0 1 15 15h30a15 15 0 0 1 15 -15 15 15 0 0 1 15 15h30a15 15 0 0 1 14.99 -15v-30a15 15 0 0 1 -15 -15 15 15 0 0 1 15 -15v-30a15 15 0 0 1 -15 -15 15 15 0 0 1 15 -15v-30a15 15 0 0 1 -15 -15 15 15 0 0 1 15 -15v-30a15 15 0 0 1 -1.061 -0.0371 15 15 0 0 1 -1.488 -0.1816 15 15 0 0 1 -5.557 -2.16 15 15 0 0 1 -1.219 -0.8711 15 15 0 0 1 -1.127 -0.9902 15 15 0 0 1 -1.93 -2.291 15 15 0 0 1 -0.7832 -1.277 15 15 0 0 1 -0.6524 -1.35 15 15 0 0 1 -0.8848 -2.861 15 15 0 0 1 -0.2246 -1.482 15 15 0 0 1 -0.0742 -1.498 15 15 0 0 1 0.0371 -1.061 15 15 0 0 1 0.5098 -2.951 15 15 0 0 1 0.4726 -1.424 15 15 0 0 1 1.359 -2.67 15 15 0 0 1 4.152 -4.275 15 15 0 0 1 2.627 -1.436 15 15 0 0 1 1.408 -0.5137 15 15 0 0 1 1.453 -0.3711 15 15 0 0 1 1.482 -0.2246 15 15 0 0 1 1.5 0.3v-30a15 15 0 0 1 -15 -15 15 15 0 0 1 15 -15v-30a15 15 0 0 1 -15 -15 15 15 0 0 1 15 -15v-30a15 15 0 0 1 -15 -15 15 15 0 0 1 15 -15v-30a15 15 0 0 1 -15 -15 15 15 0 0 1 15 -15v-30a15 15 0 0 1 -15 -15 15 15 0 0 1 15 -15v-30a15 15 0 0 1 -15 -15 15 15 0 0 1 15 -15v-30a15 15 0 0 1 -15 -15 15 15 0 0 1 15 -15v-30a15 15 0 0 1 -15 -15 15 15 0 0 1 15 -15v-30a15 15 0 0 1 -15 -15h-30a15 15 0 0 1 -15 15 15 15 0 0 1 -15 -15h-30a15 15 0 0 1 -15 15 15 15 0 0 1 -15 -15h-30a15 15 0 0 1 -15 15 15 15 0 0 1 -15 -15h-30a15 15 0 0 1 -15 15 15 15 0 0 1 -15 -15h-30a15 15 0 0 1 -15 15 15 15 0 0 1 -15 -15h-30a15 15 0 0 1 -15 15 15 15 0 0 1 -15 -15h-30a15 15 0 0 1 -15 15 15 15 0 0 1 -15 -15h-30a15 15 0 0 1 -15 15 15 15 0 0 1 -15 -15h-30a15 15 0 0 1 -15 15 15 15 0 0 1 -15 -15h-30z" stroke="#000" stroke-miterlimit="4.8" stroke-width="3" fill="none"/>
 </g>
 <g id="background" transform="translate(1.5,-218.5)">
  <rect height="650" width="470" y="285" x="65" fill="#c83737"/>
 </g>
 <g id="content" transform="translate(1.5,-218.5)" fill="#fff">
  <g transform="matrix(0 1.001 -.9992 0 0 0)">
   <path style="" d="m314.5-453.9-20.86-72.53h-9.839v-10.25h31.34v10.25h-9.839l15.5 53.61 14.91-53.61h-9.78v-10.25h37.65v10.25h-9.603l14.96 53.61 15.2-53.61h-9.721v-10.25h30.11v10.25h-9.662l-20.44 72.53h-11.72l-18.44-64.81-18.32 64.81h-11.43z"/>
   <path style="" d="m456.1-464.7v9.957h-19.56v-6.952q-8.13 7.895-18.15 7.895-7.777 0-13.55-5.067-5.715-5.067-5.715-12.96 0-7.954 6.068-13.2 6.127-5.244 14.73-5.244 8.013 0 15.5 4.831v-5.656q0-4.36-0.8248-6.716-0.8248-2.357-3.888-4.242-3.005-1.885-7.895-1.885-8.425 0-12.2 6.716l-10.72-2.828q7.129-13.32 24.63-13.32 6.422 0 11.08 1.767 4.713 1.709 7.011 4.478 2.298 2.71 3.064 5.892 0.8248 3.181 0.8248 10.13v26.39h9.603zm-20.68-11.25q-7.247-5.656-14.67-5.656-4.654 0-7.777 2.71t-3.123 7.011q0 4.006 2.71 6.716 2.769 2.71 7.482 2.71 8.13 0 15.38-6.834v-6.658z"/>
   <path style="" d="m462.7-454.7v-19.56h10.02v1.885q0.5302 4.006 4.301 6.599 3.83 2.592 9.014 2.592 5.42 0 8.661-1.885 3.24-1.885 3.24-5.244 0-3.24-2.71-4.772-2.651-1.532-10.6-2.828-11.78-2.003-16.85-6.422-5.008-4.478-5.008-11.55 0-7.129 5.479-11.9 5.479-4.831 14.43-4.831 8.072 0 13.9 3.299v-2.416h9.957v18.91h-9.957v-3.476q-4.537-7.011-13.2-7.011-4.419 0-7.306 1.944-2.828 1.885-2.828 5.067 0 3.24 2.592 4.478 2.651 1.178 11.31 2.533 8.307 1.296 12.55 3.064 4.242 1.709 7.011 5.774 2.828 4.006 2.828 9.368 0 7.954-6.127 12.67-6.068 4.654-15.79 4.654-9.132 0-14.91-4.124v3.181h-10.02z"/>
   <path style="" d="m525.9-464.7v-62.04h-10.31v-9.957h21.5v31.46q10.07-8.13 19.15-8.13 5.656 0 9.309 2.357t4.949 6.245q1.355 3.83 1.355 11.25v28.81h9.721v9.957h-20.92v-34.88q0-6.481-0.4124-8.661t-2.298-3.594q-1.826-1.414-4.36-1.414-6.481 0-16.5 7.365v31.23h9.898v9.957h-31.4v-9.957h10.31z"/>
   <path style="" d="m593.3-531.1q0-2.71 1.885-4.713 1.944-2.003 4.89-2.003 2.769 0 4.772 1.944t2.003 4.772-2.003 4.831q-2.003 1.944-4.772 1.944-2.828 0-4.831-2.003-1.944-2.003-1.944-4.772zm1.591 66.46v-37.12h-8.896v-9.957h20.09v47.07h8.779v9.957h-28.87v-9.957h8.896z"/>
   <path style="" d="m641.9-511.7v6.893q10.78-7.777 19.68-7.777 5.538 0 9.132 2.651 3.653 2.592 4.772 6.422 1.119 3.771 1.119 11.08v27.81h9.603v9.957h-20.8v-37.29q0-6.481-1.944-8.425-1.944-2.003-4.772-2.003-7.423 0-16.79 7.247v30.52h9.839v9.957h-31.05v-9.957h10.02v-37.12h-10.02v-9.957h21.21z"/>
   <path style="" d="m760.8-511.7v9.957h-10.25v42.48q0 8.602-0.8837 12.73-0.8838 4.183-4.301 8.484-3.358 4.36-10.13 7.306-6.775 2.946-15.14 2.946-12.61 0-22.51-7.6l7.306-8.13q7.423 5.774 16.14 5.774 4.831 0 8.955-1.885 4.124-1.826 6.127-4.478 2.062-2.651 2.651-5.067 0.5892-2.357 0.5892-8.013v-5.185q-2.651 3.358-8.307 6.363t-12.37 3.005q-12.25 0-19.97-8.484-7.718-8.484-7.718-20.86 0-13.55 8.484-21.86 8.543-8.366 19.74-8.366 11.31 0 20.15 9.014v-8.13h21.45zm-57.91 29.1q0 8.661 5.008 14.14 5.067 5.479 12.9 5.479 7.659 0 13.2-5.479 5.538-5.538 5.538-14.2 0-8.779-5.538-14.08-5.538-5.361-12.84-5.361-7.306 0-12.78 5.302-5.479 5.244-5.479 14.2z"/>
   <path style="" d="m765.8-501.8v-9.957h7.423v-8.779l11.19-10.25v19.03h10.55v9.957h-10.55v27.69q0 6.658 0.707 8.248 0.7659 1.532 3.712 1.532 3.123 0 6.127-1.178v10.19q-4.301 1.532-8.602 1.532-5.126 0-8.307-2.239-3.181-2.298-4.006-5.715-0.8248-3.417-0.8248-11.78v-28.28h-7.423z"/>
   <path style="" d="m803.1-483.2q0-13.2 8.72-21.62 8.72-8.484 21.27-8.484 12.31 0 21.15 8.366 8.837 8.307 8.837 21.74t-8.837 21.8q-8.779 8.366-21.15 8.366-12.73 0-21.39-8.484-8.602-8.484-8.602-21.68zm11.84 0q0 8.425 5.244 13.85 5.302 5.361 12.9 5.361 7.718 0 12.9-5.42 5.244-5.479 5.244-13.79 0-8.366-5.302-13.79-5.302-5.42-12.84-5.42-7.895 0-13.02 5.538-5.126 5.538-5.126 13.67z"/>
   <path style="" d="m892-511.7v6.893q10.78-7.777 19.68-7.777 5.538 0 9.132 2.651 3.653 2.592 4.772 6.422 1.119 3.771 1.119 11.08v27.81h9.603v9.957h-20.8v-37.29q0-6.481-1.944-8.425-1.944-2.003-4.772-2.003-7.423 0-16.79 7.247v30.52h9.839v9.957h-31.05v-9.957h10.02v-37.12h-10.02v-9.957h21.21z"/>
  </g>
  <path d="m162.9 494.7 2.971 0.959 4.054 7.003-2.344 2.142 1.456 1.715 2.517-4.256-2.799-3.073 0.6299-2.2 5.447-5.798 4.356 2.546 2.427 4.373-4.102 1.855-1.399-1.915-2.788 3.313 1.327 2.544-0.9162 3.2 3.561-6.013 1.971 2.187-5.034 7.756-3-0.8589-1.171-1.958-3.543-1.231-5.254-6.59zm9.032-3.581-2.915-0.4017 0.8988 2.529zm-9.129-1.748-1.002 2.743 2.415-0.4988zm13.57-16.02-0.8867 1.586-2.686-0.4444-0.4988-2.415zm245.9 60.83-34.36 167 1.772 10.91-5.014 4.685 2.26 4.932-44.85-7.945-45.34-10.53-9.863 4.521-16.65-5.99-31.93 6.772-14.95-5.504-27.64 2.491-7.108-9.38-17.54-5.021-22.47 5.807-21.49-14.72 3.244-19.88-5.004-12.45-5.575-4.044-8.568-0.005-3.312-3.396 0.8919-5.253-10.18-2.915-9.537-0.8942-5.331-7.035 7.61-22.3 3.495-35.72-1.207-10.75 2.68-24.33-6.295-16.49 1.948-15.36 6.312-13.49 14.38 13.91 5.572 8.328 33.05 14.97 5.417-3.958 9.45 11.89 3.317-5.171 2.024 11.41-7.793 13.53-14.25 15.99 16.23-10.71 12.06-16.22-0.727 15.24-7.32 19.79-10.97 11.19 15.74-9.222 3.604-13.66 3.604-13.66 7.762-5.734-6.199-28.25-1.821 10.59 2.866 16.06-2.775-3.525-7.576-20.2 9.064-20.59 6.056 10.91 4.273-16.56-8.144 0.1468-1.04-19.88 71.12 20.97 97.63 22.44z" fill-rule="evenodd"/>
 </g>
</svg>
